<?xml version="1.0" encoding="utf-8"?>
<!-- Generator: Adobe Illustrator 17.1.0, SVG Export Plug-In . SVG Version: 6.00 Build 0)  -->
<!DOCTYPE svg PUBLIC "-//W3C//DTD SVG 1.1//EN" "http://www.w3.org/Graphics/SVG/1.1/DTD/svg11.dtd">
<svg version="1.1" xmlns="http://www.w3.org/2000/svg" xmlns:xlink="http://www.w3.org/1999/xlink" x="0px" y="0px"
	 viewBox="0 0 579.4 283.2" enable-background="new 0 0 579.4 283.2" xml:space="preserve">
<g id="Camada_2" display="none">
	<rect x="0.3" y="-0.5" display="inline" width="579" height="284"/>
</g>
<g id="Layer_1">
	<path d="M48.8,73.2c0,0-17-17.2,3.4-25.6L38.6,6.3c0,0-4.6,5.9-1.4,15.1L25.8,0c0,0-3.2,3.1,3.2,20.7c0,0-13.2-14.4-15.6-14.4
		c0,0,1.6,11.3,11.5,25.3L9,16.5c0,0,1.4,15.1,9.7,30c0,0-8.5-7.8-12.1-10.1c0,0,1.2,14.6,11.2,31.8L6.6,61.3c0,0,2,11.4,18.7,22.5
		c0,0-9.5-6.4-18.7-4.1c0,0,2,6.5,16,8.8c0,0-10.4,1.9-10.8,10.3c0,0,5.2,0,13.6-3.4c0,0-7.2,3.4-6,14.6c0,0,6.8-2.7,8.4-6.1
		c0,0-0.5,6.9,2.3,12.3C30.1,116.2,37.2,82.3,48.8,73.2z"/>
	<g>
		<g>
			<path d="M71.3,52.4c-20.3,7.7-33.9,29.3-39.8,49.2c-0.6,2,2.5,2.8,3.1,0.9c5.5-18.7,18.6-39.7,37.5-46.9
				C74,54.8,73.2,51.7,71.3,52.4L71.3,52.4z"/>
		</g>
	</g>
	<path fill="none" stroke="#000000" stroke-width="2.2432" stroke-miterlimit="10" d="M80.4,90.1c0,0-33,0.5-47.4,13.6l-3.6,15.2
		c0,0,7.2-13.6,51-17.7"/>
	<path fill="none" stroke="#000000" stroke-width="1.9227" stroke-miterlimit="10" d="M56.7,170.1c0,0,17.5-28.5,26.2-16.4"/>
	<path fill="none" stroke="#000000" stroke-width="2.5636" stroke-miterlimit="10" d="M43.1,109.3c0,0-11.3,32.1-2.5,38.7
		c7.6,5.6,17.9,24.7,16.6,22.1"/>
	<path fill="none" stroke="#000000" stroke-width="1.9227" stroke-miterlimit="10" d="M43,150.4c0,0,8.5,20.1,9.7,24.7"/>
	<path fill="none" stroke="#000000" stroke-width="2.5636" stroke-miterlimit="10" d="M59.5,195.9c0,0,5.1,5.7-1.7,16.4
		c0,0-17.5-3.8-6.7-16.4"/>
	<path fill="none" stroke="#000000" stroke-width="2.5636" stroke-miterlimit="10" d="M57.8,212.3c0,0,7.4,4.2-2.9,12.3
		c0,0-7.8-2.6-2.7-14.5"/>
	<g>
		<path d="M57.9,221.2c0.8,0.4,1.5,0.9,2.2,1.4c0.3,0.3,0.7,0.5,1,0.8c0.3,0.3,0.7,0.6,1,0.9c0.3,0.3,0.6,0.7,0.9,1.1
			c0.3,0.4,0.6,0.8,0.8,1.3c0.2,0.5,0.4,1,0.5,1.7c0.1,0.3,0,0.7,0,1.1l-0.1,0.8c-0.1,0.4-0.2,0.8-0.3,1.2l-0.4,1.3
			c-0.1,0.5-0.3,0.9-0.5,1.3c-0.2,0.4-0.3,0.8-0.5,1.2c-0.4,0.8-0.8,1.6-1.2,2.3c-0.2,0.4-0.4,0.8-0.7,1.1c-0.2,0.4-0.5,0.7-0.8,1.1
			l-1.8,2.5l-1.8-2.3l-0.7-0.9l-0.7-0.9c-0.5-0.6-0.9-1.3-1.2-1.9c-0.4-0.7-0.8-1.4-1.1-2.1c-0.2-0.4-0.3-0.7-0.5-1.1
			c-0.1-0.4-0.3-0.8-0.4-1.2c-0.1-0.4-0.2-0.9-0.2-1.4l0-0.2l0-0.3l0-0.3l0.1-0.5c0.1-0.7,0.2-1.5,0.3-2.2c0.1-0.7,0.2-1.4,0.4-2.2
			c0.2-0.7,0.4-1.5,0.6-2.2l0.3,0l0,2.2c0,0.7,0,1.4,0,2.2l0,2.2c0,0.4,0,0.7,0.1,1.1c0,0.3,0.2,0.7,0.3,1c0.5,1.3,1.3,2.6,2.1,3.7
			c0.8,1.2,1.7,2.3,2.6,3.4l-0.4,0c0.5-0.7,0.9-1.4,1.3-2.1c0.4-0.7,0.8-1.4,1.2-2.1c0.2-0.4,0.4-0.7,0.6-1.1
			c0.2-0.4,0.4-0.7,0.5-1.1l0.5-1.1l0.4-1.2c0.1-0.4,0.2-0.8,0.2-1.1c0-0.4-0.1-0.8-0.3-1.2c-0.1-0.4-0.3-0.7-0.5-1.1
			c-0.2-0.4-0.4-0.7-0.6-1c-0.9-1.4-2-2.6-3.1-3.8L57.9,221.2z"/>
	</g>
	<path fill="none" stroke="#000000" stroke-width="1.9227" stroke-miterlimit="10" d="M71,185c0,0,6.8,20,9.4,14.6
		c2.6-5.4,2.3-10.3,2.3-10.3"/>
	<path fill="none" stroke="#000000" stroke-width="1.9227" stroke-miterlimit="10" d="M79.8,112.6c0,0,1.3,6.6-2.7,11.2
		c0,0-15.6-3.8-21.6-5c-6-1.1-11.8,6.5-11.8,6.5l5.2-10.3l-5.2,1.5l8.6-7.2c0,0,12.1,2.6,17,4.2C74.2,115,77.1,114.5,79.8,112.6z"/>
	<path d="M78.3,123.6c-3.3,4.5-7.7,7.4-7.7,7.4s-10,6.9-20.4-5.6c0,0,2-8.8,10.1-5.7"/>
	<g>
		<path d="M48.9,134.1l1.6,1.2l0.8,0.5c0.3,0.2,0.5,0.4,0.8,0.5c0.6,0.3,1.1,0.7,1.7,0.9l0.9,0.4l0.9,0.3c0.3,0.1,0.6,0.2,0.9,0.3
			c0.3,0.1,0.6,0.2,0.9,0.2c0.3,0,0.6,0.1,0.9,0.1c0.3,0,0.6,0.1,0.9,0c0.6,0,1.2,0,1.8-0.2c0.3-0.1,0.6-0.1,0.9-0.2
			c0.3-0.1,0.6-0.2,0.8-0.3l0,0l0.1,0c0.5-0.2,1.1-0.5,1.6-0.8c0.5-0.3,1.1-0.6,1.6-0.9c1.1-0.6,2-1.4,3-2.1l1.4-1.2l1.4-1.2
			l1.4-1.2c0.3-0.2,0.5-0.4,0.8-0.6l0.8-0.6l6.9-4.9l-5.2,6.9l-2.4,3.1l-1.2,1.6c-0.4,0.5-0.8,1.1-1.2,1.6c-0.4,0.5-0.7,1.1-1.1,1.6
			c-0.4,0.5-0.8,1.1-1.1,1.7l-0.5,0.8c-0.2,0.3-0.4,0.6-0.5,0.9c-0.3,0.6-0.6,1.2-0.9,1.8l-0.2-0.1c0.1-0.7,0.2-1.4,0.3-2
			c0.1-0.7,0.4-1.3,0.6-2c0.1-0.3,0.2-0.7,0.3-1l0.4-0.9c0.3-0.6,0.6-1.3,0.9-1.9c0.3-0.6,0.7-1.2,1-1.8c0.4-0.6,0.7-1.2,1.1-1.7
			c0.8-1.1,1.5-2.2,2.4-3.3l1.7,1.9l-1.5,0.9l-1.5,1.1l-1.5,1.1c0,0-0.2,0.1-0.1,0.1l-0.2,0.2l-0.4,0.3l-0.8,0.6
			c-1.1,0.8-2.2,1.5-3.3,2.1c-0.6,0.3-1.2,0.6-1.7,0.9c-0.6,0.3-1.2,0.5-1.8,0.8l0.1,0c-0.4,0.2-0.7,0.3-1.1,0.4
			c-0.4,0.1-0.7,0.2-1.1,0.2c-0.7,0.1-1.4,0.1-2.1,0.1c-0.4,0-0.7-0.1-1-0.1c-0.3,0-0.7-0.1-1-0.2c-0.3-0.1-0.7-0.2-1-0.3
			c-0.3-0.1-0.7-0.2-1-0.4l-0.9-0.4l-0.9-0.5c-0.6-0.3-1.1-0.7-1.7-1.1c-0.3-0.2-0.5-0.4-0.8-0.6l-0.8-0.6l-1.4-1.4L48.9,134.1z"/>
	</g>
	<circle fill="none" stroke="#000000" stroke-width="1.2818" stroke-miterlimit="10" cx="63.5" cy="97.7" r="2.8"/>
	<circle fill="none" stroke="#000000" stroke-width="1.2818" stroke-miterlimit="10" cx="46.9" cy="102" r="2.8"/>
	<g>
		<g>
			<g>
				<rect x="105.7" y="172.1" fill="none" width="575" height="45.9"/>
				<path d="M209.8,216.6v-44.5h23.4v8.5h-12.7v8.8h11.3v8.5h-11.3v18.7H209.8z"/>
				<path d="M263.1,216.6c-0.2-2.2-0.7-4.4-1.5-6.5c-0.8-2.1-1.8-4.1-3-5.8c-1.2-1.8-2.6-3.3-4.2-4.6c-1.6-1.3-3.3-2.2-5-2.7v19.6
					h-10.7v-44.5h30.5c-0.1,2.3-0.4,4.4-1,6.4c-0.6,2-1.4,3.8-2.3,5.4c-0.9,1.6-2,3-3.2,4.2s-2.3,2.1-3.5,2.7c2,1,4,2.4,5.8,4.2
					s3.5,3.9,5,6.2c1.4,2.3,2.6,4.8,3.5,7.4c0.9,2.6,1.3,5.3,1.3,7.8H263.1z M249.4,180.7v6.9c0.6-0.2,1.3-0.5,2-1
					c0.7-0.4,1.3-1,1.9-1.6c0.6-0.6,1-1.3,1.4-2c0.4-0.7,0.6-1.5,0.7-2.4H249.4z"/>
				<path d="M303,216.6c-0.1-2.6-0.4-5-0.9-7.3h-12.8v7.3h-10.5v-45c3.3,0.3,6.4,1.1,9.4,2.6c3,1.4,5.8,3.3,8.3,5.5
					c2.6,2.3,4.9,4.8,6.9,7.7c2.1,2.9,3.8,6,5.3,9.2s2.6,6.6,3.4,10c0.8,3.4,1.2,6.7,1.2,10H303z M300,202c-1.3-3.2-2.8-6.2-4.7-8.9
					c-1.8-2.7-3.8-4.9-6-6.6V202H300z"/>
				<path d="M360.7,216.6c-0.1-3-0.5-6-1-8.9c-0.6-2.9-1.3-5.6-2.3-8.1c-0.9-2.5-2-4.8-3.3-6.8c-1.3-2.1-2.7-3.8-4.3-5.3v29h-10.5
					c-0.1-3-0.5-6-1-8.9s-1.3-5.6-2.3-8.1c-1-2.5-2.1-4.8-3.4-6.8c-1.3-2.1-2.7-3.8-4.3-5.3v29h-10.7v-45c2.1,0.2,4.1,0.6,6.1,1.3
					c2,0.7,3.8,1.7,5.6,2.8c1.8,1.2,3.5,2.5,5.1,4.1s3.1,3.2,4.5,5v-13.2c3.1,0.3,6.1,1.1,8.9,2.6c2.8,1.4,5.4,3.3,7.9,5.5
					c2.4,2.3,4.6,4.8,6.6,7.7c2,2.9,3.6,6,5,9.2s2.4,6.6,3.2,10c0.7,3.4,1.1,6.7,1.1,10H360.7z"/>
				<path d="M398.4,217.1c-4-0.3-7.6-1.3-11-3.1c-3.4-1.8-6.3-4.1-8.7-6.8c-2.5-2.7-4.4-5.8-5.8-9.2c-1.4-3.4-2.1-6.7-2.1-10.1h6.2
					c-0.8-0.9-1.6-1.9-2.4-3.1c-0.8-1.2-1.5-2.4-2.1-3.8c-0.6-1.3-1.1-2.8-1.5-4.3c-0.4-1.5-0.6-3.1-0.6-4.7h28.9v8.5h-16.4
					c0.1,0.8,0.4,1.5,0.8,2.3c0.5,0.8,1,1.5,1.7,2.2c0.7,0.7,1.4,1.3,2.3,1.8c0.8,0.5,1.7,0.8,2.5,1h8.2v7.8h-14.8
					c0.4,1.4,1,2.8,1.9,4c0.9,1.2,1.9,2.3,3.2,3.3s2.7,1.8,4.3,2.4c1.6,0.6,3.4,1,5.4,1.2V217.1z"/>
				<path d="M457,217.1c-4.2-0.4-8.1-1.7-11.7-4.1c-3.6-2.4-6.8-5.4-9.7-9.1v13.3c-3.1-0.3-6-1.1-8.9-2.6c-2.8-1.4-5.4-3.3-7.9-5.5
					c-2.4-2.3-4.6-4.8-6.6-7.7c-2-2.9-3.6-6-5-9.2c-1.4-3.3-2.4-6.6-3.2-10c-0.7-3.4-1.1-6.7-1.1-10H414c0.1,3.1,0.5,6,1,8.9
					c0.6,2.9,1.3,5.6,2.3,8.1c1,2.5,2.1,4.8,3.4,6.9c1.3,2.1,2.7,3.8,4.3,5.3v-29.1h10.5c0.1,3.1,0.4,6,1,8.9
					c0.6,2.9,1.3,5.6,2.3,8.1c1,2.5,2.1,4.8,3.4,6.9c1.3,2.1,2.7,3.8,4.3,5.3v-29.1H457V217.1z"/>
				<path d="M463.4,216.6v-44.5h32.8v44.5H463.4z M485.6,181.6H474v25h11.6V181.6z"/>
				<path d="M527,216.6c-0.2-2.2-0.7-4.4-1.5-6.5c-0.8-2.1-1.8-4.1-3-5.8c-1.2-1.8-2.6-3.3-4.2-4.6c-1.6-1.3-3.3-2.2-5-2.7v19.6
					h-10.7v-44.5H533c-0.1,2.3-0.4,4.4-1,6.4c-0.6,2-1.4,3.8-2.3,5.4s-2,3-3.1,4.2c-1.2,1.2-2.3,2.1-3.5,2.7c2,1,4,2.4,5.9,4.2
					c1.9,1.8,3.5,3.9,5,6.2c1.4,2.3,2.6,4.8,3.4,7.4c0.9,2.6,1.3,5.3,1.3,7.8H527z M513.3,180.7v6.9c0.6-0.2,1.3-0.5,2-1
					c0.7-0.4,1.3-1,1.9-1.6c0.6-0.6,1-1.3,1.4-2c0.4-0.7,0.6-1.5,0.7-2.4H513.3z"/>
				<path d="M567.5,216.6c-0.1-2.3-0.6-4.7-1.3-7c-0.8-2.4-1.8-4.6-3-6.6c-1.2-2-2.7-3.8-4.3-5.4c-1.7-1.6-3.5-2.7-5.4-3.5v22.5
					h-10.7v-44.5h10.7v12.1c0.7,0,1.5-0.3,2.3-1c0.9-0.7,1.7-1.6,2.5-2.7c0.8-1.1,1.6-2.4,2.3-3.9c0.7-1.4,1.3-2.9,1.8-4.5h10.7
					c-1,4.2-2.3,7.6-4,10.3c-1.7,2.7-3.7,4.7-6.1,6.1c2.6,1.4,4.9,3.3,6.9,5.5c2,2.2,3.6,4.6,4.9,7.2c1.3,2.6,2.2,5.2,2.9,7.9
					c0.6,2.7,1,5.2,1,7.5H567.5z"/>
			</g>
			<g>
				<rect x="76.2" y="90.4" fill="none" width="442" height="82.4"/>
				<path d="M211.5,149.7V90.4h43.7v59.4H211.5z M241.1,103.1h-15.4v33.4h15.4V103.1z"/>
				<path d="M263.7,90.4h46.1c0,4.3-0.5,8.7-1.6,13.3c-1.1,4.5-2.6,9-4.5,13.3c-1.9,4.3-4.3,8.5-7,12.3c-2.7,3.9-5.8,7.3-9.2,10.3
					c-3.4,3-7.1,5.5-11.1,7.4s-8.2,3.1-12.6,3.4V90.4z M277.7,104v24c1.8-1.1,3.5-2.5,5.2-4.2c1.7-1.7,3.1-3.5,4.4-5.6
					c1.3-2.1,2.4-4.3,3.4-6.7c0.9-2.4,1.6-4.9,2-7.5H277.7z"/>
				<path d="M315.4,149.7V90.4h14.3v59.4H315.4z"/>
				<path d="M368,149.7c0-4.4-0.3-8.4-1-12c-0.7-3.7-1.7-7.1-3-10.3c-1.4-3.2-3-6.2-5-9c-2-2.8-4.3-5.6-7-8.3v39.7h-13.8V90.4h14.2
					c4.1,2.9,7.7,6.2,10.9,10c3.1,3.8,5.5,7.4,7.2,11v-21h12.4v59.4H368z"/>
			</g>
		</g>
		<path d="M150.8,116.2c1.2,6,2.3-12.3,2.3-12.3c1.6,3.4,8.6,6.1,8.6,6.1c1.2-11.1-6.1-14.6-6.1-14.6c8.6,3.4,13.9,3.4,13.9,3.4
			c-0.4-8.4-11-10.3-11-10.3c14.3-2.3,16.4-8.8,16.4-8.8c-9.4-2.3-19.2,4.1-19.2,4.1c17.2-11.1,19.2-22.5,19.2-22.5l-11.5,6.9
			c10.2-17.2,11.5-31.8,11.5-31.8c-3.7,2.3-12.4,10.1-12.4,10.1c8.6-14.9,10-30,10-30l-16.3,15.1c10.1-14,11.8-25.3,11.8-25.3
			c-2.5,0-16,14.4-16,14.4C158.5,3.1,155.2,0,155.2,0l-11.7,21.7c3.3-9.2-1.4-15.4-1.4-15.4l-13.9,41.2c20.9,8.4,3.5,25.6,3.5,25.6
			S144.8,87.1,150.8,116.2z"/>
		<path fill="none" stroke="#000000" stroke-width="2.5636" stroke-miterlimit="10" d="M92.3,46.5c2.1-0.2,9.1,0.4,16.6,6.7l-7,6.9
			c0,0-5.6,36.7-0.4,90l-12.5,8.3"/>
		<g>
			<g>
				<path d="M107.8,55.5c19.1,7.4,32.5,28.5,38.2,47.4c0.6,2,3.7,1.1,3.1-0.9c-6.1-20.1-20-41.7-40.5-49.6
					C106.8,51.6,105.9,54.7,107.8,55.5L107.8,55.5z"/>
			</g>
		</g>
		<path fill="none" stroke="#000000" stroke-width="2.2432" stroke-miterlimit="10" d="M99.3,90.1c0,0,33.8,1.1,48.5,14.2l3.7,14.6
			c0,0-7.4-13.6-52.2-17.7"/>
		<g>
			<path d="M151.5,118.8l4.6,8.5l4.5,8.6l4.5,8.6c0.8,1.4,1.5,2.9,2.1,4.4c0.6,1.5,1.3,3,2,4.4l-0.1-0.2c0.6,1,1.1,1.9,1.5,2.9
				c0.5,1,0.9,2,1.3,3c0.2,0.5,0.4,1,0.5,1.5c0.2,0.5,0.3,1,0.5,1.6c0.3,1,0.5,2.1,0.8,3.2c0.2,1.1,0.3,2.2,0.4,3.3
				c0,0.6,0,1.1,0,1.7c0,0.6,0,1.1-0.1,1.7c-0.1,0.6-0.2,1.1-0.3,1.7l-0.5,1.7c-0.2,0.6-0.5,1.1-0.7,1.6l-0.4,0.7l-0.4,0.7l-0.7,1.4
				l-0.5,1.3l-0.3,0.6l-0.2,0.7c-0.1,0.4-0.3,0.9-0.4,1.3l-0.3,1.3l-0.1,1.3c0,0.9,0,1.8,0.1,2.7c0.1,0.9,0.4,1.7,0.7,2.6
				c0.1,0.4,0.4,0.8,0.5,1.2c0.2,0.4,0.5,0.8,0.7,1.2c0.5,0.7,1.1,1.5,1.7,2.1c0.6,0.7,1.4,1.2,2.1,1.8l6.8,5.2l-8.3-1.7l-11.1-2.3
				l2-3c0.7,1.1,1.3,2.1,1.9,3.2c0.6,1.1,1.1,2.2,1.6,3.3c1,2.3,1.7,4.6,2.2,7.1c0.2,1.2,0.4,2.5,0.4,3.8c0,1.3-0.1,2.6-0.3,3.9
				c-0.3,1.3-0.7,2.6-1.2,3.8c-0.6,1.2-1.3,2.4-2.2,3.3c-0.4,0.5-0.9,1-1.4,1.4c-0.5,0.5-1,0.8-1.6,1.3c-0.9,0.6-1.8,1.3-2.7,2
				c-1.7,1.4-3.4,3-4.9,4.6c-1.5,1.6-2.8,3.4-3.7,5.3c-0.9,1.9-1.4,3.8-1.1,5.6l0.7,3.7l-3.4-1.7c-0.3-0.2-0.4-0.2-0.6-0.4
				c-0.2-0.1-0.3-0.2-0.5-0.3c-0.3-0.2-0.5-0.5-0.8-0.7c-0.2-0.3-0.4-0.5-0.6-0.8c-0.2-0.3-0.4-0.6-0.5-0.9
				c-0.2-0.3-0.3-0.6-0.4-0.9l-0.4-0.9c-0.1-0.3-0.2-0.6-0.3-0.9l-0.2-0.9l3.8-0.1c-0.1,0.7-0.3,1.3-0.4,1.8
				c-0.1,0.6-0.4,1.1-0.6,1.7c-0.4,1.1-0.9,2.1-1.4,3.1c-0.5,1-1.1,2-1.7,3c-0.6,1-1.3,1.8-2,2.8c-0.7,0.9-1.5,1.7-2.2,2.6
				c-0.8,0.8-1.6,1.6-2.4,2.4c-0.8,0.8-1.7,1.5-2.5,2.2c-0.4,0.4-0.8,0.7-1.3,1.1l-1.3,1c-0.9,0.6-1.8,1.3-2.7,1.9l-2.8,1.7
				c-0.9,0.6-1.9,1.1-2.9,1.6l-2.9,1.5c-1,0.5-2,0.9-3,1.3c-1,0.4-2,0.9-3,1.3l-6.2,2.2l-5.5,1.9l3.4-5l0.2-0.3
				c0.1-0.1,0.1-0.2,0.2-0.3l0.4-0.7c0.3-0.5,0.5-1,0.7-1.4c0.1-0.2,0.3-0.5,0.4-0.7l0.3-0.7l0.7-1.5l2.7,2c-4,2.5-8,5.1-11.9,7.7
				c-2,1.3-3.9,2.7-5.7,4.2c-0.9,0.7-1.8,1.5-2.7,2.3c-0.4,0.4-0.8,0.8-1.2,1.3c-0.4,0.5-0.8,0.9-0.9,1.5c0.1-0.6,0.4-1.1,0.7-1.6
				c0.3-0.5,0.7-1,1.1-1.5c0.8-0.9,1.6-1.8,2.4-2.7c1.7-1.7,3.4-3.3,5.2-4.9c1.8-1.6,3.6-3.2,5.5-4.7c1.9-1.5,3.7-3,5.6-4.5l4.4-3.4
				l-1.7,5.4l-0.6,1.8L112,268c-0.1,0.3-0.3,0.6-0.4,0.9c-0.1,0.3-0.3,0.6-0.4,0.9c-0.2,0.3-0.3,0.6-0.5,0.8l-0.5,0.8
				c-0.1,0.1-0.2,0.3-0.3,0.4l-0.3,0.4l-2.1-3l6-2.1c1-0.4,1.9-0.8,2.9-1.2c1-0.4,1.9-0.8,2.9-1.3l2.8-1.4c0.9-0.5,1.9-0.9,2.7-1.5
				l2.7-1.6c0.9-0.5,1.7-1.2,2.5-1.8l1.3-0.9c0.4-0.3,0.8-0.7,1.2-1c0.8-0.7,1.6-1.3,2.3-2c0.7-0.7,1.5-1.4,2.2-2.2l2-2.3
				c0.6-0.8,1.2-1.6,1.8-2.5c0.5-0.9,1.1-1.7,1.5-2.6c0.5-0.9,0.9-1.8,1.2-2.7c0.1-0.5,0.4-0.9,0.5-1.4c0.1-0.4,0.3-1,0.3-1.3
				l1.5-8.8l2.3,8.6l0.2,0.6c0.1,0.2,0.1,0.4,0.2,0.6l0.2,0.6c0.1,0.2,0.2,0.4,0.3,0.6c0.1,0.2,0.2,0.4,0.3,0.5
				c0.1,0.1,0.2,0.3,0.4,0.5c0.1,0.1,0.3,0.3,0.4,0.4c0.1,0,0.1,0.1,0.2,0.1c0,0,0.2,0.1,0.1,0.1l-2.7,2.1c-0.2-1.4-0.2-2.8,0.1-4.2
				c0.3-1.3,0.7-2.6,1.3-3.8c1.1-2.3,2.6-4.4,4.3-6.2c1.6-1.8,3.4-3.5,5.3-5c0.9-0.8,1.9-1.5,2.9-2.2c0.3-0.3,0.8-0.6,1.2-0.9
				c0.4-0.4,0.8-0.7,1.1-1.1c0.7-0.7,1.2-1.6,1.6-2.5c0.4-0.9,0.7-1.9,0.9-2.9c0.2-1,0.3-2,0.2-3.1c0-1.1-0.2-2.1-0.3-3.2
				c-0.4-2.1-1.1-4.2-2-6.3c-0.4-1-0.9-2-1.5-3c-0.5-1-1.1-2-1.7-2.8l-2.6-3.9l4.6,1l11.1,2.3l-1.5,3.4c-0.9-0.7-1.8-1.4-2.6-2.2
				c-0.8-0.8-1.5-1.7-2.2-2.7c-0.3-0.5-0.6-1-0.9-1.5c-0.2-0.5-0.5-1-0.7-1.6c-0.4-1.1-0.7-2.2-0.9-3.4c-0.2-1.2-0.2-2.3-0.1-3.5
				l0.2-1.7l0.4-1.7c0.1-0.6,0.3-1.1,0.5-1.6l0.3-0.8l0.3-0.8l0.7-1.6l0.7-1.4l0.4-0.7l0.1-0.2l0-0.1l0.1-0.1l0.1-0.3
				c0.2-0.4,0.4-0.8,0.5-1.2l0.4-1.3c0.1-0.4,0.1-0.9,0.2-1.3c0.1-0.4,0.1-0.9,0.1-1.4c0-0.5,0-0.9,0-1.4c0-0.9-0.2-1.9-0.3-2.8
				c-0.2-0.9-0.4-1.9-0.7-2.8c-0.1-0.5-0.3-0.9-0.4-1.4c-0.1-0.5-0.3-0.9-0.5-1.4c-0.3-0.9-0.7-1.8-1.2-2.7
				c-0.4-0.9-0.9-1.8-1.3-2.5l-0.1-0.1l0-0.1c-0.7-1.5-1.3-2.9-2-4.4c-0.7-1.4-1.3-2.9-1.9-4.5l-3.5-9l-3.4-9.1L151.5,118.8z"/>
		</g>
		<path fill="none" stroke="#000000" stroke-width="1.9227" stroke-miterlimit="10" d="M95.8,154c0,0,7.6-7.7,13.2,7
			c0,0-4.8,1.7-13.6,4.2l-5.5,1.4"/>
		<path fill="none" stroke="#000000" stroke-width="1.9227" stroke-miterlimit="10" d="M123.6,170.7c0,0-18.3-28.8-27.2-16.7"/>
		<path fill="none" stroke="#000000" stroke-width="2.5636" stroke-miterlimit="10" d="M137.5,109.3c0,0,11.5,32.1,2.5,38.7
			c-9,6.5-17,22.8-17,22.8"/>
		<path fill="none" stroke="#000000" stroke-width="1.9227" stroke-miterlimit="10" d="M137.6,150.4c0,0-8.7,20.1-9.9,24.7"/>
		<path fill="none" stroke="#000000" stroke-width="2.5636" stroke-miterlimit="10" d="M108.9,161c0,0,37.4,18,16.5,40
			c0,0-20.8-24-36.3-25.9"/>
		<path fill="none" stroke="#000000" stroke-width="2.5636" stroke-miterlimit="10" d="M120.7,195.9c0,0-5.2,5.7,1.7,16.4
			c0,0,17.9-3.8,6.9-16.4"/>
		<path fill="none" stroke="#000000" stroke-width="2.5636" stroke-miterlimit="10" d="M122.4,212.3c0,0-7.6,4.2,3,12.3
			c0,0,8-2.6,2.8-14.5"/>
		<path fill="none" stroke="#000000" stroke-width="2.5636" stroke-miterlimit="10" d="M89.7,179.3"/>
		<path fill="none" stroke="#000000" stroke-width="1.9227" stroke-miterlimit="10" d="M108.9,185c0,0-7,20-9.6,14.6
			c-2.7-5.4-2.8-10.3-2.8-10.3"/>
		<path fill="none" stroke="#000000" stroke-width="2.5636" stroke-miterlimit="10" d="M107.3,189.4c0,0-12.1,0-17.6,0"/>
		<path fill="none" stroke="#000000" stroke-width="1.9227" stroke-miterlimit="10" d="M99.9,112.6c0,0-1.3,6.6,2.8,11.2
			c0,0,16-3.8,22.1-5c6.2-1.1,12.1,6.5,12.1,6.5l-5.3-10.3l5.3,1.5l-8.8-7.2c0,0-12.3,2.6-17.4,4.2
			C105.7,115,102.7,114.5,99.9,112.6z"/>
		<path fill="none" stroke="#000000" stroke-width="1.9227" stroke-miterlimit="10" d="M107.9,122.6l-4.3,2c0,0,10.3,9.5,24.6,3.3
			c0,0-2.1-6.6-8.3-8"/>
		<path fill="none" stroke="#000000" stroke-width="1.9227" stroke-miterlimit="10" d="M110.8,128.1c0,0,0-5.5,5.8-5.3
			c5.9,0.2,5.3,6.5,5.3,6.5"/>
		<path d="M95.3,165.2c0,0,4.4-0.7,5-1.9c0.6-1.2-7.6-7.5-6.8-3.7C94.4,163.4,95.3,165.2,95.3,165.2z"/>
		<path d="M113.9,128.9c0,0-0.1-3,2-3c3.3,0,2.2,3.4,2.2,3.4"/>
		<path fill="none" stroke="#000000" stroke-width="1.9227" stroke-miterlimit="10" d="M89.8,50.6h-4.6c0,0,0.2-4.9,4.2-8.7
			c0,0,3.9,3.6,4.2,8.7H89.8z"/>
		<path fill="none" stroke="#000000" stroke-width="2.5636" stroke-miterlimit="10" d="M86.8,46.5c-2-0.2-8.5,0.4-15.8,6.8l6.8,6.9
			c0,0,5.4,36.7,0.4,90l12.2,8.3"/>
		<g>
			<path d="M29.4,118.8l-3.3,9.1l-3.3,9.1l-3.4,9c-0.5,1.5-1.1,3-1.8,4.5c-0.7,1.5-1.3,2.9-2,4.4l0,0.1l-0.1,0.1
				c-0.4,0.8-0.9,1.7-1.3,2.6c-0.4,0.9-0.8,1.8-1.1,2.7c-0.2,0.5-0.3,0.9-0.5,1.4c-0.2,0.5-0.3,0.9-0.4,1.4
				c-0.3,0.9-0.5,1.9-0.7,2.8c-0.1,0.9-0.3,1.9-0.3,2.8l0,0.7l0,0.7c0,0.5,0,0.9,0.1,1.4l0.2,1.3l0.4,1.3c0.1,0.4,0.4,0.8,0.5,1.2
				l0.1,0.3l0.1,0.1l0,0.1l0,0l0.1,0.1l0.4,0.7l0.7,1.4l0.7,1.6l0.3,0.8l0.3,0.8c0.2,0.5,0.4,1.1,0.5,1.6l0.3,1.7
				c0.1,0.6,0.1,1.1,0.2,1.7c0.1,1.1,0,2.3-0.1,3.5c-0.2,1.2-0.5,2.3-0.9,3.4c-0.2,0.6-0.5,1.1-0.7,1.6c-0.3,0.5-0.6,1-0.9,1.5
				c-0.6,1-1.3,1.9-2.1,2.7c-0.8,0.8-1.7,1.6-2.6,2.2l-1.5-3.4l10.8-2.3l4.6-1l-2.6,3.9c-0.6,0.8-1.1,1.9-1.6,2.8c-0.5,1-1,2-1.4,3
				c-0.9,2-1.5,4.1-1.9,6.3c-0.4,2.1-0.5,4.2-0.1,6.2c0.2,1,0.5,2,0.9,2.9c0.4,0.9,0.9,1.8,1.6,2.5c0.3,0.4,0.7,0.7,1,1.1
				c0.2,0.2,0.4,0.3,0.6,0.5l0.5,0.4c1,0.7,2,1.5,2.9,2.2c1.8,1.6,3.6,3.2,5.2,5.1c1.6,1.8,3.1,3.9,4.2,6.2c0.5,1.2,1,2.4,1.3,3.7
				c0.3,1.3,0.3,2.7,0.1,4.1l-2.7-2.1c-0.1,0,0,0,0.1-0.1c0.1,0,0.1-0.1,0.2-0.1c0.1-0.1,0.2-0.3,0.4-0.4c0.1-0.1,0.2-0.3,0.4-0.5
				c0.1-0.1,0.2-0.3,0.3-0.5c0.1-0.2,0.2-0.4,0.3-0.6l0.2-0.6c0.1-0.2,0.1-0.4,0.2-0.6l0.2-0.6l2.3-8.8l1.5,8.9
				c0.1,0.3,0.2,0.8,0.3,1.3c0.1,0.5,0.3,0.9,0.4,1.4c0.4,0.9,0.7,1.8,1.2,2.7c0.4,0.9,1,1.7,1.5,2.6c0.5,0.9,1.1,1.7,1.7,2.5
				c0.6,0.8,1.3,1.6,1.9,2.3c0.7,0.8,1.4,1.5,2.1,2.2c0.7,0.8,1.5,1.4,2.3,2.1l1.2,1l1.2,0.9c0.8,0.6,1.6,1.2,2.5,1.8l2.6,1.6
				c0.9,0.6,1.8,1.1,2.7,1.5l2.7,1.4c0.9,0.5,1.9,0.8,2.8,1.3l2.8,1.2l5.9,2.1l-2.1,3l-0.3-0.4c-0.1-0.2-0.2-0.3-0.3-0.4l-0.5-0.8
				c-0.3-0.6-0.6-1.1-0.8-1.7c-0.1-0.3-0.3-0.6-0.4-0.9l-0.3-0.9l-0.6-1.8l-1.6-5.2l4.3,3.3c1.9,1.4,3.7,2.9,5.5,4.4
				c1.8,1.5,3.6,3,5.3,4.6c1.7,1.6,3.5,3.1,5.1,4.8c0.8,0.8,1.6,1.7,2.3,2.6c0.4,0.5,0.7,0.9,1,1.4c0.3,0.5,0.6,1,0.7,1.6
				c-0.2-0.6-0.5-1-0.9-1.5c-0.4-0.4-0.8-0.8-1.2-1.2c-0.8-0.8-1.7-1.5-2.6-2.2c-1.8-1.4-3.7-2.8-5.6-4.1c-3.8-2.6-7.7-5.1-11.6-7.5
				l2.7-1.9l0.7,1.5l0.3,0.7c0.1,0.2,0.3,0.5,0.4,0.7l0.4,0.7c0.1,0.2,0.2,0.5,0.4,0.7l0.4,0.7c0.1,0.1,0.1,0.2,0.2,0.3l0.2,0.3
				l3.3,5l-5.4-2l-6.1-2.2l-3-1.3c-1-0.4-2-0.9-3-1.3l-2.9-1.5c-1-0.5-1.9-1-2.8-1.6l-2.8-1.7c-0.9-0.6-1.8-1.3-2.7-1.9l-1.3-1
				l-1.2-1.1c-0.8-0.7-1.7-1.4-2.4-2.2c-0.8-0.8-1.6-1.6-2.3-2.4c-0.7-0.9-1.4-1.7-2.1-2.6c-0.6-0.9-1.3-1.8-1.9-2.8
				c-0.6-1-1.2-1.9-1.6-2.9c-0.5-1-1-2.1-1.4-3.1c-0.2-0.6-0.4-1.1-0.5-1.6c-0.2-0.6-0.3-1.1-0.4-1.8l3.8,0.1l-0.2,0.9
				c-0.1,0.3-0.1,0.6-0.3,0.9l-0.4,0.9c-0.1,0.3-0.3,0.6-0.4,0.9c-0.2,0.3-0.3,0.6-0.5,0.9c-0.2,0.3-0.4,0.6-0.6,0.8
				c-0.3,0.3-0.5,0.5-0.8,0.8c-0.1,0.1-0.3,0.2-0.4,0.4c-0.2,0.1-0.3,0.2-0.6,0.4l-3.4,1.7l0.6-3.8c0.3-1.8-0.1-3.8-1-5.6
				c-0.9-1.9-2.2-3.7-3.6-5.3c-1.4-1.7-3.1-3.2-4.8-4.6c-0.8-0.7-1.8-1.4-2.6-2l-0.1-0.1l0,0l-0.1-0.1l-0.2-0.2l-0.4-0.3
				c-0.2-0.2-0.5-0.4-0.7-0.6c-0.5-0.5-0.9-0.9-1.4-1.4c-0.9-1-1.6-2.2-2.1-3.4c-0.6-1.2-0.9-2.5-1.2-3.8c-0.5-2.6-0.3-5.2,0.1-7.6
				c0.5-2.5,1.2-4.8,2.2-7c0.5-1.1,1-2.2,1.6-3.3c0.6-1.1,1.1-2.1,1.9-3.2l2,3l-10.8,2.3L0,202.9l6.6-5.2c0.7-0.6,1.4-1.1,2-1.8
				c0.6-0.6,1.2-1.4,1.7-2.1c0.2-0.4,0.5-0.8,0.7-1.2c0.2-0.4,0.4-0.8,0.5-1.2c0.3-0.8,0.5-1.7,0.7-2.6c0.1-0.9,0.1-1.8,0.1-2.7
				l-0.1-1.3l-0.3-1.3c-0.1-0.4-0.3-0.9-0.4-1.3l-0.2-0.7l-0.3-0.6l-0.5-1.3l-0.7-1.4l-0.4-0.7L9,176.9c-0.2-0.5-0.6-1.1-0.7-1.6
				l-0.5-1.7c-0.1-0.6-0.2-1.1-0.3-1.7c-0.1-0.6-0.1-1.1-0.1-1.7l0-0.8l0-0.8c0-1.1,0.2-2.2,0.3-3.3c0.2-1.1,0.4-2.1,0.7-3.2
				c0.1-0.5,0.3-1,0.5-1.5c0.2-0.5,0.3-1,0.5-1.5c0.4-1,0.8-2,1.2-3c0.5-1,0.9-1.9,1.5-2.9l-0.1,0.2c0.7-1.5,1.3-2.9,1.9-4.4
				c0.6-1.5,1.3-2.9,2.1-4.4l4.4-8.6l4.5-8.6L29.4,118.8z"/>
		</g>
		<path fill="none" stroke="#000000" stroke-width="1.9227" stroke-miterlimit="10" d="M83.4,153.7c0,0-7-7.4-12.4,7.3
			c0,0,4.7,1.7,13.3,4.2l6.1,1.4"/>
		<path fill="none" stroke="#000000" stroke-width="2.5636" stroke-miterlimit="10" d="M71,161c0,0-36.6,18-16.1,40
			c0,0,19.7-24,34.9-25.9"/>
		<line fill="none" stroke="#000000" stroke-width="1.9227" stroke-miterlimit="10" x1="102.8" y1="180.9" x2="76.4" y2="181"/>
		<path fill="none" stroke="#000000" stroke-width="2.5636" stroke-miterlimit="10" d="M72.6,189.4c0,0,11.9,0,17.2,0"/>
		<path d="M84.3,165.2c0,0-4.3-0.7-4.9-1.9c-0.6-1.1,7.4-7.5,6.6-3.7C85.2,163.4,84.3,165.2,84.3,165.2z"/>
		<g>
			<path d="M130.7,134.6l-1.4,1.3l-0.8,0.6c-0.3,0.2-0.5,0.4-0.8,0.6c-0.6,0.4-1.1,0.8-1.7,1.1l-0.9,0.5l-0.9,0.4
				c-0.3,0.1-0.6,0.2-0.9,0.3c-0.3,0.1-0.6,0.2-1,0.3c-0.3,0.1-0.7,0.2-1,0.2c-0.3,0-0.7,0.1-1,0.1c-0.7,0-1.4,0-2.1-0.1
				c-0.3,0-0.7-0.1-1-0.2c-0.4-0.1-0.7-0.2-1.1-0.4l0.1,0c-0.6-0.2-1.2-0.5-1.8-0.7c-0.6-0.3-1.1-0.5-1.7-0.8
				c-1.1-0.6-2.2-1.3-3.3-2l-0.8-0.6l-0.4-0.3l-0.2-0.1c0,0-0.1-0.1-0.1-0.1l-1.5-1.1l-1.5-1.1l-1.4-0.9l1.7-1.9
				c0.9,1,1.6,2.1,2.4,3.2c0.7,1.1,1.4,2.3,2,3.5c0.3,0.6,0.6,1.2,0.9,1.8l0.4,0.9c0.1,0.3,0.2,0.6,0.3,1c0.2,0.6,0.5,1.3,0.6,1.9
				c0.1,0.7,0.2,1.3,0.3,2l-0.2,0.1c-0.3-0.6-0.6-1.2-0.9-1.7c-0.1-0.3-0.3-0.6-0.5-0.8l-0.5-0.8c-0.3-0.5-0.7-1.1-1.1-1.6
				c-0.4-0.5-0.7-1.1-1.1-1.6c-0.4-0.5-0.8-1-1.1-1.6l-1.2-1.5l-2.3-3.1l-5.1-6.8l6.9,4.8c0.5,0.4,1.1,0.8,1.6,1.2l1.4,1.2l1.4,1.2
				l0.7,0.6l0.7,0.6c0.9,0.7,1.9,1.4,2.9,2.1c0.5,0.3,1,0.6,1.6,0.9c0.5,0.3,1.1,0.6,1.6,0.8l0.1,0l0,0c0.2,0.1,0.5,0.2,0.8,0.3
				c0.3,0.1,0.6,0.2,0.9,0.2c0.6,0.1,1.2,0.2,1.8,0.2c0.3,0,0.6,0,0.9,0c0.3,0,0.6-0.1,0.9-0.1c0.3,0,0.6-0.1,0.9-0.2
				c0.3-0.1,0.6-0.1,0.9-0.2l0.9-0.3l0.9-0.4c0.6-0.2,1.1-0.6,1.7-0.9c0.3-0.2,0.5-0.3,0.8-0.5l0.8-0.5l1.5-1.2L130.7,134.6z"/>
		</g>
		<g>
			<path d="M122.7,222.4c-0.4,0.8-0.9,1.7-1.3,2.5l-0.6,1.2c-0.2,0.4-0.4,0.8-0.5,1.2c-0.2,0.4-0.3,0.8-0.5,1.2
				c-0.1,0.4-0.2,0.8-0.3,1.1c0,0.2-0.1,0.3,0,0.5c0,0.1,0,0.1,0,0.2c0,0,0,0.1,0,0.1c0,0.1,0.1,0.1,0.1,0.1l0,0l0,0v0l0,0
				c-0.1-0.2,0,0,0-0.1l0,0l0.1,0.1l0.2,0.3c0.3,0.4,0.5,0.8,0.7,1.2l0.7,1c0.2,0.3,0.5,0.7,0.8,1c0.3,0.3,0.5,0.7,0.8,1
				c0.6,0.7,1.1,1.3,1.7,2l1.8,1.9l-3.4,0.3l0.7-0.9l0.7-0.9l1.3-1.9c0.4-0.6,0.8-1.3,1.2-1.9c0.4-0.6,0.8-1.2,1-1.8
				c0.1-0.3,0.2-0.6,0.3-0.8c0-0.1,0.1-0.2,0.1-0.3l0-0.6c0-0.8,0-1.6,0.1-2.4l0.2-2.4c0-0.8,0.1-1.6,0.2-2.4l0.3,0l0.4,2.4
				c0.1,0.8,0.2,1.6,0.3,2.4l0.3,2.4c0,0.4,0.1,0.8,0.1,1.2c0,0.4-0.1,0.8-0.3,1.2c-0.2,0.8-0.6,1.5-0.9,2.2
				c-0.4,0.7-0.7,1.4-1.2,2.1c-0.8,1.4-1.7,2.7-2.7,4l-0.2,0.2l-0.2-0.2c-1.3-1.3-2.5-2.7-3.7-4.2c-0.3-0.4-0.5-0.8-0.8-1.1
				c-0.3-0.4-0.5-0.8-0.8-1.2l-0.7-1.2L118,232c-0.2-0.4-0.4-0.9-0.4-1.4c0-0.2,0-0.5,0.1-0.7c0-0.2,0.1-0.5,0.2-0.7
				c0.1-0.5,0.3-0.9,0.5-1.3c0.2-0.4,0.4-0.8,0.7-1.2c1-1.6,2.2-3,3.4-4.4L122.7,222.4z"/>
		</g>
		<circle fill="none" stroke="#000000" stroke-width="1.9227" stroke-miterlimit="10" cx="89.8" cy="65.8" r="4.2"/>
		<path fill="none" stroke="#000000" stroke-width="1.9227" stroke-miterlimit="10" d="M94,90.1c0,2.3-1.9,4.2-4.2,4.2
			c-2.3,0-4.2-1.9-4.2-4.2s1.9-4.2,4.2-4.2C92.2,85.9,94,87.8,94,90.1z"/>
		<circle fill="none" stroke="#000000" stroke-width="1.9227" stroke-miterlimit="10" cx="89.8" cy="114.5" r="4.2"/>
		<circle fill="none" stroke="#000000" stroke-width="1.9227" stroke-miterlimit="10" cx="89.8" cy="138.8" r="4.2"/>
		<circle fill="none" stroke="#000000" stroke-width="1.2818" stroke-miterlimit="10" cx="114.4" cy="97.1" r="2.8"/>
		<circle fill="none" stroke="#000000" stroke-width="1.2818" stroke-miterlimit="10" cx="133.4" cy="102" r="2.8"/>
	</g>
	<g>
	</g>
	<g>
	</g>
	<g>
	</g>
	<g>
	</g>
	<g>
	</g>
	<g>
	</g>
	<g>
	</g>
	<g>
	</g>
	<g>
	</g>
	<g>
	</g>
	<g>
	</g>
	<g>
	</g>
	<g>
	</g>
	<g>
	</g>
	<g>
	</g>
</g>
</svg>
