<?xml version="1.0" encoding="utf-8"?>
<!-- Generator: Adobe Illustrator 16.0.4, SVG Export Plug-In . SVG Version: 6.00 Build 0)  -->
<!DOCTYPE svg PUBLIC "-//W3C//DTD SVG 1.1//EN" "http://www.w3.org/Graphics/SVG/1.1/DTD/svg11.dtd">
<svg version="1.1" id="Capa_1" xmlns="http://www.w3.org/2000/svg" xmlns:xlink="http://www.w3.org/1999/xlink" x="0px" y="0px"
	 width="512px" height="512px" viewBox="0 0 512 512" enable-background="new 0 0 512 512" xml:space="preserve">
<path d="M30.269,0l41.072,460.815L255.719,512l184.862-51.262L481.731,0H30.269z M405.381,431.412L256.768,472.6v0.233l-0.388-0.117
	l-0.391,0.117V472.6l-148.611-41.188L72.257,37.669h368.248L405.381,431.412z M325.377,265.102l-6.535,73.276l-62.968,16.996
	l-0.137,0.039l-62.931-16.958l-4.025-45.117h-56.745l7.915,88.756l115.786,32.127h0.06h0.077l0.115-0.039l115.671-32.088
	l15.52-173.506H181.197l-5.151-57.874h216.071h0.195l5.057-56.513H114.26l15.249,170.9H325.377z"/>
</svg>
