<?xml version="1.0" encoding="utf-8"?>
<!-- Generator: Adobe Illustrator 16.0.4, SVG Export Plug-In . SVG Version: 6.00 Build 0)  -->
<!DOCTYPE svg PUBLIC "-//W3C//DTD SVG 1.1//EN" "http://www.w3.org/Graphics/SVG/1.1/DTD/svg11.dtd">
<svg version="1.1" id="Capa_1" xmlns="http://www.w3.org/2000/svg" xmlns:xlink="http://www.w3.org/1999/xlink" x="0px" y="0px"
	 width="22.07px" height="23.305px" viewBox="0 0 22.07 23.305" enable-background="new 0 0 22.07 23.305" xml:space="preserve">
<circle cx="3.337" cy="2.463" r="2.463"/>
<circle cx="18.734" cy="2.463" r="2.463"/>
<circle cx="18.733" cy="15.605" r="2.462"/>
<circle cx="3.337" cy="15.605" r="2.463"/>
<path d="M22.069,8.381c0.001-1.771-1.492-3.205-3.335-3.205c-1.845,0-3.338,1.436-3.338,3.205v1.163l-1.934,2.068H8.665L6.674,9.49
	V8.381c0-1.771-1.493-3.205-3.337-3.205C1.492,5.176,0,6.61,0,8.381v1.782h5.975l1.642,1.749v3.865l-1.938,3.465
	c-0.603-0.571-1.429-0.925-2.342-0.925C1.492,18.316,0,19.752,0,21.523v1.78h6.674v-1.78c0-0.516-0.138-0.995-0.362-1.427
	l2.312-4.132h4.883l2.282,4.08c-0.241,0.444-0.392,0.942-0.392,1.479v1.78h6.673v-1.78c0.001-1.771-1.492-3.207-3.335-3.207
	c-0.895,0-1.702,0.342-2.301,0.892l-2.129-3.805v-3.271l1.842-1.969h5.923V8.381z"/>
</svg>
