<?xml version="1.0" encoding="utf-8"?>
<!-- Generator: Adobe Illustrator 17.1.0, SVG Export Plug-In . SVG Version: 6.00 Build 0)  -->
<!DOCTYPE svg PUBLIC "-//W3C//DTD SVG 1.1//EN" "http://www.w3.org/Graphics/SVG/1.1/DTD/svg11.dtd">
<svg version="1.1" xmlns="http://www.w3.org/2000/svg" xmlns:xlink="http://www.w3.org/1999/xlink" x="0px" y="0px"
	 viewBox="0 0 370 439.7" enable-background="new 0 0 370 439.7" xml:space="preserve">
<g id="bg" display="none">
	<rect x="-0.3" y="-0.3" display="inline" width="370" height="440"/>
</g>
<g id="Layer_1">
	<g>
		<rect x="-104" y="394.7" fill="none" width="575" height="71"/>
		<path fill="#FFFFFF" d="M0.1,439.2v-44.5h23.4v8.5H10.9v8.8h11.3v8.5H10.9v18.7H0.1z"/>
		<path fill="#FFFFFF" d="M53.5,439.2c-0.2-2.2-0.7-4.4-1.5-6.5c-0.8-2.1-1.8-4.1-3-5.8c-1.2-1.8-2.6-3.3-4.2-4.6
			c-1.6-1.3-3.3-2.2-5-2.7v19.6H29v-44.5h30.5c-0.1,2.3-0.4,4.4-1.1,6.4c-0.6,2-1.4,3.8-2.3,5.4c-0.9,1.6-2,3-3.1,4.2
			c-1.2,1.2-2.3,2.1-3.5,2.7c2,1,4,2.4,5.9,4.2c1.9,1.8,3.5,3.9,4.9,6.2c1.4,2.3,2.6,4.8,3.5,7.4c0.9,2.6,1.3,5.3,1.3,7.8H53.5z
			 M39.7,403.2v6.9c0.6-0.2,1.3-0.5,2-1c0.7-0.4,1.3-1,1.9-1.6c0.6-0.6,1-1.3,1.4-2c0.4-0.7,0.6-1.5,0.7-2.4H39.7z"/>
		<path fill="#FFFFFF" d="M93.4,439.2c-0.1-2.6-0.4-5-0.9-7.3H79.7v7.3H69.2v-45c3.3,0.3,6.4,1.1,9.4,2.6c3,1.4,5.8,3.3,8.3,5.5
			c2.6,2.3,4.9,4.8,6.9,7.7c2.1,2.9,3.8,6,5.3,9.2c1.5,3.2,2.6,6.6,3.4,10c0.8,3.4,1.2,6.7,1.2,10H93.4z M90.3,424.6
			c-1.3-3.2-2.8-6.2-4.6-8.9c-1.8-2.7-3.8-4.9-6-6.6v15.5H90.3z"/>
		<path fill="#FFFFFF" d="M151,439.2c-0.1-3-0.5-6-1-8.9c-0.6-2.9-1.3-5.6-2.3-8.1c-0.9-2.5-2-4.8-3.3-6.8c-1.3-2.1-2.7-3.8-4.3-5.3
			v29h-10.5c-0.1-3-0.5-6-1-8.9c-0.6-2.9-1.3-5.6-2.3-8.1c-1-2.5-2.1-4.8-3.4-6.8c-1.3-2.1-2.7-3.8-4.3-5.3v29H108v-45
			c2.1,0.2,4.1,0.6,6.1,1.3c2,0.7,3.8,1.7,5.6,2.8c1.8,1.2,3.5,2.5,5.1,4.1c1.6,1.5,3.1,3.2,4.5,5v-13.2c3.1,0.3,6.1,1.1,8.9,2.6
			c2.8,1.4,5.4,3.3,7.9,5.5c2.4,2.3,4.6,4.8,6.6,7.7c2,2.9,3.6,6,5,9.2s2.4,6.6,3.2,10c0.7,3.4,1.1,6.7,1.1,10H151z"/>
		<path fill="#FFFFFF" d="M188.8,439.7c-4-0.3-7.6-1.3-11-3.1c-3.4-1.8-6.3-4.1-8.7-6.8c-2.5-2.7-4.4-5.8-5.8-9.2
			c-1.4-3.4-2.1-6.7-2.1-10.1h6.2c-0.8-0.9-1.6-1.9-2.4-3.1c-0.8-1.2-1.5-2.4-2.1-3.8c-0.6-1.3-1.1-2.8-1.5-4.3
			c-0.4-1.5-0.6-3.1-0.6-4.7h28.9v8.5h-16.4c0.1,0.8,0.4,1.5,0.8,2.3c0.5,0.8,1,1.5,1.7,2.2c0.7,0.7,1.4,1.3,2.3,1.8
			c0.8,0.5,1.7,0.8,2.5,1h8.2v7.8h-14.8c0.4,1.4,1,2.8,1.9,4c0.9,1.2,1.9,2.3,3.2,3.3s2.7,1.8,4.3,2.4c1.6,0.6,3.4,1,5.4,1.2V439.7z
			"/>
		<path fill="#FFFFFF" d="M247.4,439.7c-4.2-0.4-8.1-1.7-11.7-4.1c-3.6-2.4-6.8-5.4-9.7-9.1v13.3c-3.1-0.3-6-1.1-8.9-2.6
			c-2.8-1.4-5.4-3.3-7.9-5.5c-2.4-2.3-4.6-4.8-6.6-7.7c-2-2.9-3.6-6-5-9.2c-1.4-3.3-2.4-6.6-3.2-10c-0.7-3.4-1.1-6.7-1.1-10h10.9
			c0.1,3.1,0.5,6,1,8.9c0.6,2.9,1.3,5.6,2.3,8.1c1,2.5,2.1,4.8,3.4,6.9c1.3,2.1,2.7,3.8,4.3,5.3v-29.1h10.5c0.1,3.1,0.4,6,1,8.9
			c0.6,2.9,1.3,5.6,2.3,8.1c1,2.5,2.1,4.8,3.4,6.9c1.3,2.1,2.7,3.8,4.3,5.3v-29.1h10.7V439.7z"/>
		<path fill="#FFFFFF" d="M253.7,439.2v-44.5h32.8v44.5H253.7z M275.9,404.2h-11.6v25h11.6V404.2z"/>
		<path fill="#FFFFFF" d="M317.3,439.2c-0.2-2.2-0.7-4.4-1.5-6.5c-0.8-2.1-1.8-4.1-3-5.8c-1.2-1.8-2.6-3.3-4.2-4.6
			c-1.6-1.3-3.3-2.2-5-2.7v19.6h-10.7v-44.5h30.5c-0.1,2.3-0.4,4.4-1,6.4c-0.6,2-1.4,3.8-2.3,5.4s-2,3-3.1,4.2
			c-1.2,1.2-2.3,2.1-3.5,2.7c2,1,4,2.4,5.9,4.2c1.9,1.8,3.5,3.9,5,6.2c1.4,2.3,2.6,4.8,3.4,7.4c0.9,2.6,1.3,5.3,1.3,7.8H317.3z
			 M303.6,403.2v6.9c0.6-0.2,1.3-0.5,2-1c0.7-0.4,1.3-1,1.9-1.6c0.6-0.6,1-1.3,1.4-2c0.4-0.7,0.6-1.5,0.7-2.4H303.6z"/>
		<path fill="#FFFFFF" d="M357.8,439.2c-0.1-2.3-0.6-4.7-1.3-7c-0.8-2.4-1.8-4.6-3-6.6c-1.2-2-2.7-3.8-4.3-5.4
			c-1.7-1.6-3.5-2.7-5.4-3.5v22.5h-10.7v-44.5h10.7v12.1c0.7,0,1.5-0.3,2.3-1c0.9-0.7,1.7-1.6,2.5-2.7c0.8-1.1,1.6-2.4,2.3-3.9
			c0.7-1.4,1.3-2.9,1.8-4.5h10.7c-1,4.2-2.3,7.6-4,10.3c-1.7,2.7-3.7,4.7-6.1,6.1c2.6,1.4,4.9,3.3,6.9,5.5c2,2.2,3.6,4.6,4.9,7.2
			c1.3,2.6,2.2,5.2,2.9,7.9c0.6,2.7,1,5.2,1,7.5H357.8z"/>
	</g>
	<g>
		<rect x="-39.5" y="312.9" fill="none" width="442" height="82.4"/>
		<path fill="#FFFFFF" d="M95.8,372.3v-59.4h43.7v59.4H95.8z M125.4,325.7H110V359h15.4V325.7z"/>
		<path fill="#FFFFFF" d="M148,312.9h46.1c0,4.3-0.5,8.7-1.6,13.3c-1.1,4.5-2.6,9-4.5,13.3c-1.9,4.3-4.3,8.5-7,12.3
			c-2.7,3.9-5.8,7.3-9.2,10.3c-3.4,3-7.1,5.5-11.1,7.4s-8.2,3.1-12.6,3.4V312.9z M162.1,326.5v24c1.8-1.1,3.5-2.5,5.2-4.2
			c1.7-1.7,3.1-3.5,4.4-5.6c1.3-2.1,2.4-4.3,3.4-6.7c0.9-2.4,1.6-4.9,2-7.5H162.1z"/>
		<path fill="#FFFFFF" d="M199.8,372.3v-59.4h14.3v59.4H199.8z"/>
		<path fill="#FFFFFF" d="M252.4,372.3c0-4.4-0.3-8.4-1-12c-0.7-3.7-1.7-7.1-3-10.3c-1.4-3.2-3-6.2-5-9c-2-2.8-4.3-5.6-7-8.3v39.7
			h-13.8v-59.4h14.2c4.1,2.9,7.7,6.2,10.9,10c3.1,3.8,5.5,7.4,7.2,11v-21h12.4v59.4H252.4z"/>
	</g>
	<g display="none">
		<rect x="90.7" y="-6.3" fill="#FFFFFF" width="186" height="295"/>
		<path display="inline" d="M243.6,117.2c1.2,6,2.3-12.3,2.3-12.3c1.6,3.4,8.6,6.1,8.6,6.1c1.2-11.1-6.1-14.6-6.1-14.6
			c8.6,3.4,13.9,3.4,13.9,3.4c-0.4-8.4-11-10.3-11-10.3c14.3-2.3,16.4-8.8,16.4-8.8c-9.4-2.3-19.2,4.1-19.2,4.1
			c17.2-11.1,19.2-22.5,19.2-22.5l-11.5,6.9c10.2-17.2,11.5-31.8,11.5-31.8c-3.7,2.3-12.4,10.1-12.4,10.1c8.6-14.9,10-30,10-30
			l-16.3,15.1c10.1-14,11.8-25.3,11.8-25.3c-2.5,0-16,14.4-16,14.4C251.3,4.1,248,1,248,1l-11.7,21.7c3.3-9.2-1.4-15.4-1.4-15.4
			L221,48.6c20.9,8.4,3.5,25.6,3.5,25.6S237.6,88.1,243.6,117.2z"/>
		<path display="inline" fill="none" stroke="#000000" stroke-width="2.5636" stroke-miterlimit="10" d="M185.1,47.6
			c2.1-0.2,9.1,0.4,16.6,6.7l-7,6.9c0,0-5.6,36.7-0.4,90l-12.5,8.3"/>
		<g display="inline">
			<g>
				<path d="M200.6,56.5c19.1,7.4,32.5,28.5,38.2,47.4c0.6,2,3.7,1.1,3.1-0.9c-6.1-20.1-20-41.7-40.5-49.6
					C199.6,52.7,198.7,55.8,200.6,56.5L200.6,56.5z"/>
			</g>
		</g>
		<path display="inline" fill="none" stroke="#000000" stroke-width="2.2432" stroke-miterlimit="10" d="M192.1,91.1
			c0,0,33.8,1.1,48.5,14.2l3.7,14.6c0,0-7.4-13.6-52.2-17.7"/>
		<g display="inline">
			<path d="M244.3,119.8l4.6,8.5l4.5,8.6l4.5,8.6c0.8,1.4,1.5,2.9,2.1,4.4c0.6,1.5,1.3,3,2,4.4l-0.1-0.2c0.6,1,1.1,1.9,1.5,2.9
				c0.5,1,0.9,2,1.3,3c0.2,0.5,0.4,1,0.5,1.5c0.2,0.5,0.3,1,0.5,1.6c0.3,1,0.5,2.1,0.8,3.2c0.2,1.1,0.3,2.2,0.4,3.3
				c0,0.6,0,1.1,0,1.7c0,0.6,0,1.1-0.1,1.7c-0.1,0.6-0.2,1.1-0.3,1.7l-0.5,1.7c-0.2,0.6-0.5,1.1-0.7,1.6l-0.4,0.7l-0.4,0.7l-0.7,1.4
				l-0.5,1.3l-0.3,0.6l-0.2,0.7c-0.1,0.4-0.3,0.9-0.4,1.3l-0.3,1.3l-0.1,1.3c0,0.9,0,1.8,0.1,2.7c0.1,0.9,0.4,1.7,0.7,2.6
				c0.1,0.4,0.4,0.8,0.5,1.2c0.2,0.4,0.5,0.8,0.7,1.2c0.5,0.7,1.1,1.5,1.7,2.1c0.6,0.7,1.4,1.2,2.1,1.8l6.8,5.2l-8.3-1.7l-11.1-2.3
				l2-3c0.7,1.1,1.3,2.1,1.9,3.2c0.6,1.1,1.1,2.2,1.6,3.3c1,2.3,1.7,4.6,2.2,7.1c0.2,1.2,0.4,2.5,0.4,3.8c0,1.3-0.1,2.6-0.3,3.9
				c-0.3,1.3-0.7,2.6-1.2,3.8c-0.6,1.2-1.3,2.4-2.2,3.3c-0.4,0.5-0.9,1-1.4,1.4c-0.5,0.5-1,0.8-1.6,1.3c-0.9,0.6-1.8,1.3-2.7,2
				c-1.7,1.4-3.4,3-4.9,4.6c-1.5,1.6-2.8,3.4-3.7,5.3c-0.9,1.9-1.4,3.8-1.1,5.6l0.7,3.7l-3.4-1.7c-0.3-0.2-0.4-0.2-0.6-0.4
				c-0.2-0.1-0.3-0.2-0.5-0.3c-0.3-0.2-0.5-0.5-0.8-0.7c-0.2-0.3-0.4-0.5-0.6-0.8c-0.2-0.3-0.4-0.6-0.5-0.9
				c-0.2-0.3-0.3-0.6-0.4-0.9l-0.4-0.9c-0.1-0.3-0.2-0.6-0.3-0.9l-0.2-0.9l3.8-0.1c-0.1,0.7-0.3,1.3-0.4,1.8
				c-0.1,0.6-0.4,1.1-0.6,1.7c-0.4,1.1-0.9,2.1-1.4,3.1c-0.5,1-1.1,2-1.7,3c-0.6,1-1.3,1.8-2,2.8c-0.7,0.9-1.5,1.7-2.2,2.6
				c-0.8,0.8-1.6,1.6-2.4,2.4c-0.8,0.8-1.7,1.5-2.5,2.2c-0.4,0.4-0.8,0.7-1.3,1.1l-1.3,1c-0.9,0.6-1.8,1.3-2.7,1.9l-2.8,1.7
				c-0.9,0.6-1.9,1.1-2.9,1.6l-2.9,1.5c-1,0.5-2,0.9-3,1.3c-1,0.4-2,0.9-3,1.3l-6.2,2.2L196,276l3.4-5l0.2-0.3
				c0.1-0.1,0.1-0.2,0.2-0.3l0.4-0.7c0.3-0.5,0.5-1,0.7-1.4c0.1-0.2,0.3-0.5,0.4-0.7l0.3-0.7l0.7-1.5l2.7,2c-4,2.5-8,5.1-11.9,7.7
				c-2,1.3-3.9,2.7-5.7,4.2c-0.9,0.7-1.8,1.5-2.7,2.3c-0.4,0.4-0.8,0.8-1.2,1.3c-0.4,0.5-0.8,0.9-0.9,1.5c0.1-0.6,0.4-1.1,0.7-1.6
				c0.3-0.5,0.7-1,1.1-1.5c0.8-0.9,1.6-1.8,2.4-2.7c1.7-1.7,3.4-3.3,5.2-4.9c1.8-1.6,3.6-3.2,5.5-4.7c1.9-1.5,3.7-3,5.6-4.5l4.4-3.4
				l-1.7,5.4l-0.6,1.8l-0.3,0.9c-0.1,0.3-0.3,0.6-0.4,0.9c-0.1,0.3-0.3,0.6-0.4,0.9c-0.2,0.3-0.3,0.6-0.5,0.8l-0.5,0.8
				c-0.1,0.1-0.2,0.3-0.3,0.4l-0.3,0.4l-2.1-3l6-2.1c1-0.4,1.9-0.8,2.9-1.2c1-0.4,1.9-0.8,2.9-1.3l2.8-1.4c0.9-0.5,1.9-0.9,2.7-1.5
				l2.7-1.6c0.9-0.5,1.7-1.2,2.5-1.8l1.3-0.9c0.4-0.3,0.8-0.7,1.2-1c0.8-0.7,1.6-1.3,2.3-2c0.7-0.7,1.5-1.4,2.2-2.2l2-2.3
				c0.6-0.8,1.2-1.6,1.8-2.5c0.5-0.9,1.1-1.7,1.5-2.6c0.5-0.9,0.9-1.8,1.2-2.7c0.1-0.5,0.4-0.9,0.5-1.4c0.1-0.4,0.3-1,0.3-1.3
				l1.5-8.8l2.3,8.6l0.2,0.6c0.1,0.2,0.1,0.4,0.2,0.6l0.2,0.6c0.1,0.2,0.2,0.4,0.3,0.6c0.1,0.2,0.2,0.4,0.3,0.5
				c0.1,0.1,0.2,0.3,0.4,0.5c0.1,0.1,0.3,0.3,0.4,0.4c0.1,0,0.1,0.1,0.2,0.1c0,0,0.2,0.1,0.1,0.1l-2.7,2.1c-0.2-1.4-0.2-2.8,0.1-4.2
				c0.3-1.3,0.7-2.6,1.3-3.8c1.1-2.3,2.6-4.4,4.3-6.2c1.6-1.8,3.4-3.5,5.3-5c0.9-0.8,1.9-1.5,2.9-2.2c0.3-0.3,0.8-0.6,1.2-0.9
				c0.4-0.4,0.8-0.7,1.1-1.1c0.7-0.7,1.2-1.6,1.6-2.5c0.4-0.9,0.7-1.9,0.9-2.9c0.2-1,0.3-2,0.2-3.1c0-1.1-0.2-2.1-0.3-3.2
				c-0.4-2.1-1.1-4.2-2-6.3c-0.4-1-0.9-2-1.5-3c-0.5-1-1.1-2-1.7-2.8l-2.6-3.9l4.6,1l11.1,2.3l-1.5,3.4c-0.9-0.7-1.8-1.4-2.6-2.2
				c-0.8-0.8-1.5-1.7-2.2-2.7c-0.3-0.5-0.6-1-0.9-1.5c-0.2-0.5-0.5-1-0.7-1.6c-0.4-1.1-0.7-2.2-0.9-3.4c-0.2-1.2-0.2-2.3-0.1-3.5
				l0.2-1.7l0.4-1.7c0.1-0.6,0.3-1.1,0.5-1.6l0.3-0.8l0.3-0.8l0.7-1.6l0.7-1.4l0.4-0.7l0.1-0.2l0-0.1l0.1-0.1l0.1-0.3
				c0.2-0.4,0.4-0.8,0.5-1.2l0.4-1.3c0.1-0.4,0.1-0.9,0.2-1.3c0.1-0.4,0.1-0.9,0.1-1.4c0-0.5,0-0.9,0-1.4c0-0.9-0.2-1.9-0.3-2.8
				c-0.2-0.9-0.4-1.9-0.7-2.8c-0.1-0.5-0.3-0.9-0.4-1.4c-0.1-0.5-0.3-0.9-0.5-1.4c-0.3-0.9-0.7-1.8-1.2-2.7
				c-0.4-0.9-0.9-1.8-1.3-2.5l-0.1-0.1l0-0.1c-0.7-1.5-1.3-2.9-2-4.4c-0.7-1.4-1.3-2.9-1.9-4.5l-3.5-9l-3.4-9.1L244.3,119.8z"/>
		</g>
		<path display="inline" fill="none" stroke="#000000" stroke-width="1.9227" stroke-miterlimit="10" d="M188.6,155
			c0,0,7.6-7.7,13.2,7c0,0-4.8,1.7-13.6,4.2l-5.5,1.4"/>
		<path display="inline" fill="none" stroke="#000000" stroke-width="1.9227" stroke-miterlimit="10" d="M216.4,171.7
			c0,0-18.3-28.8-27.2-16.7"/>
		<path display="inline" fill="none" stroke="#000000" stroke-width="2.5636" stroke-miterlimit="10" d="M230.3,110.3
			c0,0,11.5,32.1,2.5,38.7c-9,6.5-17,22.8-17,22.8"/>
		<path display="inline" fill="none" stroke="#000000" stroke-width="1.9227" stroke-miterlimit="10" d="M230.4,151.5
			c0,0-8.7,20.1-9.9,24.7"/>
		<path display="inline" fill="none" stroke="#000000" stroke-width="2.5636" stroke-miterlimit="10" d="M201.7,162
			c0,0,37.4,18,16.5,40c0,0-20.8-24-36.3-25.9"/>
		<path display="inline" fill="none" stroke="#000000" stroke-width="2.5636" stroke-miterlimit="10" d="M213.5,196.9
			c0,0-5.2,5.7,1.7,16.4c0,0,17.9-3.8,6.9-16.4"/>
		<path display="inline" fill="none" stroke="#000000" stroke-width="2.5636" stroke-miterlimit="10" d="M215.2,213.3
			c0,0-7.6,4.2,3,12.3c0,0,8-2.6,2.8-14.5"/>
		<path display="inline" fill="none" stroke="#000000" stroke-width="2.5636" stroke-miterlimit="10" d="M182.5,180.4"/>
		<path display="inline" fill="none" stroke="#000000" stroke-width="1.9227" stroke-miterlimit="10" d="M201.7,186.1
			c0,0-7,20-9.6,14.6c-2.7-5.4-2.8-10.3-2.8-10.3"/>
		<path display="inline" fill="none" stroke="#000000" stroke-width="2.5636" stroke-miterlimit="10" d="M200.1,190.4
			c0,0-12.1,0-17.6,0"/>
		<path display="inline" fill="none" stroke="#000000" stroke-width="1.9227" stroke-miterlimit="10" d="M192.7,113.6
			c0,0-1.3,6.6,2.8,11.2c0,0,16-3.8,22.1-5c6.2-1.1,12.1,6.5,12.1,6.5l-5.3-10.3l5.3,1.5l-8.8-7.2c0,0-12.3,2.6-17.4,4.2
			C198.5,116,195.5,115.6,192.7,113.6z"/>
		<path display="inline" fill="none" stroke="#000000" stroke-width="1.9227" stroke-miterlimit="10" d="M200.7,123.6l-4.3,2
			c0,0,10.3,9.5,24.6,3.3c0,0-2.1-6.6-8.3-8"/>
		<path display="inline" fill="none" stroke="#000000" stroke-width="1.9227" stroke-miterlimit="10" d="M203.5,129.2
			c0,0,0-5.5,5.8-5.3c5.9,0.2,5.3,6.5,5.3,6.5"/>
		<path display="inline" d="M188.1,166.2c0,0,4.4-0.7,5-1.9c0.6-1.2-7.6-7.5-6.8-3.7C187.2,164.5,188.1,166.2,188.1,166.2z"/>
		<path display="inline" d="M206.7,129.9c0,0-0.1-3,2-3c3.3,0,2.2,3.4,2.2,3.4"/>
		<path display="inline" d="M141.6,74.2c0,0-17-17.2,3.4-25.6L131.4,7.4c0,0-4.6,5.9-1.4,15.1L118.6,1c0,0-3.2,3.1,3.2,20.7
			c0,0-13.2-14.4-15.6-14.4c0,0,1.6,11.3,11.5,25.3l-15.9-15.1c0,0,1.4,15.1,9.7,30c0,0-8.5-7.8-12.1-10.1c0,0,1.2,14.6,11.2,31.8
			l-11.2-6.9c0,0,2,11.4,18.7,22.5c0,0-9.5-6.4-18.7-4.1c0,0,2,6.5,16,8.8c0,0-10.4,1.9-10.8,10.3c0,0,5.2,0,13.6-3.4
			c0,0-7.2,3.4-6,14.6c0,0,6.8-2.7,8.4-6.1c0,0-0.5,6.9,2.3,12.3C122.9,117.2,130,83.3,141.6,74.2z"/>
		<path display="inline" fill="none" stroke="#000000" stroke-width="1.9227" stroke-miterlimit="10" d="M182.6,51.6H178
			c0,0,0.2-4.9,4.2-8.7c0,0,3.9,3.6,4.2,8.7H182.6z"/>
		<path display="inline" fill="none" stroke="#000000" stroke-width="2.5636" stroke-miterlimit="10" d="M179.6,47.5
			c-2-0.2-8.5,0.4-15.8,6.8l6.8,6.9c0,0,5.4,36.7,0.4,90l12.2,8.3"/>
		<g display="inline">
			<g>
				<path d="M164,53.4c-20.3,7.7-33.9,29.3-39.8,49.2c-0.6,2,2.5,2.8,3.1,0.9c5.5-18.7,18.6-39.7,37.5-46.9
					C166.8,55.8,166,52.7,164,53.4L164,53.4z"/>
			</g>
		</g>
		<path display="inline" fill="none" stroke="#000000" stroke-width="2.2432" stroke-miterlimit="10" d="M173.2,91.1
			c0,0-33,0.5-47.4,13.6l-3.6,15.2c0,0,7.2-13.6,51-17.7"/>
		<g display="inline">
			<path d="M122.2,119.8l-3.3,9.1l-3.3,9.1l-3.4,9c-0.5,1.5-1.1,3-1.8,4.5c-0.7,1.5-1.3,2.9-2,4.4l0,0.1l-0.1,0.1
				c-0.4,0.8-0.9,1.7-1.3,2.6c-0.4,0.9-0.8,1.8-1.1,2.7c-0.2,0.5-0.3,0.9-0.5,1.4c-0.2,0.5-0.3,0.9-0.4,1.4
				c-0.3,0.9-0.5,1.9-0.7,2.8c-0.1,0.9-0.3,1.9-0.3,2.8l0,0.7l0,0.7c0,0.5,0,0.9,0.1,1.4l0.2,1.3l0.4,1.3c0.1,0.4,0.4,0.8,0.5,1.2
				l0.1,0.3l0.1,0.1l0,0.1l0,0l0.1,0.1l0.4,0.7l0.7,1.4l0.7,1.6l0.3,0.8l0.3,0.8c0.2,0.5,0.4,1.1,0.5,1.6l0.3,1.7
				c0.1,0.6,0.1,1.1,0.2,1.7c0.1,1.1,0,2.3-0.1,3.5c-0.2,1.2-0.5,2.3-0.9,3.4c-0.2,0.6-0.5,1.1-0.7,1.6c-0.3,0.5-0.6,1-0.9,1.5
				c-0.6,1-1.3,1.9-2.1,2.7c-0.8,0.8-1.7,1.6-2.6,2.2l-1.5-3.4l10.8-2.3l4.6-1l-2.6,3.9c-0.6,0.8-1.1,1.9-1.6,2.8c-0.5,1-1,2-1.4,3
				c-0.9,2-1.5,4.1-1.9,6.3c-0.4,2.1-0.5,4.2-0.1,6.2c0.2,1,0.5,2,0.9,2.9c0.4,0.9,0.9,1.8,1.6,2.5c0.3,0.4,0.7,0.7,1,1.1
				c0.2,0.2,0.4,0.3,0.6,0.5l0.5,0.4c1,0.7,2,1.5,2.9,2.2c1.8,1.6,3.6,3.2,5.2,5.1c1.6,1.8,3.1,3.9,4.2,6.2c0.5,1.2,1,2.4,1.3,3.7
				c0.3,1.3,0.3,2.7,0.1,4.1l-2.7-2.1c-0.1,0,0,0,0.1-0.1c0.1,0,0.1-0.1,0.2-0.1c0.1-0.1,0.2-0.3,0.4-0.4c0.1-0.1,0.2-0.3,0.4-0.5
				c0.1-0.1,0.2-0.3,0.3-0.5c0.1-0.2,0.2-0.4,0.3-0.6l0.2-0.6c0.1-0.2,0.1-0.4,0.2-0.6l0.2-0.6l2.3-8.8l1.5,8.9
				c0.1,0.3,0.2,0.8,0.3,1.3c0.1,0.5,0.3,0.9,0.4,1.4c0.4,0.9,0.7,1.8,1.2,2.7c0.4,0.9,1,1.7,1.5,2.6c0.5,0.9,1.1,1.7,1.7,2.5
				c0.6,0.8,1.3,1.6,1.9,2.3c0.7,0.8,1.4,1.5,2.1,2.2c0.7,0.8,1.5,1.4,2.3,2.1l1.2,1l1.2,0.9c0.8,0.6,1.6,1.2,2.5,1.8l2.6,1.6
				c0.9,0.6,1.8,1.1,2.7,1.5l2.7,1.4c0.9,0.5,1.9,0.8,2.8,1.3l2.8,1.2l5.9,2.1l-2.1,3l-0.3-0.4c-0.1-0.2-0.2-0.3-0.3-0.4l-0.5-0.8
				c-0.3-0.6-0.6-1.1-0.8-1.7c-0.1-0.3-0.3-0.6-0.4-0.9l-0.3-0.9l-0.6-1.8l-1.6-5.2l4.3,3.3c1.9,1.4,3.7,2.9,5.5,4.4
				c1.8,1.5,3.6,3,5.3,4.6c1.7,1.6,3.5,3.1,5.1,4.8c0.8,0.8,1.6,1.7,2.3,2.6c0.4,0.5,0.7,0.9,1,1.4c0.3,0.5,0.6,1,0.7,1.6
				c-0.2-0.6-0.5-1-0.9-1.5c-0.4-0.4-0.8-0.8-1.2-1.2c-0.8-0.8-1.7-1.5-2.6-2.2c-1.8-1.4-3.7-2.8-5.6-4.1c-3.8-2.6-7.7-5.1-11.6-7.5
				l2.7-1.9l0.7,1.5l0.3,0.7c0.1,0.2,0.3,0.5,0.4,0.7l0.4,0.7c0.1,0.2,0.2,0.5,0.4,0.7l0.4,0.7c0.1,0.1,0.1,0.2,0.2,0.3l0.2,0.3
				l3.3,5l-5.4-2l-6.1-2.2l-3-1.3c-1-0.4-2-0.9-3-1.3l-2.9-1.5c-1-0.5-1.9-1-2.8-1.6l-2.8-1.7c-0.9-0.6-1.8-1.3-2.7-1.9l-1.3-1
				l-1.2-1.1c-0.8-0.7-1.7-1.4-2.4-2.2c-0.8-0.8-1.6-1.6-2.3-2.4c-0.7-0.9-1.4-1.7-2.1-2.6c-0.6-0.9-1.3-1.8-1.9-2.8
				c-0.6-1-1.2-1.9-1.6-2.9c-0.5-1-1-2.1-1.4-3.1c-0.2-0.6-0.4-1.1-0.5-1.6c-0.2-0.6-0.3-1.1-0.4-1.8l3.8,0.1l-0.2,0.9
				c-0.1,0.3-0.1,0.6-0.3,0.9l-0.4,0.9c-0.1,0.3-0.3,0.6-0.4,0.9c-0.2,0.3-0.3,0.6-0.5,0.9c-0.2,0.3-0.4,0.6-0.6,0.8
				c-0.3,0.3-0.5,0.5-0.8,0.8c-0.1,0.1-0.3,0.2-0.4,0.4c-0.2,0.1-0.3,0.2-0.6,0.4l-3.4,1.7l0.6-3.8c0.3-1.8-0.1-3.8-1-5.6
				c-0.9-1.9-2.2-3.7-3.6-5.3c-1.4-1.7-3.1-3.2-4.8-4.6c-0.8-0.7-1.8-1.4-2.6-2l-0.1-0.1l0,0l-0.1-0.1l-0.2-0.2l-0.4-0.3
				c-0.2-0.2-0.5-0.4-0.7-0.6c-0.5-0.5-0.9-0.9-1.4-1.4c-0.9-1-1.6-2.2-2.1-3.4c-0.6-1.2-0.9-2.5-1.2-3.8c-0.5-2.6-0.3-5.2,0.1-7.6
				c0.5-2.5,1.2-4.8,2.2-7c0.5-1.1,1-2.2,1.6-3.3c0.6-1.1,1.1-2.1,1.9-3.2l2,3l-10.8,2.3l-8.1,1.7l6.6-5.2c0.7-0.6,1.4-1.1,2-1.8
				c0.6-0.6,1.2-1.4,1.7-2.1c0.2-0.4,0.5-0.8,0.7-1.2c0.2-0.4,0.4-0.8,0.5-1.2c0.3-0.8,0.5-1.7,0.7-2.6c0.1-0.9,0.1-1.8,0.1-2.7
				l-0.1-1.3l-0.3-1.3c-0.1-0.4-0.3-0.9-0.4-1.3l-0.2-0.7l-0.3-0.6l-0.5-1.3l-0.7-1.4l-0.4-0.7l-0.3-0.7c-0.2-0.5-0.6-1.1-0.7-1.6
				l-0.5-1.7c-0.1-0.6-0.2-1.1-0.3-1.7c-0.1-0.6-0.1-1.1-0.1-1.7l0-0.8l0-0.8c0-1.1,0.2-2.2,0.3-3.3c0.2-1.1,0.4-2.1,0.7-3.2
				c0.1-0.5,0.3-1,0.5-1.5c0.2-0.5,0.3-1,0.5-1.5c0.4-1,0.8-2,1.2-3c0.5-1,0.9-1.9,1.5-2.9l-0.1,0.2c0.7-1.5,1.3-2.9,1.9-4.4
				c0.6-1.5,1.3-2.9,2.1-4.4l4.4-8.6l4.5-8.6L122.2,119.8z"/>
		</g>
		<path display="inline" fill="none" stroke="#000000" stroke-width="1.9227" stroke-miterlimit="10" d="M176.2,154.7
			c0,0-7-7.4-12.4,7.3c0,0,4.7,1.7,13.3,4.2l6.1,1.4"/>
		<path display="inline" fill="none" stroke="#000000" stroke-width="1.9227" stroke-miterlimit="10" d="M149.4,171.1
			c0,0,17.5-28.5,26.2-16.4"/>
		<path display="inline" fill="none" stroke="#000000" stroke-width="2.5636" stroke-miterlimit="10" d="M135.9,110.3
			c0,0-11.3,32.1-2.5,38.7c7.6,5.6,17.9,24.7,16.6,22.1"/>
		<path display="inline" fill="none" stroke="#000000" stroke-width="1.9227" stroke-miterlimit="10" d="M135.8,151.5
			c0,0,8.5,20.1,9.7,24.7"/>
		<path display="inline" fill="none" stroke="#000000" stroke-width="2.5636" stroke-miterlimit="10" d="M163.8,162
			c0,0-36.6,18-16.1,40c0,0,19.7-24,34.9-25.9"/>
		<path display="inline" fill="none" stroke="#000000" stroke-width="2.5636" stroke-miterlimit="10" d="M152.3,196.9
			c0,0,5.1,5.7-1.7,16.4c0,0-17.5-3.8-6.7-16.4"/>
		<path display="inline" fill="none" stroke="#000000" stroke-width="2.5636" stroke-miterlimit="10" d="M150.6,213.3
			c0,0,7.4,4.2-2.9,12.3c0,0-7.8-2.6-2.7-14.5"/>
		<g display="inline">
			<path d="M150.7,222.3c0.8,0.4,1.5,0.9,2.2,1.4c0.3,0.3,0.7,0.5,1,0.8c0.3,0.3,0.7,0.6,1,0.9c0.3,0.3,0.6,0.7,0.9,1.1
				c0.3,0.4,0.6,0.8,0.8,1.3c0.2,0.5,0.4,1,0.5,1.7c0.1,0.3,0,0.7,0,1.1l-0.1,0.8c-0.1,0.4-0.2,0.8-0.3,1.2l-0.4,1.3
				c-0.1,0.5-0.3,0.9-0.5,1.3c-0.2,0.4-0.3,0.8-0.5,1.2c-0.4,0.8-0.8,1.6-1.2,2.3c-0.2,0.4-0.4,0.8-0.7,1.1
				c-0.2,0.4-0.5,0.7-0.8,1.1l-1.8,2.5l-1.8-2.3l-0.7-0.9l-0.7-0.9c-0.5-0.6-0.9-1.3-1.2-1.9c-0.4-0.7-0.8-1.4-1.1-2.1
				c-0.2-0.4-0.3-0.7-0.5-1.1c-0.1-0.4-0.3-0.8-0.4-1.2c-0.1-0.4-0.2-0.9-0.2-1.4l0-0.2l0-0.3l0-0.3l0.1-0.5
				c0.1-0.7,0.2-1.5,0.3-2.2c0.1-0.7,0.2-1.4,0.4-2.2c0.2-0.7,0.4-1.5,0.6-2.2l0.3,0l0,2.2c0,0.7,0,1.4,0,2.2l0,2.2
				c0,0.4,0,0.7,0.1,1.1c0,0.3,0.2,0.7,0.3,1c0.5,1.3,1.3,2.6,2.1,3.7c0.8,1.2,1.7,2.3,2.6,3.4l-0.4,0c0.5-0.7,0.9-1.4,1.3-2.1
				c0.4-0.7,0.8-1.4,1.2-2.1c0.2-0.4,0.4-0.7,0.6-1.1c0.2-0.4,0.4-0.7,0.5-1.1l0.5-1.1l0.4-1.2c0.1-0.4,0.2-0.8,0.2-1.1
				c0-0.4-0.1-0.8-0.3-1.2c-0.1-0.4-0.3-0.7-0.5-1.1c-0.2-0.4-0.4-0.7-0.6-1c-0.9-1.4-2-2.6-3.1-3.8L150.7,222.3z"/>
		</g>
		
			<line display="inline" fill="none" stroke="#000000" stroke-width="1.9227" stroke-miterlimit="10" x1="195.5" y1="181.9" x2="169.2" y2="182"/>
		<path display="inline" fill="none" stroke="#000000" stroke-width="1.9227" stroke-miterlimit="10" d="M163.8,186.1
			c0,0,6.8,20,9.4,14.6c2.6-5.4,2.3-10.3,2.3-10.3"/>
		<path display="inline" fill="none" stroke="#000000" stroke-width="2.5636" stroke-miterlimit="10" d="M165.4,190.4
			c0,0,11.9,0,17.2,0"/>
		<path display="inline" fill="none" stroke="#000000" stroke-width="1.9227" stroke-miterlimit="10" d="M172.6,113.6
			c0,0,1.3,6.6-2.7,11.2c0,0-15.6-3.8-21.6-5c-6-1.1-11.8,6.5-11.8,6.5l5.2-10.3l-5.2,1.5l8.6-7.2c0,0,12.1,2.6,17,4.2
			C167,116,169.9,115.6,172.6,113.6z"/>
		<path display="inline" d="M171.1,124.7c-3.3,4.5-7.7,7.4-7.7,7.4s-10,6.9-20.4-5.6c0,0,2-8.8,10.1-5.7"/>
		<g display="inline">
			<path d="M141.7,135.2l1.6,1.2l0.8,0.5c0.3,0.2,0.5,0.4,0.8,0.5c0.6,0.3,1.1,0.7,1.7,0.9l0.9,0.4l0.9,0.3c0.3,0.1,0.6,0.2,0.9,0.3
				c0.3,0.1,0.6,0.2,0.9,0.2c0.3,0,0.6,0.1,0.9,0.1c0.3,0,0.6,0.1,0.9,0c0.6,0,1.2,0,1.8-0.2c0.3-0.1,0.6-0.1,0.9-0.2
				c0.3-0.1,0.6-0.2,0.8-0.3l0,0l0.1,0c0.5-0.2,1.1-0.5,1.6-0.8c0.5-0.3,1.1-0.6,1.6-0.9c1.1-0.6,2-1.4,3-2.1l1.4-1.2l1.4-1.2
				l1.4-1.2c0.3-0.2,0.5-0.4,0.8-0.6l0.8-0.6l6.9-4.9l-5.2,6.9l-2.4,3.1l-1.2,1.6c-0.4,0.5-0.8,1.1-1.2,1.6
				c-0.4,0.5-0.7,1.1-1.1,1.6c-0.4,0.5-0.8,1.1-1.1,1.7l-0.5,0.8c-0.2,0.3-0.4,0.6-0.5,0.9c-0.3,0.6-0.6,1.2-0.9,1.8l-0.2-0.1
				c0.1-0.7,0.2-1.4,0.3-2c0.1-0.7,0.4-1.3,0.6-2c0.1-0.3,0.2-0.7,0.3-1l0.4-0.9c0.3-0.6,0.6-1.3,0.9-1.9c0.3-0.6,0.7-1.2,1-1.8
				c0.4-0.6,0.7-1.2,1.1-1.7c0.8-1.1,1.5-2.2,2.4-3.3l1.7,1.9l-1.5,0.9l-1.5,1.1l-1.5,1.1c0,0-0.2,0.1-0.1,0.1l-0.2,0.2l-0.4,0.3
				l-0.8,0.6c-1.1,0.8-2.2,1.5-3.3,2.1c-0.6,0.3-1.2,0.6-1.7,0.9c-0.6,0.3-1.2,0.5-1.8,0.8l0.1,0c-0.4,0.2-0.7,0.3-1.1,0.4
				c-0.4,0.1-0.7,0.2-1.1,0.2c-0.7,0.1-1.4,0.1-2.1,0.1c-0.4,0-0.7-0.1-1-0.1c-0.3,0-0.7-0.1-1-0.2c-0.3-0.1-0.7-0.2-1-0.3
				c-0.3-0.1-0.7-0.2-1-0.4l-0.9-0.4l-0.9-0.5c-0.6-0.3-1.1-0.7-1.7-1.1c-0.3-0.2-0.5-0.4-0.8-0.6l-0.8-0.6l-1.4-1.4L141.7,135.2z"
				/>
		</g>
		<path display="inline" d="M177.1,166.2c0,0-4.3-0.7-4.9-1.9c-0.6-1.1,7.4-7.5,6.6-3.7C178,164.5,177.1,166.2,177.1,166.2z"/>
		<g display="inline">
			<path d="M223.5,135.6l-1.4,1.3l-0.8,0.6c-0.3,0.2-0.5,0.4-0.8,0.6c-0.6,0.4-1.1,0.8-1.7,1.1l-0.9,0.5l-0.9,0.4
				c-0.3,0.1-0.6,0.2-0.9,0.3c-0.3,0.1-0.6,0.2-1,0.3c-0.3,0.1-0.7,0.2-1,0.2c-0.3,0-0.7,0.1-1,0.1c-0.7,0-1.4,0-2.1-0.1
				c-0.3,0-0.7-0.1-1-0.2c-0.4-0.1-0.7-0.2-1.1-0.4l0.1,0c-0.6-0.2-1.2-0.5-1.8-0.7c-0.6-0.3-1.1-0.5-1.7-0.8
				c-1.1-0.6-2.2-1.3-3.3-2l-0.8-0.6l-0.4-0.3l-0.2-0.1c0,0-0.1-0.1-0.1-0.1l-1.5-1.1l-1.5-1.1l-1.4-0.9l1.7-1.9
				c0.9,1,1.6,2.1,2.4,3.2c0.7,1.1,1.4,2.3,2,3.5c0.3,0.6,0.6,1.2,0.9,1.8l0.4,0.9c0.1,0.3,0.2,0.6,0.3,1c0.2,0.6,0.5,1.3,0.6,1.9
				c0.1,0.7,0.2,1.3,0.3,2l-0.2,0.1c-0.3-0.6-0.6-1.2-0.9-1.7c-0.1-0.3-0.3-0.6-0.5-0.8l-0.5-0.8c-0.3-0.5-0.7-1.1-1.1-1.6
				c-0.4-0.5-0.7-1.1-1.1-1.6c-0.4-0.5-0.8-1-1.1-1.6l-1.2-1.5l-2.3-3.1l-5.1-6.8l6.9,4.8c0.5,0.4,1.1,0.8,1.6,1.2l1.4,1.2l1.4,1.2
				l0.7,0.6l0.7,0.6c0.9,0.7,1.9,1.4,2.9,2.1c0.5,0.3,1,0.6,1.6,0.9c0.5,0.3,1.1,0.6,1.6,0.8l0.1,0l0,0c0.2,0.1,0.5,0.2,0.8,0.3
				c0.3,0.1,0.6,0.2,0.9,0.2c0.6,0.1,1.2,0.2,1.8,0.2c0.3,0,0.6,0,0.9,0c0.3,0,0.6-0.1,0.9-0.1c0.3,0,0.6-0.1,0.9-0.2
				c0.3-0.1,0.6-0.1,0.9-0.2l0.9-0.3l0.9-0.4c0.6-0.2,1.1-0.6,1.7-0.9c0.3-0.2,0.5-0.3,0.8-0.5l0.8-0.5l1.5-1.2L223.5,135.6z"/>
		</g>
		<g display="inline">
			<path d="M215.5,223.5c-0.4,0.8-0.9,1.7-1.3,2.5l-0.6,1.2c-0.2,0.4-0.4,0.8-0.5,1.2c-0.2,0.4-0.3,0.8-0.5,1.2
				c-0.1,0.4-0.2,0.8-0.3,1.1c0,0.2-0.1,0.3,0,0.5c0,0.1,0,0.1,0,0.2c0,0,0,0.1,0,0.1c0,0.1,0.1,0.1,0.1,0.1l0,0l0,0v0l0,0
				c-0.1-0.2,0,0,0-0.1l0,0l0.1,0.1l0.2,0.3c0.3,0.4,0.5,0.8,0.7,1.2l0.7,1c0.2,0.3,0.5,0.7,0.8,1c0.3,0.3,0.5,0.7,0.8,1
				c0.6,0.7,1.1,1.3,1.7,2l1.8,1.9l-3.4,0.3l0.7-0.9l0.7-0.9l1.3-1.9c0.4-0.6,0.8-1.3,1.2-1.9c0.4-0.6,0.8-1.2,1-1.8
				c0.1-0.3,0.2-0.6,0.3-0.8c0-0.1,0.1-0.2,0.1-0.3l0-0.6c0-0.8,0-1.6,0.1-2.4l0.2-2.4c0-0.8,0.1-1.6,0.2-2.4l0.3,0l0.4,2.4
				c0.1,0.8,0.2,1.6,0.3,2.4l0.3,2.4c0,0.4,0.1,0.8,0.1,1.2c0,0.4-0.1,0.8-0.3,1.2c-0.2,0.8-0.6,1.5-0.9,2.2
				c-0.4,0.7-0.7,1.4-1.2,2.1c-0.8,1.4-1.7,2.7-2.7,4l-0.2,0.2l-0.2-0.2c-1.3-1.3-2.5-2.7-3.7-4.2c-0.3-0.4-0.5-0.8-0.8-1.1
				c-0.3-0.4-0.5-0.8-0.8-1.2l-0.7-1.2l-0.6-1.2c-0.2-0.4-0.4-0.9-0.4-1.4c0-0.2,0-0.5,0.1-0.7c0-0.2,0.1-0.5,0.2-0.7
				c0.1-0.5,0.3-0.9,0.5-1.3c0.2-0.4,0.4-0.8,0.7-1.2c1-1.6,2.2-3,3.4-4.4L215.5,223.5z"/>
		</g>
		
			<circle display="inline" fill="none" stroke="#000000" stroke-width="1.9227" stroke-miterlimit="10" cx="182.6" cy="66.8" r="4.2"/>
		<path display="inline" fill="none" stroke="#000000" stroke-width="1.9227" stroke-miterlimit="10" d="M186.8,91.2
			c0,2.3-1.9,4.2-4.2,4.2c-2.3,0-4.2-1.9-4.2-4.2c0-2.3,1.9-4.2,4.2-4.2C184.9,87,186.8,88.9,186.8,91.2z"/>
		
			<circle display="inline" fill="none" stroke="#000000" stroke-width="1.9227" stroke-miterlimit="10" cx="182.6" cy="115.5" r="4.2"/>
		
			<circle display="inline" fill="none" stroke="#000000" stroke-width="1.9227" stroke-miterlimit="10" cx="182.6" cy="139.9" r="4.2"/>
		
			<circle display="inline" fill="none" stroke="#000000" stroke-width="1.2818" stroke-miterlimit="10" cx="156.2" cy="98.7" r="2.8"/>
		
			<circle display="inline" fill="none" stroke="#000000" stroke-width="1.2818" stroke-miterlimit="10" cx="139.7" cy="103" r="2.8"/>
		
			<circle display="inline" fill="none" stroke="#000000" stroke-width="1.2818" stroke-miterlimit="10" cx="207.2" cy="98.1" r="2.8"/>
		
			<circle display="inline" fill="none" stroke="#000000" stroke-width="1.2818" stroke-miterlimit="10" cx="226.2" cy="103" r="2.8"/>
	</g>
	<rect x="90.7" y="-6.3" display="none" width="186" height="295"/>
	<path fill="#FFFFFF" d="M243.6,117.2c1.2,6,2.3-12.3,2.3-12.3c1.6,3.4,8.6,6.1,8.6,6.1c1.2-11.1-6.1-14.6-6.1-14.6
		c8.6,3.4,13.9,3.4,13.9,3.4c-0.4-8.4-11-10.3-11-10.3c14.3-2.3,16.4-8.8,16.4-8.8c-9.4-2.3-19.2,4.1-19.2,4.1
		c17.2-11.1,19.2-22.5,19.2-22.5l-11.5,6.9c10.2-17.2,11.5-31.8,11.5-31.8c-3.7,2.3-12.4,10.1-12.4,10.1c8.6-14.9,10-30,10-30
		l-16.3,15.1c10.1-14,11.8-25.3,11.8-25.3c-2.5,0-16,14.4-16,14.4C251.3,4.1,248,1,248,1l-11.7,21.7c3.3-9.2-1.4-15.4-1.4-15.4
		L221,48.6c20.9,8.4,3.5,25.6,3.5,25.6S237.6,88.1,243.6,117.2z"/>
	<path fill="none" stroke="#FFFFFF" stroke-width="2.5636" stroke-miterlimit="10" d="M185.1,47.6c2.1-0.2,9.1,0.4,16.6,6.7l-7,6.9
		c0,0-5.6,36.7-0.4,90l-12.5,8.3"/>
	<g>
		<g>
			<path fill="#FFFFFF" d="M200.6,56.5c19.1,7.4,32.5,28.5,38.2,47.4c0.6,2,3.7,1.1,3.1-0.9c-6.1-20.1-20-41.7-40.5-49.6
				C199.6,52.7,198.7,55.8,200.6,56.5L200.6,56.5z"/>
		</g>
	</g>
	<path fill="none" stroke="#FFFFFF" stroke-width="2.2432" stroke-miterlimit="10" d="M192.1,91.1c0,0,33.8,1.1,48.5,14.2l3.7,14.6
		c0,0-7.4-13.6-52.2-17.7"/>
	<g>
		<path fill="#FFFFFF" d="M244.3,119.8l4.6,8.5l4.5,8.6l4.5,8.6c0.8,1.4,1.5,2.9,2.1,4.4c0.6,1.5,1.3,3,2,4.4l-0.1-0.2
			c0.6,1,1.1,1.9,1.5,2.9c0.5,1,0.9,2,1.3,3c0.2,0.5,0.4,1,0.5,1.5c0.2,0.5,0.3,1,0.5,1.6c0.3,1,0.5,2.1,0.8,3.2
			c0.2,1.1,0.3,2.2,0.4,3.3c0,0.6,0,1.1,0,1.7c0,0.6,0,1.1-0.1,1.7c-0.1,0.6-0.2,1.1-0.3,1.7l-0.5,1.7c-0.2,0.6-0.5,1.1-0.7,1.6
			l-0.4,0.7l-0.4,0.7l-0.7,1.4l-0.5,1.3l-0.3,0.6l-0.2,0.7c-0.1,0.4-0.3,0.9-0.4,1.3l-0.3,1.3l-0.1,1.3c0,0.9,0,1.8,0.1,2.7
			c0.1,0.9,0.4,1.7,0.7,2.6c0.1,0.4,0.4,0.8,0.5,1.2c0.2,0.4,0.5,0.8,0.7,1.2c0.5,0.7,1.1,1.5,1.7,2.1c0.6,0.7,1.4,1.2,2.1,1.8
			l6.8,5.2l-8.3-1.7l-11.1-2.3l2-3c0.7,1.1,1.3,2.1,1.9,3.2c0.6,1.1,1.1,2.2,1.6,3.3c1,2.3,1.7,4.6,2.2,7.1c0.2,1.2,0.4,2.5,0.4,3.8
			c0,1.3-0.1,2.6-0.3,3.9c-0.3,1.3-0.7,2.6-1.2,3.8c-0.6,1.2-1.3,2.4-2.2,3.3c-0.4,0.5-0.9,1-1.4,1.4c-0.5,0.5-1,0.8-1.6,1.3
			c-0.9,0.6-1.8,1.3-2.7,2c-1.7,1.4-3.4,3-4.9,4.6c-1.5,1.6-2.8,3.4-3.7,5.3c-0.9,1.9-1.4,3.8-1.1,5.6l0.7,3.7l-3.4-1.7
			c-0.3-0.2-0.4-0.2-0.6-0.4c-0.2-0.1-0.3-0.2-0.5-0.3c-0.3-0.2-0.5-0.5-0.8-0.7c-0.2-0.3-0.4-0.5-0.6-0.8c-0.2-0.3-0.4-0.6-0.5-0.9
			c-0.2-0.3-0.3-0.6-0.4-0.9l-0.4-0.9c-0.1-0.3-0.2-0.6-0.3-0.9l-0.2-0.9l3.8-0.1c-0.1,0.7-0.3,1.3-0.4,1.8
			c-0.1,0.6-0.4,1.1-0.6,1.7c-0.4,1.1-0.9,2.1-1.4,3.1c-0.5,1-1.1,2-1.7,3c-0.6,1-1.3,1.8-2,2.8c-0.7,0.9-1.5,1.7-2.2,2.6
			c-0.8,0.8-1.6,1.6-2.4,2.4c-0.8,0.8-1.7,1.5-2.5,2.2c-0.4,0.4-0.8,0.7-1.3,1.1l-1.3,1c-0.9,0.6-1.8,1.3-2.7,1.9l-2.8,1.7
			c-0.9,0.6-1.9,1.1-2.9,1.6l-2.9,1.5c-1,0.5-2,0.9-3,1.3c-1,0.4-2,0.9-3,1.3l-6.2,2.2L196,276l3.4-5l0.2-0.3
			c0.1-0.1,0.1-0.2,0.2-0.3l0.4-0.7c0.3-0.5,0.5-1,0.7-1.4c0.1-0.2,0.3-0.5,0.4-0.7l0.3-0.7l0.7-1.5l2.7,2c-4,2.5-8,5.1-11.9,7.7
			c-2,1.3-3.9,2.7-5.7,4.2c-0.9,0.7-1.8,1.5-2.7,2.3c-0.4,0.4-0.8,0.8-1.2,1.3c-0.4,0.5-0.8,0.9-0.9,1.5c0.1-0.6,0.4-1.1,0.7-1.6
			c0.3-0.5,0.7-1,1.1-1.5c0.8-0.9,1.6-1.8,2.4-2.7c1.7-1.7,3.4-3.3,5.2-4.9c1.8-1.6,3.6-3.2,5.5-4.7c1.9-1.5,3.7-3,5.6-4.5l4.4-3.4
			l-1.7,5.4l-0.6,1.8l-0.3,0.9c-0.1,0.3-0.3,0.6-0.4,0.9c-0.1,0.3-0.3,0.6-0.4,0.9c-0.2,0.3-0.3,0.6-0.5,0.8l-0.5,0.8
			c-0.1,0.1-0.2,0.3-0.3,0.4l-0.3,0.4l-2.1-3l6-2.1c1-0.4,1.9-0.8,2.9-1.2c1-0.4,1.9-0.8,2.9-1.3l2.8-1.4c0.9-0.5,1.9-0.9,2.7-1.5
			l2.7-1.6c0.9-0.5,1.7-1.2,2.5-1.8l1.3-0.9c0.4-0.3,0.8-0.7,1.2-1c0.8-0.7,1.6-1.3,2.3-2c0.7-0.7,1.5-1.4,2.2-2.2l2-2.3
			c0.6-0.8,1.2-1.6,1.8-2.5c0.5-0.9,1.1-1.7,1.5-2.6c0.5-0.9,0.9-1.8,1.2-2.7c0.1-0.5,0.4-0.9,0.5-1.4c0.1-0.4,0.3-1,0.3-1.3
			l1.5-8.8l2.3,8.6l0.2,0.6c0.1,0.2,0.1,0.4,0.2,0.6l0.2,0.6c0.1,0.2,0.2,0.4,0.3,0.6c0.1,0.2,0.2,0.4,0.3,0.5
			c0.1,0.1,0.2,0.3,0.4,0.5c0.1,0.1,0.3,0.3,0.4,0.4c0.1,0,0.1,0.1,0.2,0.1c0,0,0.2,0.1,0.1,0.1l-2.7,2.1c-0.2-1.4-0.2-2.8,0.1-4.2
			c0.3-1.3,0.7-2.6,1.3-3.8c1.1-2.3,2.6-4.4,4.3-6.2c1.6-1.8,3.4-3.5,5.3-5c0.9-0.8,1.9-1.5,2.9-2.2c0.3-0.3,0.8-0.6,1.2-0.9
			c0.4-0.4,0.8-0.7,1.1-1.1c0.7-0.7,1.2-1.6,1.6-2.5c0.4-0.9,0.7-1.9,0.9-2.9c0.2-1,0.3-2,0.2-3.1c0-1.1-0.2-2.1-0.3-3.2
			c-0.4-2.1-1.1-4.2-2-6.3c-0.4-1-0.9-2-1.5-3c-0.5-1-1.1-2-1.7-2.8l-2.6-3.9l4.6,1l11.1,2.3l-1.5,3.4c-0.9-0.7-1.8-1.4-2.6-2.2
			c-0.8-0.8-1.5-1.7-2.2-2.7c-0.3-0.5-0.6-1-0.9-1.5c-0.2-0.5-0.5-1-0.7-1.6c-0.4-1.1-0.7-2.2-0.9-3.4c-0.2-1.2-0.2-2.3-0.1-3.5
			l0.2-1.7l0.4-1.7c0.1-0.6,0.3-1.1,0.5-1.6l0.3-0.8l0.3-0.8l0.7-1.6l0.7-1.4l0.4-0.7l0.1-0.2l0-0.1l0.1-0.1l0.1-0.3
			c0.2-0.4,0.4-0.8,0.5-1.2l0.4-1.3c0.1-0.4,0.1-0.9,0.2-1.3c0.1-0.4,0.1-0.9,0.1-1.4c0-0.5,0-0.9,0-1.4c0-0.9-0.2-1.9-0.3-2.8
			c-0.2-0.9-0.4-1.9-0.7-2.8c-0.1-0.5-0.3-0.9-0.4-1.4c-0.1-0.5-0.3-0.9-0.5-1.4c-0.3-0.9-0.7-1.8-1.2-2.7c-0.4-0.9-0.9-1.8-1.3-2.5
			l-0.1-0.1l0-0.1c-0.7-1.5-1.3-2.9-2-4.4c-0.7-1.4-1.3-2.9-1.9-4.5l-3.5-9l-3.4-9.1L244.3,119.8z"/>
	</g>
	<path fill="none" stroke="#FFFFFF" stroke-width="1.9227" stroke-miterlimit="10" d="M188.6,155c0,0,7.6-7.7,13.2,7
		c0,0-4.8,1.7-13.6,4.2l-5.5,1.4"/>
	<path fill="none" stroke="#FFFFFF" stroke-width="1.9227" stroke-miterlimit="10" d="M216.4,171.7c0,0-18.3-28.8-27.2-16.7"/>
	<path fill="none" stroke="#FFFFFF" stroke-width="2.5636" stroke-miterlimit="10" d="M230.3,110.3c0,0,11.5,32.1,2.5,38.7
		c-9,6.5-17,22.8-17,22.8"/>
	<path fill="none" stroke="#FFFFFF" stroke-width="1.9227" stroke-miterlimit="10" d="M230.4,151.5c0,0-8.7,20.1-9.9,24.7"/>
	<path fill="none" stroke="#FFFFFF" stroke-width="2.5636" stroke-miterlimit="10" d="M201.7,162c0,0,37.4,18,16.5,40
		c0,0-20.8-24-36.3-25.9"/>
	<path fill="none" stroke="#FFFFFF" stroke-width="2.5636" stroke-miterlimit="10" d="M213.5,196.9c0,0-5.2,5.7,1.7,16.4
		c0,0,17.9-3.8,6.9-16.4"/>
	<path fill="none" stroke="#FFFFFF" stroke-width="2.5636" stroke-miterlimit="10" d="M215.2,213.3c0,0-7.6,4.2,3,12.3
		c0,0,8-2.6,2.8-14.5"/>
	<path fill="none" stroke="#FFFFFF" stroke-width="2.5636" stroke-miterlimit="10" d="M182.5,180.4"/>
	<path fill="none" stroke="#FFFFFF" stroke-width="1.9227" stroke-miterlimit="10" d="M201.7,186.1c0,0-7,20-9.6,14.6
		c-2.7-5.4-2.8-10.3-2.8-10.3"/>
	<path fill="none" stroke="#FFFFFF" stroke-width="2.5636" stroke-miterlimit="10" d="M200.1,190.4c0,0-12.1,0-17.6,0"/>
	<path fill="none" stroke="#FFFFFF" stroke-width="1.9227" stroke-miterlimit="10" d="M192.7,113.6c0,0-1.3,6.6,2.8,11.2
		c0,0,16-3.8,22.1-5c6.2-1.1,12.1,6.5,12.1,6.5l-5.3-10.3l5.3,1.5l-8.8-7.2c0,0-12.3,2.6-17.4,4.2
		C198.5,116,195.5,115.6,192.7,113.6z"/>
	<path fill="none" stroke="#FFFFFF" stroke-width="1.9227" stroke-miterlimit="10" d="M200.7,123.6l-4.3,2c0,0,10.3,9.5,24.6,3.3
		c0,0-2.1-6.6-8.3-8"/>
	<path fill="none" stroke="#FFFFFF" stroke-width="1.9227" stroke-miterlimit="10" d="M203.5,129.2c0,0,0-5.5,5.8-5.3
		c5.9,0.2,5.3,6.5,5.3,6.5"/>
	<path fill="#FFFFFF" d="M188.1,166.2c0,0,4.4-0.7,5-1.9c0.6-1.2-7.6-7.5-6.8-3.7C187.2,164.5,188.1,166.2,188.1,166.2z"/>
	<path fill="#FFFFFF" d="M206.7,129.9c0,0-0.1-3,2-3c3.3,0,2.2,3.4,2.2,3.4"/>
	<path fill="#FFFFFF" d="M141.6,74.2c0,0-17-17.2,3.4-25.6L131.4,7.4c0,0-4.6,5.9-1.4,15.1L118.6,1c0,0-3.2,3.1,3.2,20.7
		c0,0-13.2-14.4-15.6-14.4c0,0,1.6,11.3,11.5,25.3l-15.9-15.1c0,0,1.4,15.1,9.7,30c0,0-8.5-7.8-12.1-10.1c0,0,1.2,14.6,11.2,31.8
		l-11.2-6.9c0,0,2,11.4,18.7,22.5c0,0-9.5-6.4-18.7-4.1c0,0,2,6.5,16,8.8c0,0-10.4,1.9-10.8,10.3c0,0,5.2,0,13.6-3.4
		c0,0-7.2,3.4-6,14.6c0,0,6.8-2.7,8.4-6.1c0,0-0.5,6.9,2.3,12.3C122.9,117.2,130,83.3,141.6,74.2z"/>
	<path fill="none" stroke="#FFFFFF" stroke-width="1.9227" stroke-miterlimit="10" d="M182.6,51.6H178c0,0,0.2-4.9,4.2-8.7
		c0,0,3.9,3.6,4.2,8.7H182.6z"/>
	<path fill="none" stroke="#FFFFFF" stroke-width="2.5636" stroke-miterlimit="10" d="M179.6,47.5c-2-0.2-8.5,0.4-15.8,6.8l6.8,6.9
		c0,0,5.4,36.7,0.4,90l12.2,8.3"/>
	<g>
		<g>
			<path fill="#FFFFFF" d="M164,53.4c-20.3,7.7-33.9,29.3-39.8,49.2c-0.6,2,2.5,2.8,3.1,0.9c5.5-18.7,18.6-39.7,37.5-46.9
				C166.8,55.8,166,52.7,164,53.4L164,53.4z"/>
		</g>
	</g>
	<path fill="none" stroke="#FFFFFF" stroke-width="2.2432" stroke-miterlimit="10" d="M173.2,91.1c0,0-33,0.5-47.4,13.6l-3.6,15.2
		c0,0,7.2-13.6,51-17.7"/>
	<g>
		<path fill="#FFFFFF" d="M122.2,119.8l-3.3,9.1l-3.3,9.1l-3.4,9c-0.5,1.5-1.1,3-1.8,4.5c-0.7,1.5-1.3,2.9-2,4.4l0,0.1l-0.1,0.1
			c-0.4,0.8-0.9,1.7-1.3,2.6c-0.4,0.9-0.8,1.8-1.1,2.7c-0.2,0.5-0.3,0.9-0.5,1.4c-0.2,0.5-0.3,0.9-0.4,1.4c-0.3,0.9-0.5,1.9-0.7,2.8
			c-0.1,0.9-0.3,1.9-0.3,2.8l0,0.7l0,0.7c0,0.5,0,0.9,0.1,1.4l0.2,1.3l0.4,1.3c0.1,0.4,0.4,0.8,0.5,1.2l0.1,0.3l0.1,0.1l0,0.1l0,0
			l0.1,0.1l0.4,0.7l0.7,1.4l0.7,1.6l0.3,0.8l0.3,0.8c0.2,0.5,0.4,1.1,0.5,1.6l0.3,1.7c0.1,0.6,0.1,1.1,0.2,1.7
			c0.1,1.1,0,2.3-0.1,3.5c-0.2,1.2-0.5,2.3-0.9,3.4c-0.2,0.6-0.5,1.1-0.7,1.6c-0.3,0.5-0.6,1-0.9,1.5c-0.6,1-1.3,1.9-2.1,2.7
			c-0.8,0.8-1.7,1.6-2.6,2.2l-1.5-3.4l10.8-2.3l4.6-1l-2.6,3.9c-0.6,0.8-1.1,1.9-1.6,2.8c-0.5,1-1,2-1.4,3c-0.9,2-1.5,4.1-1.9,6.3
			c-0.4,2.1-0.5,4.2-0.1,6.2c0.2,1,0.5,2,0.9,2.9c0.4,0.9,0.9,1.8,1.6,2.5c0.3,0.4,0.7,0.7,1,1.1c0.2,0.2,0.4,0.3,0.6,0.5l0.5,0.4
			c1,0.7,2,1.5,2.9,2.2c1.8,1.6,3.6,3.2,5.2,5.1c1.6,1.8,3.1,3.9,4.2,6.2c0.5,1.2,1,2.4,1.3,3.7c0.3,1.3,0.3,2.7,0.1,4.1l-2.7-2.1
			c-0.1,0,0,0,0.1-0.1c0.1,0,0.1-0.1,0.2-0.1c0.1-0.1,0.2-0.3,0.4-0.4c0.1-0.1,0.2-0.3,0.4-0.5c0.1-0.1,0.2-0.3,0.3-0.5
			c0.1-0.2,0.2-0.4,0.3-0.6l0.2-0.6c0.1-0.2,0.1-0.4,0.2-0.6l0.2-0.6l2.3-8.8l1.5,8.9c0.1,0.3,0.2,0.8,0.3,1.3
			c0.1,0.5,0.3,0.9,0.4,1.4c0.4,0.9,0.7,1.8,1.2,2.7c0.4,0.9,1,1.7,1.5,2.6c0.5,0.9,1.1,1.7,1.7,2.5c0.6,0.8,1.3,1.6,1.9,2.3
			c0.7,0.8,1.4,1.5,2.1,2.2c0.7,0.8,1.5,1.4,2.3,2.1l1.2,1l1.2,0.9c0.8,0.6,1.6,1.2,2.5,1.8l2.6,1.6c0.9,0.6,1.8,1.1,2.7,1.5
			l2.7,1.4c0.9,0.5,1.9,0.8,2.8,1.3l2.8,1.2l5.9,2.1l-2.1,3l-0.3-0.4c-0.1-0.2-0.2-0.3-0.3-0.4l-0.5-0.8c-0.3-0.6-0.6-1.1-0.8-1.7
			c-0.1-0.3-0.3-0.6-0.4-0.9l-0.3-0.9l-0.6-1.8l-1.6-5.2l4.3,3.3c1.9,1.4,3.7,2.9,5.5,4.4c1.8,1.5,3.6,3,5.3,4.6
			c1.7,1.6,3.5,3.1,5.1,4.8c0.8,0.8,1.6,1.7,2.3,2.6c0.4,0.5,0.7,0.9,1,1.4c0.3,0.5,0.6,1,0.7,1.6c-0.2-0.6-0.5-1-0.9-1.5
			c-0.4-0.4-0.8-0.8-1.2-1.2c-0.8-0.8-1.7-1.5-2.6-2.2c-1.8-1.4-3.7-2.8-5.6-4.1c-3.8-2.6-7.7-5.1-11.6-7.5l2.7-1.9l0.7,1.5l0.3,0.7
			c0.1,0.2,0.3,0.5,0.4,0.7l0.4,0.7c0.1,0.2,0.2,0.5,0.4,0.7l0.4,0.7c0.1,0.1,0.1,0.2,0.2,0.3l0.2,0.3l3.3,5l-5.4-2l-6.1-2.2l-3-1.3
			c-1-0.4-2-0.9-3-1.3l-2.9-1.5c-1-0.5-1.9-1-2.8-1.6l-2.8-1.7c-0.9-0.6-1.8-1.3-2.7-1.9l-1.3-1l-1.2-1.1c-0.8-0.7-1.7-1.4-2.4-2.2
			c-0.8-0.8-1.6-1.6-2.3-2.4c-0.7-0.9-1.4-1.7-2.1-2.6c-0.6-0.9-1.3-1.8-1.9-2.8c-0.6-1-1.2-1.9-1.6-2.9c-0.5-1-1-2.1-1.4-3.1
			c-0.2-0.6-0.4-1.1-0.5-1.6c-0.2-0.6-0.3-1.1-0.4-1.8l3.8,0.1l-0.2,0.9c-0.1,0.3-0.1,0.6-0.3,0.9l-0.4,0.9
			c-0.1,0.3-0.3,0.6-0.4,0.9c-0.2,0.3-0.3,0.6-0.5,0.9c-0.2,0.3-0.4,0.6-0.6,0.8c-0.3,0.3-0.5,0.5-0.8,0.8c-0.1,0.1-0.3,0.2-0.4,0.4
			c-0.2,0.1-0.3,0.2-0.6,0.4l-3.4,1.7l0.6-3.8c0.3-1.8-0.1-3.8-1-5.6c-0.9-1.9-2.2-3.7-3.6-5.3c-1.4-1.7-3.1-3.2-4.8-4.6
			c-0.8-0.7-1.8-1.4-2.6-2l-0.1-0.1l0,0l-0.1-0.1l-0.2-0.2l-0.4-0.3c-0.2-0.2-0.5-0.4-0.7-0.6c-0.5-0.5-0.9-0.9-1.4-1.4
			c-0.9-1-1.6-2.2-2.1-3.4c-0.6-1.2-0.9-2.5-1.2-3.8c-0.5-2.6-0.3-5.2,0.1-7.6c0.5-2.5,1.2-4.8,2.2-7c0.5-1.1,1-2.2,1.6-3.3
			c0.6-1.1,1.1-2.1,1.9-3.2l2,3l-10.8,2.3l-8.1,1.7l6.6-5.2c0.7-0.6,1.4-1.1,2-1.8c0.6-0.6,1.2-1.4,1.7-2.1c0.2-0.4,0.5-0.8,0.7-1.2
			c0.2-0.4,0.4-0.8,0.5-1.2c0.3-0.8,0.5-1.7,0.7-2.6c0.1-0.9,0.1-1.8,0.1-2.7l-0.1-1.3l-0.3-1.3c-0.1-0.4-0.3-0.9-0.4-1.3l-0.2-0.7
			l-0.3-0.6l-0.5-1.3l-0.7-1.4l-0.4-0.7l-0.3-0.7c-0.2-0.5-0.6-1.1-0.7-1.6l-0.5-1.7c-0.1-0.6-0.2-1.1-0.3-1.7
			c-0.1-0.6-0.1-1.1-0.1-1.7l0-0.8l0-0.8c0-1.1,0.2-2.2,0.3-3.3c0.2-1.1,0.4-2.1,0.7-3.2c0.1-0.5,0.3-1,0.5-1.5
			c0.2-0.5,0.3-1,0.5-1.5c0.4-1,0.8-2,1.2-3c0.5-1,0.9-1.9,1.5-2.9l-0.1,0.2c0.7-1.5,1.3-2.9,1.9-4.4c0.6-1.5,1.3-2.9,2.1-4.4
			l4.4-8.6l4.5-8.6L122.2,119.8z"/>
	</g>
	<path fill="none" stroke="#FFFFFF" stroke-width="1.9227" stroke-miterlimit="10" d="M176.2,154.7c0,0-7-7.4-12.4,7.3
		c0,0,4.7,1.7,13.3,4.2l6.1,1.4"/>
	<path fill="none" stroke="#FFFFFF" stroke-width="1.9227" stroke-miterlimit="10" d="M149.4,171.1c0,0,17.5-28.5,26.2-16.4"/>
	<path fill="none" stroke="#FFFFFF" stroke-width="2.5636" stroke-miterlimit="10" d="M135.9,110.3c0,0-11.3,32.1-2.5,38.7
		c7.6,5.6,17.9,24.7,16.6,22.1"/>
	<path fill="none" stroke="#FFFFFF" stroke-width="1.9227" stroke-miterlimit="10" d="M135.8,151.5c0,0,8.5,20.1,9.7,24.7"/>
	<path fill="none" stroke="#FFFFFF" stroke-width="2.5636" stroke-miterlimit="10" d="M163.8,162c0,0-36.6,18-16.1,40
		c0,0,19.7-24,34.9-25.9"/>
	<path fill="none" stroke="#FFFFFF" stroke-width="2.5636" stroke-miterlimit="10" d="M152.3,196.9c0,0,5.1,5.7-1.7,16.4
		c0,0-17.5-3.8-6.7-16.4"/>
	<path fill="none" stroke="#FFFFFF" stroke-width="2.5636" stroke-miterlimit="10" d="M150.6,213.3c0,0,7.4,4.2-2.9,12.3
		c0,0-7.8-2.6-2.7-14.5"/>
	<g>
		<path fill="#FFFFFF" d="M150.7,222.3c0.8,0.4,1.5,0.9,2.2,1.4c0.3,0.3,0.7,0.5,1,0.8c0.3,0.3,0.7,0.6,1,0.9
			c0.3,0.3,0.6,0.7,0.9,1.1c0.3,0.4,0.6,0.8,0.8,1.3c0.2,0.5,0.4,1,0.5,1.7c0.1,0.3,0,0.7,0,1.1l-0.1,0.8c-0.1,0.4-0.2,0.8-0.3,1.2
			l-0.4,1.3c-0.1,0.5-0.3,0.9-0.5,1.3c-0.2,0.4-0.3,0.8-0.5,1.2c-0.4,0.8-0.8,1.6-1.2,2.3c-0.2,0.4-0.4,0.8-0.7,1.1
			c-0.2,0.4-0.5,0.7-0.8,1.1l-1.8,2.5l-1.8-2.3l-0.7-0.9l-0.7-0.9c-0.5-0.6-0.9-1.3-1.2-1.9c-0.4-0.7-0.8-1.4-1.1-2.1
			c-0.2-0.4-0.3-0.7-0.5-1.1c-0.1-0.4-0.3-0.8-0.4-1.2c-0.1-0.4-0.2-0.9-0.2-1.4l0-0.2l0-0.3l0-0.3l0.1-0.5c0.1-0.7,0.2-1.5,0.3-2.2
			c0.1-0.7,0.2-1.4,0.4-2.2c0.2-0.7,0.4-1.5,0.6-2.2l0.3,0l0,2.2c0,0.7,0,1.4,0,2.2l0,2.2c0,0.4,0,0.7,0.1,1.1c0,0.3,0.2,0.7,0.3,1
			c0.5,1.3,1.3,2.6,2.1,3.7c0.8,1.2,1.7,2.3,2.6,3.4l-0.4,0c0.5-0.7,0.9-1.4,1.3-2.1c0.4-0.7,0.8-1.4,1.2-2.1
			c0.2-0.4,0.4-0.7,0.6-1.1c0.2-0.4,0.4-0.7,0.5-1.1l0.5-1.1l0.4-1.2c0.1-0.4,0.2-0.8,0.2-1.1c0-0.4-0.1-0.8-0.3-1.2
			c-0.1-0.4-0.3-0.7-0.5-1.1c-0.2-0.4-0.4-0.7-0.6-1c-0.9-1.4-2-2.6-3.1-3.8L150.7,222.3z"/>
	</g>
	<line fill="none" stroke="#FFFFFF" stroke-width="1.9227" stroke-miterlimit="10" x1="195.5" y1="181.9" x2="169.2" y2="182"/>
	<path fill="none" stroke="#FFFFFF" stroke-width="1.9227" stroke-miterlimit="10" d="M163.8,186.1c0,0,6.8,20,9.4,14.6
		c2.6-5.4,2.3-10.3,2.3-10.3"/>
	<path fill="none" stroke="#FFFFFF" stroke-width="2.5636" stroke-miterlimit="10" d="M165.4,190.4c0,0,11.9,0,17.2,0"/>
	<path fill="none" stroke="#FFFFFF" stroke-width="1.9227" stroke-miterlimit="10" d="M172.6,113.6c0,0,1.3,6.6-2.7,11.2
		c0,0-15.6-3.8-21.6-5c-6-1.1-11.8,6.5-11.8,6.5l5.2-10.3l-5.2,1.5l8.6-7.2c0,0,12.1,2.6,17,4.2C167,116,169.9,115.6,172.6,113.6z"
		/>
	<path fill="#FFFFFF" d="M171.1,124.7c-3.3,4.5-7.7,7.4-7.7,7.4s-10,6.9-20.4-5.6c0,0,2-8.8,10.1-5.7"/>
	<g>
		<path fill="#FFFFFF" d="M141.7,135.2l1.6,1.2l0.8,0.5c0.3,0.2,0.5,0.4,0.8,0.5c0.6,0.3,1.1,0.7,1.7,0.9l0.9,0.4l0.9,0.3
			c0.3,0.1,0.6,0.2,0.9,0.3c0.3,0.1,0.6,0.2,0.9,0.2c0.3,0,0.6,0.1,0.9,0.1c0.3,0,0.6,0.1,0.9,0c0.6,0,1.2,0,1.8-0.2
			c0.3-0.1,0.6-0.1,0.9-0.2c0.3-0.1,0.6-0.2,0.8-0.3l0,0l0.1,0c0.5-0.2,1.1-0.5,1.6-0.8c0.5-0.3,1.1-0.6,1.6-0.9
			c1.1-0.6,2-1.4,3-2.1l1.4-1.2l1.4-1.2l1.4-1.2c0.3-0.2,0.5-0.4,0.8-0.6l0.8-0.6l6.9-4.9l-5.2,6.9l-2.4,3.1l-1.2,1.6
			c-0.4,0.5-0.8,1.1-1.2,1.6c-0.4,0.5-0.7,1.1-1.1,1.6c-0.4,0.5-0.8,1.1-1.1,1.7l-0.5,0.8c-0.2,0.3-0.4,0.6-0.5,0.9
			c-0.3,0.6-0.6,1.2-0.9,1.8l-0.2-0.1c0.1-0.7,0.2-1.4,0.3-2c0.1-0.7,0.4-1.3,0.6-2c0.1-0.3,0.2-0.7,0.3-1l0.4-0.9
			c0.3-0.6,0.6-1.3,0.9-1.9c0.3-0.6,0.7-1.2,1-1.8c0.4-0.6,0.7-1.2,1.1-1.7c0.8-1.1,1.5-2.2,2.4-3.3l1.7,1.9l-1.5,0.9l-1.5,1.1
			l-1.5,1.1c0,0-0.2,0.1-0.1,0.1l-0.2,0.2l-0.4,0.3l-0.8,0.6c-1.1,0.8-2.2,1.5-3.3,2.1c-0.6,0.3-1.2,0.6-1.7,0.9
			c-0.6,0.3-1.2,0.5-1.8,0.8l0.1,0c-0.4,0.2-0.7,0.3-1.1,0.4c-0.4,0.1-0.7,0.2-1.1,0.2c-0.7,0.1-1.4,0.1-2.1,0.1
			c-0.4,0-0.7-0.1-1-0.1c-0.3,0-0.7-0.1-1-0.2c-0.3-0.1-0.7-0.2-1-0.3c-0.3-0.1-0.7-0.2-1-0.4l-0.9-0.4l-0.9-0.5
			c-0.6-0.3-1.1-0.7-1.7-1.1c-0.3-0.2-0.5-0.4-0.8-0.6l-0.8-0.6l-1.4-1.4L141.7,135.2z"/>
	</g>
	<path fill="#FFFFFF" d="M177.1,166.2c0,0-4.3-0.7-4.9-1.9c-0.6-1.1,7.4-7.5,6.6-3.7C178,164.5,177.1,166.2,177.1,166.2z"/>
	<g>
		<path fill="#FFFFFF" d="M223.5,135.6l-1.4,1.3l-0.8,0.6c-0.3,0.2-0.5,0.4-0.8,0.6c-0.6,0.4-1.1,0.8-1.7,1.1l-0.9,0.5l-0.9,0.4
			c-0.3,0.1-0.6,0.2-0.9,0.3c-0.3,0.1-0.6,0.2-1,0.3c-0.3,0.1-0.7,0.2-1,0.2c-0.3,0-0.7,0.1-1,0.1c-0.7,0-1.4,0-2.1-0.1
			c-0.3,0-0.7-0.1-1-0.2c-0.4-0.1-0.7-0.2-1.1-0.4l0.1,0c-0.6-0.2-1.2-0.5-1.8-0.7c-0.6-0.3-1.1-0.5-1.7-0.8c-1.1-0.6-2.2-1.3-3.3-2
			l-0.8-0.6l-0.4-0.3l-0.2-0.1c0,0-0.1-0.1-0.1-0.1l-1.5-1.1l-1.5-1.1l-1.4-0.9l1.7-1.9c0.9,1,1.6,2.1,2.4,3.2
			c0.7,1.1,1.4,2.3,2,3.5c0.3,0.6,0.6,1.2,0.9,1.8l0.4,0.9c0.1,0.3,0.2,0.6,0.3,1c0.2,0.6,0.5,1.3,0.6,1.9c0.1,0.7,0.2,1.3,0.3,2
			l-0.2,0.1c-0.3-0.6-0.6-1.2-0.9-1.7c-0.1-0.3-0.3-0.6-0.5-0.8l-0.5-0.8c-0.3-0.5-0.7-1.1-1.1-1.6c-0.4-0.5-0.7-1.1-1.1-1.6
			c-0.4-0.5-0.8-1-1.1-1.6l-1.2-1.5l-2.3-3.1l-5.1-6.8l6.9,4.8c0.5,0.4,1.1,0.8,1.6,1.2l1.4,1.2l1.4,1.2l0.7,0.6l0.7,0.6
			c0.9,0.7,1.9,1.4,2.9,2.1c0.5,0.3,1,0.6,1.6,0.9c0.5,0.3,1.1,0.6,1.6,0.8l0.1,0l0,0c0.2,0.1,0.5,0.2,0.8,0.3
			c0.3,0.1,0.6,0.2,0.9,0.2c0.6,0.1,1.2,0.2,1.8,0.2c0.3,0,0.6,0,0.9,0c0.3,0,0.6-0.1,0.9-0.1c0.3,0,0.6-0.1,0.9-0.2
			c0.3-0.1,0.6-0.1,0.9-0.2l0.9-0.3l0.9-0.4c0.6-0.2,1.1-0.6,1.7-0.9c0.3-0.2,0.5-0.3,0.8-0.5l0.8-0.5l1.5-1.2L223.5,135.6z"/>
	</g>
	<g>
		<path fill="#FFFFFF" d="M215.5,223.5c-0.4,0.8-0.9,1.7-1.3,2.5l-0.6,1.2c-0.2,0.4-0.4,0.8-0.5,1.2c-0.2,0.4-0.3,0.8-0.5,1.2
			c-0.1,0.4-0.2,0.8-0.3,1.1c0,0.2-0.1,0.3,0,0.5c0,0.1,0,0.1,0,0.2c0,0,0,0.1,0,0.1c0,0.1,0.1,0.1,0.1,0.1l0,0l0,0v0l0,0
			c-0.1-0.2,0,0,0-0.1l0,0l0.1,0.1l0.2,0.3c0.3,0.4,0.5,0.8,0.7,1.2l0.7,1c0.2,0.3,0.5,0.7,0.8,1c0.3,0.3,0.5,0.7,0.8,1
			c0.6,0.7,1.1,1.3,1.7,2l1.8,1.9l-3.4,0.3l0.7-0.9l0.7-0.9l1.3-1.9c0.4-0.6,0.8-1.3,1.2-1.9c0.4-0.6,0.8-1.2,1-1.8
			c0.1-0.3,0.2-0.6,0.3-0.8c0-0.1,0.1-0.2,0.1-0.3l0-0.6c0-0.8,0-1.6,0.1-2.4l0.2-2.4c0-0.8,0.1-1.6,0.2-2.4l0.3,0l0.4,2.4
			c0.1,0.8,0.2,1.6,0.3,2.4l0.3,2.4c0,0.4,0.1,0.8,0.1,1.2c0,0.4-0.1,0.8-0.3,1.2c-0.2,0.8-0.6,1.5-0.9,2.2
			c-0.4,0.7-0.7,1.4-1.2,2.1c-0.8,1.4-1.7,2.7-2.7,4l-0.2,0.2l-0.2-0.2c-1.3-1.3-2.5-2.7-3.7-4.2c-0.3-0.4-0.5-0.8-0.8-1.1
			c-0.3-0.4-0.5-0.8-0.8-1.2l-0.7-1.2l-0.6-1.2c-0.2-0.4-0.4-0.9-0.4-1.4c0-0.2,0-0.5,0.1-0.7c0-0.2,0.1-0.5,0.2-0.7
			c0.1-0.5,0.3-0.9,0.5-1.3c0.2-0.4,0.4-0.8,0.7-1.2c1-1.6,2.2-3,3.4-4.4L215.5,223.5z"/>
	</g>
	<circle fill="none" stroke="#FFFFFF" stroke-width="1.9227" stroke-miterlimit="10" cx="182.6" cy="66.8" r="4.2"/>
	<path fill="none" stroke="#FFFFFF" stroke-width="1.9227" stroke-miterlimit="10" d="M186.8,91.2c0,2.3-1.9,4.2-4.2,4.2
		c-2.3,0-4.2-1.9-4.2-4.2c0-2.3,1.9-4.2,4.2-4.2C184.9,87,186.8,88.9,186.8,91.2z"/>
	<circle fill="none" stroke="#FFFFFF" stroke-width="1.9227" stroke-miterlimit="10" cx="182.6" cy="115.5" r="4.2"/>
	<circle fill="none" stroke="#FFFFFF" stroke-width="1.9227" stroke-miterlimit="10" cx="182.6" cy="139.9" r="4.2"/>
	<circle fill="none" stroke="#FFFFFF" stroke-width="1.2818" stroke-miterlimit="10" cx="156.2" cy="98.7" r="2.8"/>
	<circle fill="none" stroke="#FFFFFF" stroke-width="1.2818" stroke-miterlimit="10" cx="139.7" cy="103" r="2.8"/>
	<circle fill="none" stroke="#FFFFFF" stroke-width="1.2818" stroke-miterlimit="10" cx="207.2" cy="98.1" r="2.8"/>
	<circle fill="none" stroke="#FFFFFF" stroke-width="1.2818" stroke-miterlimit="10" cx="226.2" cy="103" r="2.8"/>
	<g>
	</g>
	<g>
	</g>
	<g>
	</g>
	<g>
	</g>
	<g>
	</g>
	<g>
	</g>
	<g>
	</g>
	<g>
	</g>
	<g>
	</g>
	<g>
	</g>
	<g>
	</g>
	<g>
	</g>
	<g>
	</g>
	<g>
	</g>
	<g>
	</g>
</g>
</svg>
