<?xml version="1.0" encoding="utf-8"?>
<!-- Generator: Adobe Illustrator 17.1.0, SVG Export Plug-In . SVG Version: 6.00 Build 0)  -->
<!DOCTYPE svg PUBLIC "-//W3C//DTD SVG 1.1//EN" "http://www.w3.org/Graphics/SVG/1.1/DTD/svg11.dtd">
<svg version="1.1" id="Layer_1" xmlns="http://www.w3.org/2000/svg" xmlns:xlink="http://www.w3.org/1999/xlink" x="0px" y="0px"
	 viewBox="0 0 378 150.5" enable-background="new 0 0 378 150.5" xml:space="preserve">
<rect x="-0.5" y="0.5" display="none" width="378" height="150"/>
<g>
	<rect x="0" y="92" fill="none" width="378" height="45.9"/>
	<path fill="#FFFFFF" d="M5.6,136.6V92.1H29v8.5H16.3v8.8h11.3v8.5H16.3v18.7H5.6z"/>
	<path fill="#FFFFFF" d="M58.9,136.6c-0.2-2.2-0.7-4.4-1.5-6.5c-0.8-2.1-1.8-4.1-3-5.8c-1.2-1.8-2.6-3.3-4.2-4.6
		c-1.6-1.3-3.3-2.2-5-2.7v19.6H34.5V92.1h30.5c-0.1,2.3-0.4,4.4-1,6.4c-0.6,2-1.4,3.8-2.3,5.4c-0.9,1.6-2,3-3.1,4.2
		c-1.2,1.2-2.3,2.1-3.5,2.7c2,1,4,2.4,5.8,4.2c1.9,1.8,3.5,3.9,5,6.2c1.4,2.3,2.6,4.8,3.5,7.4c0.9,2.6,1.3,5.3,1.3,7.8H58.9z
		 M45.2,100.6v6.9c0.6-0.2,1.3-0.5,2-1c0.7-0.4,1.3-1,1.9-1.6c0.6-0.6,1-1.3,1.4-2c0.4-0.7,0.6-1.5,0.7-2.4H45.2z"/>
	<path fill="#FFFFFF" d="M98.8,136.6c-0.1-2.6-0.4-5-0.9-7.3H85.2v7.3H74.7v-45c3.3,0.3,6.4,1.1,9.4,2.6c3,1.4,5.8,3.3,8.3,5.5
		c2.6,2.3,4.9,4.8,6.9,7.7c2.1,2.9,3.8,6,5.3,9.2c1.5,3.2,2.6,6.6,3.4,10c0.8,3.4,1.2,6.7,1.2,10H98.8z M95.8,122
		c-1.3-3.2-2.8-6.2-4.7-8.9c-1.8-2.7-3.8-4.9-6-6.6V122H95.8z"/>
	<path fill="#FFFFFF" d="M156.5,136.6c-0.1-3-0.5-6-1-8.9s-1.3-5.6-2.3-8.1c-0.9-2.5-2-4.8-3.3-6.8c-1.3-2.1-2.7-3.8-4.3-5.3v29
		h-10.5c-0.1-3-0.5-6-1-8.9c-0.6-2.9-1.3-5.6-2.3-8.1c-1-2.5-2.1-4.8-3.4-6.8c-1.3-2.1-2.7-3.8-4.3-5.3v29h-10.7v-45
		c2.1,0.2,4.1,0.6,6.1,1.3c2,0.7,3.8,1.7,5.6,2.8c1.8,1.2,3.5,2.5,5.1,4.1c1.6,1.5,3.1,3.2,4.5,5V91.6c3.1,0.3,6.1,1.1,8.9,2.6
		c2.8,1.4,5.4,3.3,7.9,5.5c2.4,2.3,4.6,4.8,6.6,7.7c2,2.9,3.6,6,5,9.2c1.4,3.2,2.4,6.6,3.2,10c0.7,3.4,1.1,6.7,1.1,10H156.5z"/>
	<path fill="#FFFFFF" d="M194.2,137.1c-4-0.3-7.6-1.3-11-3.1c-3.4-1.8-6.3-4.1-8.7-6.8c-2.5-2.7-4.4-5.8-5.8-9.2
		c-1.4-3.4-2.1-6.7-2.1-10.1h6.2c-0.8-0.9-1.7-1.9-2.4-3.1c-0.8-1.2-1.5-2.4-2.1-3.8c-0.6-1.3-1.1-2.8-1.5-4.3
		c-0.4-1.5-0.6-3.1-0.6-4.7h28.9v8.5h-16.4c0.1,0.8,0.3,1.5,0.8,2.3c0.5,0.8,1,1.5,1.7,2.2c0.7,0.7,1.4,1.3,2.3,1.8
		c0.8,0.5,1.7,0.8,2.5,1h8.2v7.8h-14.8c0.4,1.4,1,2.8,1.9,4c0.9,1.2,1.9,2.3,3.2,3.3s2.7,1.8,4.3,2.4c1.6,0.6,3.4,1,5.4,1.2V137.1z"
		/>
	<path fill="#FFFFFF" d="M252.9,137.1c-4.2-0.4-8.1-1.7-11.7-4.1c-3.6-2.4-6.8-5.4-9.7-9.1v13.3c-3.1-0.3-6-1.1-8.8-2.6
		c-2.8-1.4-5.4-3.3-7.9-5.5c-2.4-2.3-4.6-4.8-6.6-7.7c-2-2.9-3.6-6-5-9.2c-1.4-3.3-2.4-6.6-3.2-10s-1.1-6.7-1.1-10h10.9
		c0.1,3.1,0.5,6,1,8.9c0.6,2.9,1.3,5.6,2.3,8.1c1,2.5,2.1,4.8,3.4,6.9c1.3,2.1,2.7,3.8,4.3,5.3V92h10.5c0.1,3.1,0.4,6,1,8.9
		c0.6,2.9,1.3,5.6,2.3,8.1c1,2.5,2.1,4.8,3.4,6.9c1.3,2.1,2.7,3.8,4.3,5.3V92h10.7V137.1z"/>
	<path fill="#FFFFFF" d="M259.2,136.6V92H292v44.5H259.2z M281.4,101.6h-11.6v25h11.6V101.6z"/>
	<path fill="#FFFFFF" d="M322.8,136.6c-0.2-2.2-0.7-4.4-1.5-6.5c-0.8-2.1-1.8-4.1-3-5.8c-1.2-1.8-2.6-3.3-4.2-4.6
		c-1.6-1.3-3.3-2.2-5-2.7v19.6h-10.7V92.1h30.5c-0.1,2.3-0.4,4.4-1,6.4c-0.6,2-1.4,3.8-2.3,5.4s-2,3-3.1,4.2
		c-1.2,1.2-2.3,2.1-3.5,2.7c2,1,4,2.4,5.9,4.2c1.9,1.8,3.5,3.9,5,6.2c1.4,2.3,2.6,4.8,3.4,7.4c0.9,2.6,1.3,5.3,1.3,7.8H322.8z
		 M309.1,100.6v6.9c0.6-0.2,1.3-0.5,2-1c0.7-0.4,1.3-1,1.9-1.6c0.6-0.6,1-1.3,1.4-2c0.4-0.7,0.6-1.5,0.7-2.4H309.1z"/>
	<path fill="#FFFFFF" d="M363.3,136.6c-0.1-2.3-0.6-4.7-1.3-7c-0.8-2.4-1.8-4.6-3-6.6c-1.2-2-2.7-3.8-4.3-5.4
		c-1.7-1.6-3.5-2.7-5.4-3.5v22.5h-10.7V92h10.7v12.1c0.7,0,1.5-0.3,2.3-1c0.9-0.7,1.7-1.6,2.5-2.7c0.8-1.1,1.6-2.4,2.3-3.9
		c0.7-1.4,1.3-2.9,1.8-4.5h10.7c-1,4.2-2.3,7.6-4,10.3c-1.7,2.7-3.7,4.7-6.1,6.1c2.6,1.4,4.9,3.3,6.9,5.5c2,2.2,3.6,4.6,4.9,7.2
		c1.3,2.6,2.2,5.2,2.9,7.9c0.6,2.7,1,5.2,1,7.5H363.3z"/>
</g>
<g>
	<rect x="0" y="10.3" fill="none" width="182.8" height="82.4"/>
	<path fill="#FFFFFF" d="M5.7,69.7V10.3h43.7v59.4H5.7z M35.3,23H19.9v33.4h15.4V23z"/>
	<path fill="#FFFFFF" d="M57.9,10.3H104c0,4.3-0.5,8.7-1.6,13.3c-1.1,4.5-2.6,9-4.5,13.3c-1.9,4.3-4.3,8.5-7,12.3
		c-2.7,3.9-5.8,7.3-9.2,10.3c-3.4,3-7.1,5.5-11.1,7.4s-8.2,3.1-12.6,3.4V10.3z M72,23.9v24c1.8-1.1,3.5-2.5,5.2-4.2
		c1.7-1.7,3.1-3.5,4.4-5.6c1.3-2.1,2.4-4.3,3.4-6.7c0.9-2.4,1.6-4.9,2-7.5H72z"/>
	<path fill="#FFFFFF" d="M109.6,69.7V10.3H124v59.4H109.6z"/>
	<path fill="#FFFFFF" d="M162.3,69.7c0-4.4-0.3-8.4-1-12c-0.7-3.7-1.7-7.1-3-10.3c-1.4-3.2-3-6.2-5-9c-2-2.8-4.3-5.6-7-8.3v39.7
		h-13.8V10.3h14.2c4.1,2.9,7.7,6.2,10.9,10c3.1,3.8,5.5,7.4,7.2,11v-21h12.4v59.4H162.3z"/>
</g>
<g>
</g>
<g>
</g>
<g>
</g>
<g>
</g>
<g>
</g>
<g>
</g>
<g>
</g>
<g>
</g>
<g>
</g>
<g>
</g>
<g>
</g>
<g>
</g>
<g>
</g>
<g>
</g>
<g>
</g>
</svg>
