<?xml version="1.0" encoding="utf-8"?>
<!-- Generator: Adobe Illustrator 17.1.0, SVG Export Plug-In . SVG Version: 6.00 Build 0)  -->
<!DOCTYPE svg PUBLIC "-//W3C//DTD SVG 1.1//EN" "http://www.w3.org/Graphics/SVG/1.1/DTD/svg11.dtd">
<svg version="1.1" id="Layer_1" xmlns="http://www.w3.org/2000/svg" xmlns:xlink="http://www.w3.org/1999/xlink" x="0px" y="0px"
	 viewBox="0 0 181.2 284.2" enable-background="new 0 0 181.2 284.2" xml:space="preserve">
<g>
	<path fill="#FFDEC7" d="M80.5,102.8c0,0-31.3,2.9-37.5,9.1c0,0-10.1,32.4-3.7,35.7l4.6,4.5l9,24.3c0,0,10.9-11.9,18.3-14.1
		l18.7,5.6l19.1-5.6c0,0,17.1,10.8,18.7,14.1l9.9-24.6c0,0,9.3-6,5.8-17.4l-5.9-23.6c0,0-27-8.9-38-8.1l2.3,48.8l-11.7,7.7
		l-11.6-7.7C78.3,151.7,80.6,105.4,80.5,102.8z"/>
	<path fill="#6B6765" d="M69.9,56.7c0,0-29.8,16.7-36.6,47c0,0,22.8-12.3,47.2-11.9l-2.6-29.8C77.9,62.1,72.8,55.9,69.9,56.7z"/>
	<path fill="#6B6765" d="M99.4,91.8c0,0,34.9,1.1,48.3,14.1c0,0-9.5-35-38.7-50.8l-6.9,6.9L99.4,91.8z"/>
	<path d="M47.6,73.3c0,0-14.7-16.1,4.9-23.8l-13.5-41c0,0-4,6.8-1.8,13.4L26.2,2.2c0,0-3,3.4,3.2,20.6c0,0-13.2-14.3-15.5-14.3
		c0,0,5.1,18.1,10.4,23.7L9.4,18.6c0,0,2.7,19.9,9.7,29.9c0,0-10.2-9-12.1-10.1c0,0,4.6,23,11.2,31.7L7,63.5c0,0,5.5,13.2,16.1,20.3
		c0,0-9.9-3.7-16.1-2.3c0,0,4.4,7.7,15.9,8.8c0,0-10.4,2.5-10.8,10.3c0,0,8.6-1.2,12.4-2.7c0,0-5.9,4.7-4.8,13.7c0,0,7.4-2.5,9-8
		c0,0-1.6,8,0.9,12.7l3.6-11.1l-1-1.6C32.3,103.7,38.6,84.7,47.6,73.3z"/>
	<path d="M132.6,73.9c0,0,14.1,19,15.1,29.8l2.6,12.4c0,0,3.8-3.1,2.7-10.6c0,0,4.1,5,8.6,6.1c0,0,0.8-10-5.3-14
		c0,0,10.8,3.9,13.1,3c0,0-0.4-8.5-11-10.3c0,0,12-0.7,16.3-8.8c0,0-7.8-2-18.1,3.4c0,0,18.1-12.1,18.1-21.7l-11.4,6.9
		c0,0,10.6-17.4,11.4-31.7l-12.4,10.1c0,0,10-19,9.9-29.9l-14.8,13c0,0,7.3-7.4,10.3-23.1c0,0-15.1,11.9-15.9,14.3
		c0,0,5.3-12.2,3.3-20.6L144.3,22c0,0,1-9.5-2.3-13.6l-13.9,41C128.1,49.5,148.5,55.8,132.6,73.9z"/>
	<g>
		<g>
			<g>
				<path fill="#EDE6E4" d="M173.4,200.6c0,0-11.3-8.1-3.4-22.5c7.9-14.4-18.9-53.1-18.7-57.6c0,0-7.3-8.2-13.6-8.5
					c0,0,11.4,31.4,2.2,37.5c0,0-3.3,1.6-12.1,26.4c0,0-15.3-12.8-17.9-12.8c0,0,2.4-1.8-19.5,5l-19.3-5.6c0,0-13.4,6.8-18.3,14.1
					l-9-24c0,0-14-6.9-0.9-40.6c0,0-11,3.3-13.3,8.5c0,0-20.1,45.6-20.1,51c0,5.4,12.7,20.6-1.5,29.1l10.8-2.3c0,0-11,16.7,0,28.2
					c11,11.6,13.9,11.1,12.8,19.5l3.2-5.3c0,0,5.6,22.6,37,31.5l-3-6.3c0,0,18,12.6,20.8,17.9c0,0,9.2-10.9,21.4-17.9l-3.1,6.3
					c0,0,36.1-13,37.9-31.5l3.3,5.3c0,0-0.5-10.6,13.1-19.5c13.6-8.9,0-28.2,0-28.2L173.4,200.6z"/>
			</g>
		</g>
	</g>
	<g>
		<g>
			<g>
				<path fill="#FFDEC7" d="M89.2,176.6c-3.9-0.9-18,9.9-18,9.9c10.3,31.7,11.7,4.3,11.7,4.3h13.7c3.4,26.8,12.3-4.3,12.3-4.3
					C100.4,178.6,93.1,177.5,89.2,176.6z"/>
			</g>
		</g>
	</g>
	<path fill="#EDE6E4" d="M79.9,114.3c0,0,0.6,8.5-2.7,11.1l-23.1-5.1c0,0-8.3,2.4-9,4.2l3.9-7.9l-3.9,0.5l7.4-6.2
		C52.4,111,79.4,119.7,79.9,114.3z"/>
	<path fill="#EDE6E4" d="M100,114.3c0,0,0.4,5.5,28.1-3.3l6.6,5.4l-3.1,0.2l3.4,8.3c0,0-1.9-9.8-30.6,0.5
		C104.4,125.4,99.1,125.6,100,114.3z"/>
	<path fill="#84726A" d="M107.3,53.9c0,0-17.1-13.5-36.1,1.3l6.8,6.9c0,0,6.6,47.8,0.4,89.6l10.9,8.2l12.5-8.2
		c0,0-5.9-62.4,0.4-89.6C102,62.1,111,52.7,107.3,53.9z"/>
	<path fill="#84726A" d="M33.7,105l-2.9,12.8c0,0,16.3-13.2,49.1-14.9V92.4C80,92.4,52.6,92.6,33.7,105z"/>
	<path fill="#84726A" d="M99.9,92.4c0,0,33.1,1.4,47.6,14.1l2.6,11.7c0,0-13.7-13.9-50.2-15.3V92.4z"/>
	<path fill="#FFFCFA" d="M104.2,126.2c0,0,5.6-2.3,17.3-4.9c0,0,6.8,5.1,7.2,8.2C128.7,129.4,115.6,136.4,104.2,126.2z"/>
	<path fill="#00A1E0" d="M110.7,129.8c0,0,3.7,3,11.1,1.2c0,0,1.4-5.8-5.2-6.5C109.9,123.8,110.7,129.8,110.7,129.8z"/>
	<g>
		<circle fill="#CEC7C2" cx="89.4" cy="67.8" r="4.2"/>
		<circle fill="#CEC7C2" cx="89.4" cy="92.2" r="4.2"/>
		<circle fill="#CEC7C2" cx="89.4" cy="116.7" r="4.2"/>
		<circle fill="#CEC7C2" cx="89.4" cy="140.5" r="4.2"/>
		<circle fill="#CEC7C2" cx="133.1" cy="104.1" r="2.7"/>
		<circle fill="#CEC7C2" cx="114.1" cy="99.2" r="2.7"/>
		<circle fill="#CEC7C2" cx="63.4" cy="99.8" r="2.7"/>
		<circle fill="#CEC7C2" cx="46.3" cy="104.1" r="2.7"/>
		<path fill="#CEC7C2" d="M93.1,52.8h-8.4c0,0,1.9-7.7,4.2-8.7C91.2,43.2,93.1,52.8,93.1,52.8z"/>
	</g>
	<g>
		<path fill="none" stroke="#382510" stroke-width="2.4452" stroke-miterlimit="10" d="M130.9,75c0,0,17.3-17.1-3.4-25.5l13.9-41
			c0,0,4.6,6.1,1.4,15.3l11.7-21.6c0,0,3.3,3.1-3.3,20.6c0,0,13.4-14.3,15.9-14.3c0,0-1.6,11.3-11.7,25.2l16.2-15.1
			c0,0-1.4,15-9.9,29.9c0,0,8.7-7.8,12.4-10.1c0,0-1.2,14.5-11.4,31.7l11.4-6.9c0,0-2,11.3-19.1,22.4c0,0,9.7-6.3,19.1-4.1
			c0,0-2,6.5-16.3,8.8c0,0,10.6,1.9,11,10.3c0,0-5.3,0-13.9-3.4c0,0,7.3,3.4,6.1,14.5c0,0-6.9-2.7-8.6-6.1c0,0,0.6,6.9-2.3,12.3"/>
		<g>
			<g>
				<path fill="#3D3936" d="M107.3,57.3c18.9,7.3,32.4,28.3,38.1,47.2c0.6,1.9,3.5,1.1,2.9-0.8c-6-20-19.9-41.5-40.3-49.4
					C106.2,53.7,105.4,56.6,107.3,57.3L107.3,57.3z"/>
			</g>
		</g>
		<g>
			<path fill="#727272" d="M150.7,120.5l4.6,8.5l4.5,8.5l4.4,8.6c0.7,1.4,1.5,2.9,2.1,4.3c0.6,1.5,1.3,2.9,2,4.4l-0.1-0.2
				c0.6,1,1.1,1.9,1.5,2.9c0.5,1,0.9,1.9,1.3,2.9c0.2,0.5,0.4,1,0.5,1.5c0.2,0.5,0.3,1,0.5,1.5c0.3,1,0.5,2.1,0.8,3.2
				c0.2,1.1,0.3,2.2,0.3,3.3c0,0.6,0,1.1,0,1.7c0,0.6,0,1.1-0.1,1.7c-0.1,0.6-0.2,1.1-0.3,1.7l-0.5,1.7c-0.2,0.6-0.5,1.1-0.7,1.6
				l-0.4,0.7l-0.4,0.7L170,181l-0.5,1.3l-0.3,0.6l-0.2,0.7c-0.1,0.4-0.3,0.9-0.4,1.3l-0.3,1.3l-0.1,1.3c0,0.9,0,1.8,0.1,2.7
				c0.1,0.9,0.4,1.7,0.7,2.6c0.1,0.4,0.4,0.8,0.5,1.2c0.2,0.4,0.5,0.8,0.7,1.2c0.5,0.7,1.1,1.5,1.7,2.1c0.6,0.7,1.4,1.2,2.1,1.8
				l6.5,4.9l-7.9-1.6l-11.1-2.3l1.9-2.8c0.7,1.1,1.3,2.1,1.9,3.2c0.6,1.1,1.1,2.2,1.6,3.3c1,2.2,1.7,4.6,2.2,7
				c0.2,1.2,0.4,2.5,0.4,3.8c0,1.3-0.1,2.6-0.3,3.9c-0.3,1.3-0.7,2.6-1.2,3.8c-0.6,1.2-1.3,2.3-2.2,3.3c-0.4,0.5-0.9,0.9-1.4,1.4
				c-0.5,0.4-1,0.8-1.5,1.3c-0.9,0.6-1.8,1.3-2.7,2c-1.7,1.4-3.4,3-4.9,4.6c-1.5,1.6-2.8,3.4-3.7,5.3c-0.9,1.9-1.4,3.8-1.1,5.7
				l0.6,3.6l-3.2-1.6c-0.3-0.2-0.4-0.2-0.6-0.4c-0.2-0.1-0.3-0.2-0.4-0.3c-0.3-0.2-0.5-0.5-0.8-0.7c-0.2-0.3-0.4-0.5-0.6-0.8
				c-0.2-0.3-0.4-0.6-0.5-0.8c-0.2-0.3-0.3-0.6-0.4-0.9l-0.4-0.9c-0.1-0.3-0.2-0.6-0.3-0.9l-0.2-0.9l3.6-0.1
				c-0.1,0.7-0.3,1.2-0.4,1.8c-0.1,0.6-0.4,1.1-0.5,1.7c-0.4,1.1-0.9,2.1-1.4,3.1c-0.5,1-1.1,2-1.7,2.9c-0.6,1-1.3,1.8-1.9,2.8
				c-0.7,0.9-1.4,1.7-2.2,2.6c-0.8,0.8-1.6,1.6-2.4,2.4c-0.8,0.8-1.7,1.5-2.5,2.2c-0.4,0.4-0.8,0.7-1.3,1.1l-1.3,1
				c-0.9,0.6-1.8,1.3-2.7,1.9l-2.8,1.7c-0.9,0.6-1.9,1.1-2.9,1.6l-2.9,1.5c-1,0.5-2,0.9-3,1.3c-1,0.4-2,0.9-3,1.3l-6.2,2.2l-5.2,1.9
				l3.2-4.7l0.2-0.3c0.1-0.1,0.1-0.2,0.2-0.3l0.4-0.7c0.3-0.5,0.5-1,0.7-1.4c0.1-0.2,0.3-0.5,0.4-0.7l0.3-0.7l0.7-1.5l2.6,1.9
				c-4,2.5-8,5.1-11.8,7.7c-1.9,1.3-3.8,2.7-5.7,4.2c-0.9,0.7-1.8,1.5-2.7,2.3c-0.4,0.4-0.8,0.8-1.2,1.3c-0.4,0.5-0.8,0.9-0.9,1.5
				c0.1-0.6,0.4-1.1,0.7-1.6c0.3-0.5,0.7-1,1.1-1.4c0.8-0.9,1.6-1.8,2.4-2.7c1.7-1.7,3.4-3.3,5.2-4.9c1.8-1.6,3.6-3.1,5.4-4.6
				c1.8-1.5,3.7-3,5.6-4.5l4.2-3.3l-1.6,5.1l-0.6,1.8l-0.3,0.9c-0.1,0.3-0.3,0.6-0.4,0.9c-0.1,0.3-0.3,0.6-0.4,0.9
				c-0.2,0.3-0.3,0.6-0.5,0.8l-0.5,0.8c-0.1,0.1-0.2,0.3-0.3,0.4l-0.3,0.4l-2-2.9l5.9-2.1c1-0.4,1.9-0.8,2.9-1.2
				c1-0.4,1.9-0.8,2.9-1.3l2.8-1.4c0.9-0.5,1.9-0.9,2.7-1.5l2.7-1.6c0.9-0.5,1.7-1.2,2.5-1.8l1.3-0.9c0.4-0.3,0.8-0.7,1.2-1
				c0.8-0.7,1.6-1.3,2.3-2c0.7-0.7,1.5-1.4,2.2-2.2l2-2.3c0.6-0.8,1.2-1.6,1.8-2.5c0.5-0.9,1.1-1.7,1.5-2.6c0.5-0.9,0.9-1.8,1.2-2.7
				c0.1-0.5,0.4-0.9,0.5-1.4c0.1-0.4,0.3-1,0.3-1.3l1.4-8.4l2.2,8.2l0.2,0.7c0.1,0.2,0.1,0.4,0.2,0.6l0.2,0.6
				c0.1,0.2,0.2,0.4,0.3,0.6c0.1,0.2,0.2,0.4,0.3,0.5c0.1,0.1,0.2,0.3,0.4,0.5c0.1,0.1,0.3,0.3,0.4,0.4c0.1,0,0.1,0.1,0.2,0.2
				c0,0,0.2,0.1,0.1,0.1l-2.6,2c-0.2-1.4-0.2-2.8,0.1-4.1c0.3-1.3,0.7-2.6,1.3-3.7c1.1-2.3,2.6-4.3,4.2-6.1c1.6-1.8,3.4-3.5,5.3-5
				c0.9-0.8,1.9-1.5,2.9-2.2c0.3-0.3,0.8-0.6,1.2-0.9c0.4-0.4,0.8-0.7,1.1-1.1c0.7-0.7,1.2-1.6,1.7-2.5c0.4-0.9,0.7-1.9,0.9-2.9
				c0.2-1,0.3-2,0.2-3.1c0-1.1-0.2-2.1-0.3-3.2c-0.4-2.1-1.1-4.2-2-6.3c-0.4-1-0.9-2-1.4-3c-0.5-1-1.1-2-1.7-2.8l-2.5-3.8l4.4,0.9
				l11.1,2.3l-1.4,3.3c-0.9-0.7-1.8-1.4-2.6-2.2c-0.8-0.8-1.5-1.7-2.2-2.6c-0.3-0.5-0.6-1-0.9-1.5c-0.2-0.5-0.5-1-0.7-1.6
				c-0.4-1.1-0.7-2.2-0.9-3.4c-0.2-1.1-0.2-2.3-0.1-3.4l0.2-1.7l0.4-1.7c0.1-0.6,0.3-1.1,0.5-1.6l0.3-0.8l0.3-0.8l0.7-1.6l0.7-1.3
				l0.4-0.7l0.1-0.1l0-0.1l0.1-0.1l0.1-0.3c0.2-0.4,0.4-0.8,0.5-1.2l0.4-1.3c0.1-0.4,0.1-0.9,0.2-1.3c0.1-0.4,0.1-0.9,0.1-1.4
				c0-0.5,0-0.9,0-1.4c0-0.9-0.2-1.9-0.3-2.8c-0.2-0.9-0.4-1.9-0.7-2.8c-0.1-0.5-0.3-0.9-0.4-1.4c-0.1-0.5-0.3-0.9-0.5-1.4
				c-0.3-0.9-0.7-1.8-1.2-2.7c-0.4-0.9-0.9-1.8-1.3-2.5l-0.1-0.1l0-0.1c-0.7-1.5-1.3-2.9-2-4.4c-0.7-1.4-1.3-2.9-1.9-4.4l-3.5-9
				l-3.5-9L150.7,120.5z"/>
		</g>
		<path fill="none" stroke="#C6774F" stroke-width="1.8339" stroke-miterlimit="10" d="M123,172.1c0,0-18.2-28.6-27.1-16.6"/>
		<path fill="none" stroke="#C6774F" stroke-width="2.4452" stroke-miterlimit="10" d="M136.8,111c0,0,11.5,32,2.5,38.5
			c-9,6.5-17,22.7-17,22.7"/>
		<path fill="none" stroke="#C6774F" stroke-width="1.8339" stroke-miterlimit="10" d="M136.9,152c0,0-8.6,20-9.9,24.6"/>
		<path fill="none" stroke="#727272" stroke-width="2.4452" stroke-miterlimit="10" d="M120.1,197.2c0,0-5.2,5.7,1.7,16.4
			c0,0,17.8-3.7,6.9-16.4"/>
		<path fill="none" stroke="#727272" stroke-width="2.4452" stroke-miterlimit="10" d="M121.8,213.6c0,0-7.5,4.2,3,12.2
			c0,0,7.9-2.6,2.8-14.4"/>
		<path fill="none" stroke="#382510" stroke-width="2.4452" stroke-miterlimit="10" d="M89.2,180.8"/>
		<path fill="none" stroke="#C6774F" stroke-width="2.4452" stroke-miterlimit="10" d="M106.7,190.7c0,0-12.1,0-17.5,0"/>
		<path fill="none" stroke="#727272" stroke-width="1.8339" stroke-miterlimit="10" d="M99.4,114.3c0,0-0.9,9.3,2.8,11.1
			c0,0,15.9-3.8,22-5c6.1-1.1,12.1,6.5,12.1,6.5l-5.3-10.3l5.3,1.5l-8.8-7.2c0,0-12.3,2.6-17.4,4.1
			C105.1,116.6,102.1,116.2,99.4,114.3z"/>
		<path fill="none" stroke="#2C5577" stroke-width="1.2226" stroke-miterlimit="10" d="M110.2,129.8c0,0,0-5.4,5.8-5.3
			c5.8,0.2,5.2,6.5,5.2,6.5"/>
		<path fill="#382510" d="M94.8,166.6c0,0,4.4-0.7,5-1.9c0.6-1.1-7.5-7.5-6.7-3.7C93.9,164.9,94.8,166.6,94.8,166.6z"/>
		<path d="M113.3,130.5c0,0-0.1-3,2-3c3.3,0,2.2,3.4,2.2,3.4"/>
		<path fill="none" stroke="#382510" stroke-width="2.4452" stroke-miterlimit="10" d="M48.5,75c0,0-16.9-17.1,3.4-25.5l-13.5-41
			c0,0-4.5,5.8-1.4,15L25.6,2.2c0,0-3.2,3.1,3.2,20.6c0,0-13.1-14.3-15.5-14.3c0,0,1.6,11.3,11.4,25.2L8.9,18.6c0,0,1.3,15,9.7,29.9
			c0,0-8.5-7.8-12.1-10.1c0,0,1.2,14.5,11.2,31.7L6.5,63.2c0,0,1.9,11.3,18.7,22.4c0,0-9.5-6.3-18.7-4.1c0,0,2,6.5,15.9,8.8
			c0,0-10.4,1.9-10.8,10.3c0,0,5.2,0,13.5-3.4c0,0-7.2,3.4-6,14.5c0,0,6.8-2.7,8.4-6.1c0,0-0.5,6.9,2.2,12.3"/>
		<path fill="none" stroke="#382510" stroke-width="1.8339" stroke-miterlimit="10" d="M89.3,52.5h-4.6c0,0,0.2-4.9,4.2-8.7
			c0,0,3.8,3.6,4.2,8.7H89.3z"/>
		<g>
			<g>
				<path fill="#3D3936" d="M70.8,54.4C50.6,62,37.1,83.6,31.3,103.3c-0.6,1.9,2.4,2.7,2.9,0.8c5.5-18.6,18.4-39.6,37.4-46.8
					C73.5,56.7,72.7,53.7,70.8,54.4L70.8,54.4z"/>
			</g>
		</g>
		<g>
			<path fill="#727272" d="M89.2,283.7c-0.2-0.6-0.5-1-0.9-1.5c-0.4-0.4-0.8-0.8-1.2-1.2c-0.8-0.8-1.7-1.5-2.6-2.2
				c-1.8-1.4-3.7-2.8-5.6-4.1c-3.8-2.6-7.6-5.1-11.5-7.5l2.6-1.9l0.7,1.5l0.3,0.7c0.1,0.3,0.2,0.5,0.4,0.7c0.1,0.2,0.3,0.5,0.4,0.7
				c0.1,0.2,0.2,0.5,0.4,0.7l0.4,0.7c0.1,0.1,0.1,0.2,0.2,0.3l0.2,0.3l3.1,4.8l-5.2-1.9l-6.1-2.2l-3-1.3c-1-0.4-2-0.9-3-1.3
				l-2.9-1.5c-1-0.5-1.9-1-2.8-1.6l-2.8-1.7c-0.9-0.6-1.8-1.3-2.6-1.9l-1.3-1l-1.2-1.1c-0.8-0.7-1.7-1.4-2.4-2.2
				c-0.8-0.8-1.6-1.6-2.3-2.4c-0.7-0.9-1.4-1.7-2.1-2.6c-0.6-0.9-1.3-1.8-1.9-2.7c-0.6-1-1.2-1.9-1.6-2.9c-0.5-1-0.9-2-1.3-3.1
				c-0.2-0.5-0.4-1.1-0.5-1.6c-0.2-0.6-0.3-1.1-0.4-1.8l3.6,0.1l-0.2,0.9c-0.1,0.3-0.1,0.6-0.3,0.9l-0.4,0.9
				c-0.1,0.3-0.3,0.6-0.4,0.9c-0.2,0.3-0.3,0.6-0.5,0.8l-0.3,0.4c-0.1,0.1-0.2,0.3-0.3,0.4c-0.3,0.2-0.5,0.5-0.8,0.7
				c-0.1,0.1-0.3,0.2-0.4,0.3c-0.2,0.1-0.3,0.2-0.6,0.4l-3.2,1.6l0.6-3.6c0.3-1.8-0.1-3.8-1-5.7c-0.9-1.9-2.2-3.7-3.6-5.3
				c-1.4-1.7-3.1-3.2-4.8-4.6c-0.8-0.7-1.7-1.4-2.6-2l-0.2-0.2l-0.1-0.1l-0.2-0.1l-0.3-0.3c-0.2-0.2-0.4-0.3-0.7-0.6
				c-0.5-0.5-1-1-1.4-1.5c-0.9-1-1.6-2.1-2.1-3.3c-0.6-1.2-0.9-2.5-1.2-3.7c-0.5-2.6-0.3-5.1,0.1-7.6c0.5-2.4,1.2-4.8,2.2-7
				c0.5-1.1,1-2.2,1.5-3.3c0.6-1.1,1.1-2.1,1.9-3.2l1.9,2.8l-10.8,2.3L0.2,204l6.3-4.9c0.7-0.6,1.4-1.1,2.1-1.8
				c0.6-0.6,1.2-1.4,1.7-2.1c0.2-0.4,0.5-0.8,0.7-1.2c0.2-0.4,0.4-0.8,0.5-1.2c0.3-0.8,0.5-1.7,0.7-2.6c0.1-0.9,0.1-1.8,0.1-2.7
				l-0.1-1.3l-0.3-1.3c-0.1-0.4-0.3-0.9-0.4-1.3l-0.2-0.7l-0.3-0.7l-0.6-1.3l-0.7-1.3L9.3,179l-0.1-0.2l0-0.1L9,178.6l-0.2-0.3
				l-0.3-0.7c-0.1-0.2-0.2-0.4-0.3-0.8c-0.2-0.6-0.4-1.2-0.6-1.8c-0.1-0.6-0.2-1.1-0.3-1.7c-0.1-0.6-0.1-1.1-0.1-1.7l0-0.8l0-0.8
				c0-1.1,0.2-2.2,0.3-3.3c0.2-1.1,0.4-2.1,0.7-3.2c0.1-0.5,0.3-1,0.5-1.5c0.2-0.5,0.3-1,0.5-1.5c0.4-1,0.8-2,1.2-2.9
				c0.5-1,0.9-1.9,1.5-2.9l-0.1,0.2c0.6-1.5,1.3-2.9,1.9-4.4c0.6-1.5,1.3-2.9,2.1-4.3l4.4-8.6l4.4-8.5l4.5-8.5l-3.3,9l-3.4,9l-3.4,9
				c-0.6,1.5-1.1,3-1.8,4.4c-0.7,1.4-1.3,2.9-2,4.4l0,0.1l-0.1,0.1c-0.4,0.8-0.9,1.7-1.3,2.5c-0.4,0.9-0.8,1.8-1.1,2.7
				c-0.2,0.5-0.3,0.9-0.5,1.4c-0.2,0.5-0.3,0.9-0.4,1.4c-0.3,0.9-0.5,1.9-0.7,2.8c-0.1,0.9-0.3,1.9-0.3,2.8l0,0.7l0,0.7
				c0,0.5,0,0.9,0.1,1.4l0.2,1.3c0.1,0.4,0.2,0.8,0.3,1.2c0,0.2,0.1,0.4,0.3,0.6l0.3,0.7l0.2,0.3l0.1,0.2l0,0.1l0,0
				c0,0-0.1-0.2-0.1-0.1l0,0l0,0l0.4,0.7l0.8,1.4l0.6,1.5l0.3,0.8l0.3,0.8c0.2,0.5,0.4,1,0.5,1.6l0.3,1.6c0.1,0.6,0.1,1.1,0.2,1.7
				c0.1,1.1,0,2.3-0.1,3.4c-0.2,1.1-0.5,2.3-0.9,3.3c-0.2,0.5-0.5,1.1-0.7,1.6c-0.3,0.5-0.6,1-0.9,1.5c-0.6,0.9-1.3,1.9-2.1,2.7
				c-0.8,0.8-1.6,1.5-2.5,2.2l-1.5-3.3l10.8-2.3l4.4-0.9l-2.5,3.7c-0.6,0.8-1.1,1.9-1.6,2.8c-0.5,1-1,2-1.4,3
				c-0.9,2-1.5,4.1-1.9,6.2c-0.4,2.1-0.5,4.2-0.1,6.2c0.2,1,0.5,2,0.9,2.9c0.4,0.9,0.9,1.8,1.6,2.5c0.3,0.4,0.7,0.7,1,1.1
				c0.1,0.2,0.4,0.4,0.6,0.5l0.6,0.5c1,0.7,1.9,1.5,2.9,2.2c1.8,1.5,3.6,3.2,5.2,5c1.6,1.8,3.1,3.8,4.2,6.2c0.5,1.2,1,2.4,1.2,3.7
				c0.3,1.3,0.3,2.7,0.1,4.1l-2.6-2c-0.1,0,0,0,0.1-0.1c0.1,0,0.1-0.1,0.2-0.2c0.1-0.1,0.3-0.3,0.4-0.4c0.1-0.1,0.2-0.3,0.4-0.5
				c0.1-0.1,0.2-0.4,0.3-0.5c0.1-0.2,0.2-0.4,0.3-0.6l0.2-0.6c0.1-0.2,0.1-0.4,0.2-0.6l0.2-0.7l2.2-8.4l1.4,8.5
				c0.1,0.3,0.2,0.8,0.3,1.3c0.1,0.5,0.3,0.9,0.4,1.4c0.4,0.9,0.7,1.8,1.2,2.7c0.4,0.9,1,1.7,1.5,2.6c0.5,0.9,1.1,1.6,1.7,2.5
				c0.6,0.8,1.3,1.6,1.9,2.3c0.7,0.8,1.4,1.5,2.1,2.2c0.7,0.7,1.5,1.4,2.3,2l1.2,1l1.2,0.9c0.8,0.6,1.6,1.2,2.5,1.8l2.6,1.6
				c0.9,0.6,1.8,1,2.7,1.5l2.7,1.4c0.9,0.5,1.9,0.8,2.8,1.3l2.8,1.2l5.9,2.1l-2,2.9l-0.3-0.4c-0.1-0.1-0.2-0.3-0.3-0.4l-0.5-0.8
				c-0.2-0.3-0.3-0.6-0.4-0.8c-0.1-0.3-0.3-0.6-0.4-0.9c-0.1-0.3-0.3-0.6-0.4-0.9l-0.3-0.9l-0.6-1.8l-1.6-5.1l4.1,3.2
				c1.9,1.4,3.7,2.9,5.5,4.3c1.8,1.5,3.6,3,5.3,4.5c1.7,1.5,3.4,3.1,5.1,4.8c0.8,0.8,1.6,1.7,2.3,2.6c0.4,0.5,0.7,0.9,1,1.4
				C88.8,282.6,89.1,283.1,89.2,283.7z"/>
		</g>
		<path fill="none" stroke="#C6774F" stroke-width="1.8339" stroke-miterlimit="10" d="M56.3,171.5c0,0,17.4-28.3,26.1-16.3"/>
		<path fill="none" stroke="#C6774F" stroke-width="2.4452" stroke-miterlimit="10" d="M42.8,111c0,0-11.2,32-2.5,38.5
			c7.5,5.6,17.8,24.6,16.6,22"/>
		<path fill="none" stroke="#C6774F" stroke-width="1.8339" stroke-miterlimit="10" d="M42.7,152c0,0,8.4,20,9.6,24.6"/>
		<path fill="none" stroke="#727272" stroke-width="2.4452" stroke-miterlimit="10" d="M59.1,197.2c0,0,5.1,5.7-1.7,16.4
			c0,0-17.4-3.7-6.7-16.4"/>
		<path fill="none" stroke="#727272" stroke-width="2.4452" stroke-miterlimit="10" d="M57.4,213.6c0,0,7.4,4.2-2.9,12.2
			c0,0-7.8-2.6-2.7-14.4"/>
		<g>
			<path fill="#727272" d="M57.5,222.5c0.8,0.4,1.5,0.9,2.2,1.4c0.3,0.3,0.7,0.5,1,0.8c0.3,0.3,0.7,0.6,0.9,0.9
				c0.3,0.3,0.6,0.7,0.9,1c0.3,0.4,0.5,0.8,0.8,1.2c0.2,0.5,0.4,1,0.5,1.6c0.1,0.3,0,0.7,0,1.1l-0.1,0.8c-0.1,0.4-0.2,0.8-0.3,1.2
				l-0.4,1.3c-0.1,0.5-0.3,0.9-0.5,1.3c-0.2,0.4-0.3,0.8-0.5,1.2c-0.4,0.8-0.8,1.5-1.2,2.3c-0.2,0.4-0.4,0.7-0.7,1.1
				c-0.2,0.4-0.5,0.7-0.8,1.1l-1.7,2.4l-1.7-2.2l-0.7-0.9l-0.7-0.9c-0.5-0.6-0.8-1.2-1.2-1.9c-0.4-0.7-0.8-1.3-1.1-2
				c-0.3-0.7-0.6-1.5-0.9-2.3c-0.1-0.4-0.2-0.9-0.2-1.4l0-0.4l0-0.3l0.1-0.5c0.1-0.7,0.2-1.4,0.3-2.2c0.1-0.7,0.2-1.4,0.4-2.2
				c0.2-0.7,0.4-1.5,0.6-2.2l0.2,0l0,2.2c0,0.7,0,1.4,0,2.2l0,2.2c0,0.4,0,0.7,0.1,1.1c0,0.3,0.2,0.7,0.3,1c0.5,1.3,1.3,2.5,2.1,3.7
				c0.8,1.2,1.7,2.3,2.6,3.4l-0.4,0c0.9-1.4,1.8-2.8,2.5-4.2c0.2-0.4,0.4-0.7,0.5-1.1c0.2-0.4,0.4-0.7,0.5-1.1l0.5-1.1l0.4-1.2
				c0.1-0.4,0.2-0.8,0.2-1.1c0-0.4-0.1-0.8-0.3-1.1c-0.1-0.4-0.3-0.7-0.5-1.1c-0.2-0.4-0.4-0.7-0.6-1c-0.9-1.4-2-2.6-3.1-3.8
				L57.5,222.5z"/>
		</g>
		<line fill="none" stroke="#C6774F" stroke-width="1.8339" stroke-miterlimit="10" x1="102.2" y1="182.3" x2="76" y2="182.4"/>
		<path fill="none" stroke="#C6774F" stroke-width="2.4452" stroke-miterlimit="10" d="M72.2,190.7c0,0,11.8,0,17.1,0"/>
		<path fill="none" stroke="#727272" stroke-width="1.8339" stroke-miterlimit="10" d="M79.3,114.3c0,0,1.3,6.6-2.7,11.1
			c0,0-15.5-3.8-21.5-5c-6-1.1-11.8,6.5-11.8,6.5l5.2-10.3l-5.2,1.5l8.6-7.2c0,0,12,2.6,17,4.1C73.8,116.6,76.6,116.2,79.3,114.3z"
			/>
		<path fill="#44302E" d="M77.8,125.3c-3.3,4.5-7.6,7.4-7.6,7.4s-9.9,6.8-20.3-5.5c0,0,2-8.8,10.1-5.6"/>
		<g>
			<path fill="#C6774F" d="M48.6,135.7l1.6,1.2l0.8,0.5c0.3,0.2,0.5,0.4,0.8,0.5c0.6,0.3,1.1,0.7,1.7,0.9l0.9,0.4l0.9,0.3
				c0.3,0.1,0.6,0.2,0.9,0.3c0.3,0.1,0.6,0.2,0.9,0.2c0.3,0,0.6,0.1,0.9,0.1c0.3,0,0.6,0.1,0.9,0c0.6,0,1.2,0,1.8-0.2
				c0.3-0.1,0.6-0.1,0.9-0.2c0.3-0.1,0.6-0.2,0.8-0.3l0,0l0.1,0c0.5-0.2,1.1-0.5,1.6-0.8c0.5-0.3,1.1-0.6,1.6-0.9c1-0.6,2-1.4,3-2.1
				l1.4-1.2l1.4-1.2L73,132c0.5-0.4,1.1-0.8,1.6-1.2l6.5-4.6l-4.9,6.5l-2.4,3.1l-1.2,1.6c-0.4,0.5-0.8,1.1-1.2,1.6
				c-0.4,0.5-0.7,1.1-1.1,1.6c-0.4,0.5-0.7,1.1-1.1,1.7l-0.5,0.8c-0.2,0.3-0.4,0.6-0.5,0.9c-0.3,0.6-0.6,1.2-0.9,1.8l-0.2-0.1
				c0.1-0.7,0.2-1.3,0.3-2c0.1-0.7,0.4-1.3,0.6-2c0.1-0.3,0.2-0.7,0.3-1l0.4-0.9c0.3-0.6,0.6-1.3,0.9-1.9c0.6-1.2,1.3-2.4,2.1-3.5
				c0.8-1.1,1.5-2.2,2.4-3.3l1.6,1.8l-1.5,0.9l-1.5,1.1l-1.5,1.1c0,0-0.2,0.1-0.1,0.1l-0.2,0.2l-0.4,0.3l-0.8,0.6
				c-1.1,0.7-2.2,1.4-3.3,2.1c-0.6,0.3-1.1,0.6-1.7,0.9c-0.6,0.3-1.2,0.5-1.8,0.8l0.1,0c-0.4,0.2-0.7,0.3-1.1,0.4
				c-0.3,0.1-0.7,0.2-1.1,0.2c-0.7,0.1-1.4,0.1-2.1,0.1c-0.3,0-0.7-0.1-1-0.1c-0.3,0-0.7-0.1-1-0.2c-0.3-0.1-0.7-0.2-1-0.3
				c-0.3-0.1-0.7-0.2-1-0.4l-0.9-0.4l-0.9-0.5c-0.6-0.3-1.1-0.7-1.7-1.1c-0.3-0.2-0.5-0.4-0.8-0.6l-0.8-0.6l-1.4-1.4L48.6,135.7z"/>
		</g>
		<path fill="#382510" d="M83.9,166.6c0,0-4.3-0.7-4.9-1.9c-0.6-1.1,7.4-7.5,6.6-3.7C84.7,164.9,83.9,166.6,83.9,166.6z"/>
		<g>
			<path fill="#C6774F" d="M130.1,136.2l-1.4,1.3l-0.8,0.6c-0.3,0.2-0.5,0.4-0.8,0.6c-0.5,0.3-1.1,0.8-1.7,1.1l-0.9,0.5l-0.9,0.4
				c-0.3,0.1-0.6,0.2-0.9,0.3c-0.3,0.1-0.6,0.2-1,0.3c-0.3,0.1-0.7,0.2-1,0.2c-0.3,0-0.7,0.1-1,0.1c-0.7,0-1.4,0-2-0.1
				c-0.3,0-0.7-0.1-1-0.2c-0.3-0.1-0.7-0.2-1.1-0.4l0.1,0c-0.6-0.2-1.2-0.5-1.8-0.7c-0.6-0.3-1.1-0.5-1.7-0.8
				c-1.1-0.6-2.2-1.3-3.2-2l-0.8-0.6l-0.4-0.3l-0.2-0.1c0,0-0.1-0.1-0.1-0.1l-1.5-1.1l-1.5-1.1l-1.4-0.9l1.6-1.8
				c0.9,1,1.6,2.1,2.4,3.2c0.7,1.1,1.4,2.3,2,3.4c0.3,0.6,0.6,1.2,0.9,1.8l0.4,0.9c0.1,0.3,0.2,0.6,0.3,1c0.2,0.6,0.5,1.3,0.6,1.9
				c0.1,0.7,0.2,1.3,0.3,2l-0.2,0.1c-0.3-0.6-0.6-1.2-0.9-1.7c-0.1-0.3-0.3-0.6-0.5-0.8l-0.5-0.8c-0.3-0.5-0.7-1.1-1-1.6
				c-0.4-0.5-0.7-1.1-1.1-1.6c-0.4-0.5-0.8-1-1.1-1.6l-1.2-1.5l-2.3-3.1l-4.9-6.5l6.5,4.7c0.5,0.4,1.1,0.8,1.6,1.2l1.4,1.2l1.4,1.2
				l1.4,1.2c0.9,0.7,1.9,1.4,2.9,2.1c0.5,0.3,1,0.6,1.6,0.9c0.5,0.3,1.1,0.6,1.6,0.8l0.1,0l0,0c0.2,0.1,0.5,0.2,0.8,0.3
				c0.3,0.1,0.6,0.2,0.9,0.2c0.6,0.1,1.2,0.2,1.8,0.2c0.3,0,0.6,0,0.9,0c0.3,0,0.6-0.1,0.9-0.1c0.3,0,0.6-0.1,0.9-0.2
				c0.3-0.1,0.6-0.1,0.9-0.2l0.9-0.3l0.9-0.4c0.6-0.2,1.1-0.6,1.7-0.9c0.3-0.2,0.5-0.3,0.8-0.5l0.8-0.5l1.5-1.2L130.1,136.2z"/>
		</g>
		<g>
			<path fill="#727272" d="M122.1,223.7c-0.4,0.8-0.9,1.7-1.3,2.5l-0.6,1.2c-0.2,0.4-0.4,0.8-0.5,1.2c-0.2,0.4-0.3,0.8-0.5,1.2
				c-0.1,0.4-0.2,0.8-0.3,1.1c0,0.2-0.1,0.3-0.1,0.5l0,0.2c0,0.1,0,0.1,0,0.1c0,0.1,0.1,0.1,0.1,0.2l0,0l0,0l0,0l0,0
				c0,0,0,0.1,0-0.1l0,0l0.1,0.1l0.2,0.3c0.3,0.4,0.5,0.8,0.7,1.2l0.7,1c0.2,0.3,0.5,0.7,0.8,1l0.8,1c0.6,0.7,1.1,1.3,1.7,2
				c0.3,0.3,0.6,0.6,0.9,1c0.3,0.3,0.6,0.7,0.9,0.9l-3.2,0.2l0.7-0.9l0.7-0.9l1.3-1.9c0.4-0.6,0.8-1.3,1.2-1.9
				c0.4-0.6,0.8-1.3,1-1.8c0.1-0.3,0.2-0.6,0.3-0.8c0-0.1,0.1-0.2,0.1-0.3l0-0.6c0-0.8,0-1.6,0.1-2.4l0.2-2.4c0-0.8,0.1-1.6,0.2-2.4
				l0.2,0l0.4,2.4c0.1,0.8,0.2,1.6,0.3,2.4l0.3,2.4c0,0.4,0.1,0.8,0.1,1.2c0,0.4-0.1,0.8-0.3,1.2c-0.2,0.8-0.6,1.5-0.9,2.2
				c-0.4,0.7-0.7,1.4-1.2,2.1c-0.8,1.4-1.7,2.7-2.7,4l-0.2,0.2l-0.2-0.2c-1.3-1.3-2.5-2.7-3.7-4.2c-0.3-0.4-0.5-0.7-0.8-1.1
				c-0.3-0.4-0.5-0.8-0.8-1.2l-0.7-1.2l-0.6-1.2c-0.2-0.4-0.4-0.9-0.4-1.4c0-0.2,0-0.5,0.1-0.7c0-0.2,0.1-0.5,0.2-0.7
				c0.1-0.5,0.3-0.9,0.5-1.3c0.2-0.4,0.4-0.8,0.7-1.2c1-1.6,2.1-3,3.4-4.4L122.1,223.7z"/>
		</g>
		<circle fill="none" stroke="#382510" stroke-width="1.8339" stroke-miterlimit="10" cx="89.3" cy="67.6" r="4.1"/>
		<circle fill="none" stroke="#382510" stroke-width="1.8339" stroke-miterlimit="10" cx="89.3" cy="91.9" r="4.1"/>
		<circle fill="none" stroke="#382510" stroke-width="1.8339" stroke-miterlimit="10" cx="89.3" cy="116.1" r="4.1"/>
		<circle fill="none" stroke="#382510" stroke-width="1.8339" stroke-miterlimit="10" cx="89.3" cy="140.4" r="4.1"/>
		<circle fill="none" stroke="#382510" stroke-width="1.2226" stroke-miterlimit="10" cx="63" cy="99.4" r="2.8"/>
		<path fill="none" stroke="#382510" stroke-width="1.2226" stroke-miterlimit="10" d="M49.3,103.7c0,1.5-1.3,2.8-2.8,2.8
			c-1.5,0-2.8-1.3-2.8-2.8c0-1.5,1.3-2.8,2.8-2.8C48.1,100.9,49.3,102.2,49.3,103.7z"/>
		<circle fill="none" stroke="#382510" stroke-width="1.2226" stroke-miterlimit="10" cx="113.8" cy="98.8" r="2.8"/>
		<path fill="none" stroke="#382510" stroke-width="1.2226" stroke-miterlimit="10" d="M135.5,103.7c0,1.5-1.3,2.8-2.8,2.8
			c-1.5,0-2.8-1.3-2.8-2.8c0-1.5,1.3-2.8,2.8-2.8C134.3,100.9,135.5,102.2,135.5,103.7z"/>
		<path fill="none" stroke="#727272" stroke-width="2.4452" stroke-miterlimit="10" d="M108.4,162.4c0,0,37.3,17.9,16.4,39.9
			c0,0-20.7-23.9-36.2-25.8"/>
		<path fill="none" stroke="#727272" stroke-width="2.4452" stroke-miterlimit="10" d="M70.6,162.4c0,0-36.4,17.9-16,39.9
			c0,0,19.6-23.9,34.7-25.8"/>
		<path fill="none" stroke="#C6774F" stroke-width="1.8339" stroke-miterlimit="10" d="M95.2,155.5c0,0,7.6-7.7,13.1,6.9
			c0,0-4.8,1.7-13.6,4.2l-5.5,1.4"/>
		<path fill="none" stroke="#727272" stroke-width="1.8339" stroke-miterlimit="10" d="M108.4,186.4c0,0-6.9,19.9-9.6,14.6
			c-2.6-5.3-2.9-9.4-2.9-9.4"/>
		<path fill="none" stroke="#C6774F" stroke-width="1.8339" stroke-miterlimit="10" d="M82.9,155.2c0,0-7-7.3-12.4,7.3
			c0,0,4.7,1.7,13.3,4.2l6.1,1.4"/>
		<path fill="none" stroke="#727272" stroke-width="1.8339" stroke-miterlimit="10" d="M70.6,186.4c0,0,6.8,19.9,9.4,14.6
			c2.6-5.3,2.3-9.3,2.3-9.3"/>
		<path fill="none" stroke="#3D3936" stroke-width="2.4452" stroke-miterlimit="10" d="M91.8,48.5c2.1-0.2,9.1,0.4,16.5,6.7
			l-6.9,6.9c0,0-5.5,36.5-0.4,89.6l-12.5,8.2"/>
		<path fill="none" stroke="#3D3936" stroke-width="2.4452" stroke-miterlimit="10" d="M86.3,48.4c-2-0.2-8.5,0.4-15.8,6.8l6.8,6.9
			c0,0,5.4,36.5,0.4,89.6l12.2,8.2"/>
		<path fill="none" stroke="#3D3936" stroke-width="2.1396" stroke-miterlimit="10" d="M98.8,91.8c0,0,33.6,1.1,48.3,14.1l3.7,14.5
			c0,0-7.3-13.5-52-17.6"/>
		<path fill="none" stroke="#3D3936" stroke-width="2.1396" stroke-miterlimit="10" d="M79.9,91.8c0,0-32.9,0.5-47.2,13.5l-3.6,15.1
			c0,0,7.2-13.5,50.8-17.6"/>
		<path fill="none" stroke="#382510" stroke-width="1.8339" stroke-miterlimit="10" d="M119.9,121.3l-17.7,4.1c0,0,11.1,10.2,25.3,4
			c0,0-2.1-6.5-8.3-7.9"/>
	</g>
</g>
<g display="none">
	<path display="inline" fill="#FFDEC7" d="M142.9,42.3c0,0-31.3,2.9-37.5,9.1c0,0-10.1,32.4-3.7,35.7l4.6,4.5l9,24.3
		c0,0,10.9-11.9,18.3-14.1l18.7,5.6l19-5.6c0,0,17.1,10.8,18.7,14.1l9.8-24.6c0,0,9.3-6,5.8-17.4l-5.9-23.6c0,0-27-8.9-38-8.1
		l2.3,48.8l-11.7,7.7l-11.6-7.7C140.7,91.1,143,44.8,142.9,42.3z"/>
	<path display="inline" fill="#9E9692" d="M132.3-3.7c0,0-29.8,16.7-36.5,46.9c0,0,22.8-12.2,47.1-11.9l-2.6-29.7
		C140.3,1.6,135.2-4.5,132.3-3.7z"/>
	<path display="inline" fill="#9E9692" d="M161.7,31.3c0,0,34.8,1.1,48.2,14.1c0,0-9.5-35-38.7-50.7l-6.9,6.9L161.7,31.3z"/>
	<path display="inline" d="M110,12.8c0,0-14.7-16.1,4.9-23.8l-13.5-41c0,0-4,6.8-1.8,13.4L88.6-58.3c0,0-3,3.4,3.2,20.6
		c0,0-13.2-14.3-15.5-14.3c0,0,5.1,18.1,10.4,23.7L71.9-41.9c0,0,2.7,19.8,9.7,29.9c0,0-10.2-9-12.1-10.1c0,0,4.6,23,11.1,31.6
		L69.5,3c0,0,5.5,13.1,16.1,20.3c0,0-9.9-3.7-16.1-2.3c0,0,4.4,7.7,15.9,8.8c0,0-10.4,2.4-10.7,10.3c0,0,8.5-1.2,12.4-2.7
		c0,0-5.9,4.7-4.8,13.7c0,0,7.4-2.5,9-8c0,0-1.6,8,0.9,12.7l3.6-11.1l-1-1.6C94.7,43.2,101,24.2,110,12.8z"/>
	<path display="inline" d="M194.9,13.4c0,0,14.1,19,15.1,29.8l2.6,12.4c0,0,3.8-3.1,2.7-10.5c0,0,4.1,5,8.6,6.1c0,0,0.8-10-5.3-14
		c0,0,10.8,3.9,13,3c0,0-0.4-8.5-11-10.3c0,0,12-0.7,16.3-8.8c0,0-7.8-2-18.1,3.4c0,0,18.1-12.1,18.1-21.7l-11.4,6.9
		c0,0,10.6-17.4,11.4-31.6L224.5-12c0,0,9.9-18.9,9.9-29.9l-14.8,13c0,0,7.3-7.4,10.3-23.1c0,0-15,11.9-15.9,14.3
		c0,0,5.3-12.2,3.3-20.6l-10.7,19.8c0,0,1-9.4-2.3-13.6l-13.8,41C190.4-11,210.8-4.7,194.9,13.4z"/>
	<g display="inline">
		<g>
			<g>
				<path fill="#EDE6E4" d="M235.7,140c0,0-11.3-8.1-3.4-22.5c7.9-14.4-18.9-53.1-18.7-57.6c0,0-7.3-8.2-13.6-8.5
					c0,0,11.3,31.4,2.2,37.4c0,0-3.3,1.6-12,26.3c0,0-15.3-12.8-17.8-12.8c0,0,2.4-1.8-19.5,5l-19.3-5.6c0,0-13.4,6.8-18.3,14.1
					l-9-24c0,0-14-6.9-0.9-40.5c0,0-11,3.3-13.2,8.5c0,0-20.1,45.6-20.1,51c0,5.4,12.6,20.5-1.5,29.1l10.8-2.3c0,0-11,16.7,0,28.2
					c11,11.6,13.9,11.1,12.8,19.4l3.2-5.3c0,0,5.6,22.6,37,31.5l-3-6.3c0,0,18,12.6,20.8,17.9c0,0,9.2-10.9,21.4-17.9l-3.1,6.3
					c0,0,36.1-13,37.9-31.5l3.3,5.3c0,0-0.5-10.6,13.1-19.4c13.6-8.9,0-28.2,0-28.2L235.7,140z"/>
			</g>
		</g>
	</g>
	<g display="inline">
		<g>
			<g>
				<path fill="#FFDEC7" d="M151.5,116c-3.9-0.9-18,9.8-18,9.8c10.3,31.7,11.7,4.3,11.7,4.3H159c3.4,26.8,12.3-4.3,12.3-4.3
					C162.7,118,155.5,116.9,151.5,116z"/>
			</g>
		</g>
	</g>
	<path display="inline" fill="#EDE6E4" d="M142.3,53.7c0,0,0.6,8.5-2.7,11.1l-23.1-5.1c0,0-8.3,2.4-9,4.2l3.9-7.8l-3.9,0.5l7.4-6.2
		C114.9,50.4,141.8,59.1,142.3,53.7z"/>
	<path display="inline" fill="#EDE6E4" d="M162.3,53.7c0,0,0.4,5.5,28.1-3.3l6.6,5.4l-3.1,0.2l3.4,8.3c0,0-1.9-9.8-30.6,0.5
		C166.8,64.9,161.5,65,162.3,53.7z"/>
	<path display="inline" fill="#8C837E" d="M169.7-6.6c0,0-17.1-13.5-36.1,1.3l6.8,6.9c0,0,6.6,47.8,0.4,89.5l10.9,8.2l12.5-8.2
		c0,0-5.9-62.4,0.4-89.5C164.4,1.6,173.4-7.8,169.7-6.6z"/>
	<path display="inline" fill="#8C837E" d="M96.1,44.5l-2.9,12.8c0,0,16.3-13.2,49.1-14.9V31.9C142.3,31.9,115,32.1,96.1,44.5z"/>
	<path display="inline" fill="#8C837E" d="M162.2,31.9c0,0,33.1,1.4,47.5,14.1l2.6,11.7c0,0-13.7-13.8-50.1-15.3V31.9z"/>
	<path display="inline" fill="#FFFCFA" d="M166.6,65.6c0,0,5.6-2.3,17.3-4.9c0,0,6.8,5.1,7.2,8.2C191,68.9,178,75.8,166.6,65.6z"/>
	<path display="inline" fill="#00A1E0" d="M173.1,69.2c0,0,3.7,3,11,1.2c0,0,1.4-5.8-5.2-6.5C172.3,63.3,173.1,69.2,173.1,69.2z"/>
	<g display="inline">
		<circle fill="#CEC7C2" cx="151.8" cy="7.3" r="4.2"/>
		<circle fill="#CEC7C2" cx="151.8" cy="31.7" r="4.2"/>
		<circle fill="#CEC7C2" cx="151.8" cy="56.1" r="4.2"/>
		<circle fill="#CEC7C2" cx="151.8" cy="80" r="4.2"/>
		<circle fill="#CEC7C2" cx="195.4" cy="43.6" r="2.7"/>
		<circle fill="#CEC7C2" cx="176.5" cy="38.7" r="2.7"/>
		<circle fill="#CEC7C2" cx="125.8" cy="39.3" r="2.7"/>
		<circle fill="#CEC7C2" cx="108.7" cy="43.6" r="2.7"/>
		<path fill="#CEC7C2" d="M155.5-7.6h-8.4c0,0,1.9-7.7,4.2-8.7C153.6-17.3,155.5-7.6,155.5-7.6z"/>
	</g>
	<g display="inline">
		<path fill="none" stroke="#493016" stroke-width="2.4428" stroke-miterlimit="10" d="M193.3,14.5c0,0,17.3-17.1-3.4-25.5l13.8-41
			c0,0,4.6,6.1,1.4,15.3l11.6-21.6c0,0,3.3,3-3.3,20.6c0,0,13.4-14.3,15.9-14.3c0,0-1.6,11.2-11.7,25.2l16.2-15.1
			c0,0-1.4,15-9.9,29.9c0,0,8.7-7.8,12.4-10.1c0,0-1.2,14.5-11.4,31.6l11.4-6.9c0,0-2,11.3-19.1,22.4c0,0,9.7-6.3,19.1-4.1
			c0,0-2,6.5-16.3,8.8c0,0,10.6,1.9,11,10.3c0,0-5.3,0-13.8-3.4c0,0,7.3,3.4,6.1,14.5c0,0-6.9-2.7-8.5-6.1c0,0,0.6,6.9-2.3,12.2"/>
		<path fill="none" stroke="#493016" stroke-width="2.4428" stroke-miterlimit="10" d="M154.2-12c2.1-0.2,9.1,0.4,16.5,6.7l-6.9,6.9
			c0,0-5.5,36.5-0.4,89.5L151,99.3"/>
		<g>
			<g>
				<path fill="#493016" d="M169.6-3.1C188.5,4.2,202,25.2,207.7,44c0.6,1.9,3.5,1.1,2.9-0.8c-6-19.9-19.9-41.4-40.2-49.3
					C168.6-6.8,167.8-3.8,169.6-3.1L169.6-3.1z"/>
			</g>
		</g>
		<path fill="none" stroke="#493016" stroke-width="2.1375" stroke-miterlimit="10" d="M161.1,31.3c0,0,33.6,1.1,48.2,14.1l3.7,14.5
			c0,0-7.3-13.5-51.9-17.6"/>
		<g>
			<path fill="#493016" d="M213,59.9l4.6,8.5l4.5,8.5l4.4,8.6c0.7,1.4,1.5,2.9,2.1,4.3c0.6,1.5,1.3,2.9,2,4.4l-0.1-0.2
				c0.6,1,1.1,1.9,1.5,2.9c0.5,1,0.9,1.9,1.3,2.9c0.2,0.5,0.4,1,0.5,1.5c0.2,0.5,0.3,1,0.5,1.5c0.3,1,0.5,2.1,0.8,3.2
				c0.2,1.1,0.3,2.2,0.3,3.3c0,0.6,0,1.1,0,1.7c0,0.6,0,1.1-0.1,1.7c-0.1,0.6-0.2,1.1-0.3,1.7l-0.5,1.7c-0.2,0.6-0.5,1.1-0.7,1.6
				l-0.4,0.7l-0.4,0.7l-0.7,1.3l-0.5,1.3l-0.3,0.6l-0.2,0.7c-0.1,0.4-0.3,0.9-0.4,1.3l-0.3,1.3l-0.1,1.3c0,0.9,0,1.8,0.1,2.7
				c0.1,0.9,0.4,1.7,0.7,2.6c0.1,0.4,0.4,0.8,0.5,1.2c0.2,0.4,0.5,0.8,0.7,1.2c0.5,0.7,1.1,1.5,1.7,2.1c0.6,0.7,1.4,1.2,2.1,1.8
				l6.5,4.9l-7.9-1.6l-11-2.3l1.9-2.8c0.7,1.1,1.3,2.1,1.9,3.2c0.6,1.1,1.1,2.2,1.6,3.3c1,2.2,1.7,4.6,2.2,7
				c0.2,1.2,0.4,2.5,0.4,3.8c0,1.3-0.1,2.6-0.3,3.9c-0.3,1.3-0.7,2.6-1.2,3.8c-0.6,1.2-1.3,2.3-2.2,3.3c-0.4,0.5-0.9,0.9-1.4,1.4
				c-0.5,0.4-1,0.8-1.5,1.3c-0.9,0.6-1.8,1.3-2.6,2c-1.7,1.4-3.4,3-4.8,4.6c-1.5,1.6-2.8,3.4-3.7,5.3c-0.9,1.9-1.4,3.8-1.1,5.7
				l0.6,3.6l-3.2-1.6c-0.3-0.2-0.4-0.2-0.6-0.4c-0.2-0.1-0.3-0.2-0.4-0.3c-0.3-0.2-0.5-0.5-0.8-0.7c-0.2-0.3-0.4-0.5-0.6-0.8
				c-0.2-0.3-0.4-0.6-0.5-0.8c-0.2-0.3-0.3-0.6-0.4-0.9l-0.4-0.9c-0.1-0.3-0.2-0.6-0.3-0.9l-0.2-0.9l3.6-0.1
				c-0.1,0.7-0.3,1.2-0.4,1.8c-0.1,0.6-0.4,1.1-0.5,1.7c-0.4,1.1-0.9,2.1-1.4,3.1c-0.5,1-1.1,2-1.7,2.9c-0.6,1-1.3,1.8-1.9,2.8
				c-0.7,0.9-1.4,1.7-2.2,2.6c-0.8,0.8-1.6,1.6-2.3,2.4c-0.8,0.8-1.7,1.5-2.5,2.2c-0.4,0.4-0.8,0.7-1.3,1.1l-1.3,1
				c-0.9,0.6-1.8,1.3-2.7,1.9l-2.8,1.7c-0.9,0.6-1.9,1.1-2.9,1.6l-2.9,1.5c-1,0.5-2,0.9-3,1.3c-1,0.4-2,0.9-3,1.3l-6.2,2.2l-5.2,1.9
				l3.2-4.7l0.2-0.3c0.1-0.1,0.1-0.2,0.2-0.3l0.4-0.7c0.3-0.5,0.5-1,0.7-1.4c0.1-0.2,0.3-0.5,0.4-0.7l0.3-0.7l0.7-1.5l2.6,1.9
				c-4,2.5-8,5.1-11.8,7.7c-1.9,1.3-3.8,2.7-5.7,4.2c-0.9,0.7-1.8,1.5-2.7,2.3c-0.4,0.4-0.8,0.8-1.2,1.3c-0.4,0.5-0.8,0.9-0.9,1.5
				c0.1-0.6,0.4-1.1,0.7-1.6c0.3-0.5,0.7-1,1.1-1.4c0.8-0.9,1.6-1.8,2.4-2.7c1.7-1.7,3.4-3.3,5.2-4.9c1.8-1.6,3.6-3.1,5.4-4.6
				c1.8-1.5,3.7-3,5.6-4.5l4.2-3.2l-1.6,5.1l-0.6,1.8l-0.3,0.9c-0.1,0.3-0.3,0.6-0.4,0.9c-0.1,0.3-0.3,0.6-0.4,0.9
				c-0.2,0.3-0.3,0.6-0.5,0.8l-0.5,0.8c-0.1,0.1-0.2,0.3-0.3,0.4l-0.3,0.4l-2-2.9l5.9-2.1c1-0.4,1.9-0.8,2.9-1.2
				c1-0.4,1.9-0.8,2.9-1.3l2.8-1.4c0.9-0.5,1.9-0.9,2.7-1.5l2.7-1.6c0.9-0.5,1.7-1.2,2.5-1.8l1.3-0.9c0.4-0.3,0.8-0.7,1.2-1
				c0.8-0.7,1.6-1.3,2.3-2c0.7-0.7,1.5-1.4,2.2-2.2l2-2.3c0.6-0.8,1.2-1.6,1.8-2.5c0.5-0.9,1.1-1.7,1.5-2.6c0.5-0.9,0.9-1.8,1.2-2.7
				c0.1-0.5,0.3-0.9,0.5-1.4c0.1-0.4,0.3-1,0.3-1.3l1.4-8.4l2.2,8.2l0.2,0.7c0.1,0.2,0.1,0.4,0.2,0.6l0.2,0.6
				c0.1,0.2,0.2,0.4,0.3,0.6c0.1,0.2,0.2,0.4,0.3,0.5c0.1,0.1,0.2,0.3,0.4,0.5c0.1,0.1,0.3,0.3,0.4,0.4c0.1,0,0.1,0.1,0.2,0.2
				c0,0,0.2,0.1,0.1,0.1l-2.6,2c-0.2-1.4-0.2-2.8,0.1-4.1c0.3-1.3,0.7-2.6,1.3-3.7c1.1-2.3,2.6-4.3,4.2-6.1c1.6-1.8,3.4-3.5,5.3-5
				c0.9-0.8,1.9-1.5,2.9-2.2c0.3-0.3,0.8-0.6,1.2-0.9c0.4-0.4,0.8-0.7,1.1-1.1c0.7-0.7,1.2-1.6,1.7-2.5c0.4-0.9,0.7-1.9,0.9-2.9
				c0.2-1,0.3-2,0.2-3.1c0-1.1-0.2-2.1-0.3-3.2c-0.4-2.1-1.1-4.2-2-6.3c-0.4-1-0.9-2-1.4-3c-0.5-1-1.1-2-1.7-2.8l-2.5-3.8l4.4,0.9
				l11,2.3l-1.4,3.3c-0.9-0.7-1.8-1.4-2.6-2.2c-0.8-0.8-1.5-1.7-2.2-2.6c-0.3-0.5-0.6-1-0.9-1.5c-0.2-0.5-0.5-1-0.7-1.6
				c-0.4-1.1-0.7-2.2-0.9-3.4c-0.2-1.1-0.2-2.3-0.1-3.4l0.2-1.7l0.4-1.7c0.1-0.6,0.3-1.1,0.5-1.6l0.3-0.8l0.3-0.8l0.7-1.6l0.7-1.3
				l0.4-0.7l0.1-0.1l0-0.1l0.1-0.1l0.1-0.3c0.2-0.4,0.4-0.8,0.5-1.2l0.4-1.3c0.1-0.4,0.1-0.9,0.2-1.3c0.1-0.4,0.1-0.9,0.1-1.4
				c0-0.5,0-0.9,0-1.4c0-0.9-0.2-1.9-0.3-2.8c-0.2-0.9-0.4-1.9-0.7-2.8c-0.1-0.5-0.3-0.9-0.4-1.4c-0.1-0.5-0.3-0.9-0.5-1.4
				c-0.3-0.9-0.7-1.8-1.2-2.7c-0.4-0.9-0.9-1.8-1.3-2.5l-0.1-0.1l0-0.1c-0.7-1.5-1.3-2.9-2-4.4c-0.7-1.4-1.3-2.9-1.9-4.4l-3.5-9
				l-3.4-9L213,59.9z"/>
		</g>
		<path fill="none" stroke="#493016" stroke-width="1.8321" stroke-miterlimit="10" d="M157.6,94.9c0,0,7.6-7.6,13.1,6.9
			c0,0-4.8,1.7-13.5,4.2l-5.5,1.4"/>
		<path fill="none" stroke="#493016" stroke-width="1.8321" stroke-miterlimit="10" d="M185.3,111.5c0,0-18.2-28.6-27.1-16.6"/>
		<path fill="none" stroke="#493016" stroke-width="2.4428" stroke-miterlimit="10" d="M199.1,50.4c0,0,11.5,32,2.5,38.5
			c-9,6.5-16.9,22.6-16.9,22.6"/>
		<path fill="none" stroke="#493016" stroke-width="1.8321" stroke-miterlimit="10" d="M199.2,91.4c0,0-8.6,20-9.8,24.6"/>
		<path fill="none" stroke="#493016" stroke-width="2.4428" stroke-miterlimit="10" d="M170.7,101.9c0,0,37.3,17.9,16.4,39.8
			c0,0-20.7-23.8-36.1-25.7"/>
		<path fill="none" stroke="#493016" stroke-width="2.4428" stroke-miterlimit="10" d="M182.4,136.6c0,0-5.2,5.7,1.7,16.4
			c0,0,17.8-3.7,6.9-16.4"/>
		<path fill="none" stroke="#493016" stroke-width="2.4428" stroke-miterlimit="10" d="M184.1,152.9c0,0-7.5,4.2,3,12.2
			c0,0,7.9-2.6,2.7-14.4"/>
		<path fill="none" stroke="#493016" stroke-width="2.4428" stroke-miterlimit="10" d="M151.6,120.2"/>
		<path fill="none" stroke="#493016" stroke-width="1.8321" stroke-miterlimit="10" d="M170.7,125.8c0,0-6.9,19.9-9.6,14.6
			c-2.6-5.3-2.8-10.2-2.8-10.2"/>
		<path fill="none" stroke="#493016" stroke-width="2.4428" stroke-miterlimit="10" d="M169.1,130.1c0,0-12.1,0-17.5,0"/>
		<path fill="none" stroke="#493016" stroke-width="1.8321" stroke-miterlimit="10" d="M161.7,53.7c0,0-1.3,6.6,2.8,11.1
			c0,0,15.9-3.8,22-5c6.1-1.1,12.1,6.5,12.1,6.5l-5.3-10.3l5.3,1.5l-8.8-7.2c0,0-12.3,2.6-17.3,4.1
			C167.4,56.1,164.5,55.6,161.7,53.7z"/>
		<path fill="none" stroke="#493016" stroke-width="1.8321" stroke-miterlimit="10" d="M169.7,63.7l-4.3,2c0,0,10.3,9.4,24.4,3.2
			c0,0-2.1-6.5-8.3-7.9"/>
		<path fill="none" stroke="#493016" stroke-width="1.2214" stroke-miterlimit="10" d="M172.5,69.2c0,0,0-5.4,5.8-5.2
			c5.8,0.2,5.2,6.5,5.2,6.5"/>
		<path fill="#382510" d="M157.2,106c0,0,4.4-0.7,5-1.9c0.6-1.1-7.5-7.5-6.7-3.7C156.3,104.3,157.2,106,157.2,106z"/>
		<path d="M175.7,70c0,0-0.1-2.9,2-2.9c3.3,0,2.2,3.4,2.2,3.4"/>
		<path fill="none" stroke="#493016" stroke-width="2.4428" stroke-miterlimit="10" d="M110.9,14.5c0,0-16.9-17.1,3.4-25.5l-13.5-41
			c0,0-4.5,5.8-1.4,15L88-58.3c0,0-3.2,3,3.2,20.6c0,0-13.1-14.3-15.5-14.3c0,0,1.6,11.2,11.4,25.2L71.3-41.9c0,0,1.3,15,9.7,29.9
			c0,0-8.5-7.8-12.1-10.1c0,0,1.2,14.5,11.1,31.6L68.9,2.7c0,0,1.9,11.3,18.6,22.4c0,0-9.5-6.3-18.6-4c0,0,2,6.5,15.9,8.8
			c0,0-10.3,1.9-10.7,10.3c0,0,5.2,0,13.5-3.4c0,0-7.2,3.4-6,14.5c0,0,6.8-2.7,8.4-6.1c0,0-0.5,6.9,2.2,12.2"/>
		<path fill="none" stroke="#493016" stroke-width="1.8321" stroke-miterlimit="10" d="M151.7-7.9h-4.6c0,0,0.2-4.9,4.2-8.7
			c0,0,3.8,3.6,4.2,8.7H151.7z"/>
		<path fill="none" stroke="#493016" stroke-width="2.4428" stroke-miterlimit="10" d="M148.7-12c-2-0.2-8.4,0.4-15.7,6.8l6.8,6.9
			c0,0,5.4,36.5,0.4,89.5l12.2,8.2"/>
		<g>
			<g>
				<path fill="#493016" d="M133.2-6.1C113,1.6,99.5,23.1,93.7,42.8c-0.6,1.9,2.4,2.7,2.9,0.8C102.1,25,115.1,4,134-3.1
					C135.9-3.8,135.1-6.8,133.2-6.1L133.2-6.1z"/>
			</g>
		</g>
		<path fill="none" stroke="#493016" stroke-width="2.1375" stroke-miterlimit="10" d="M142.3,31.3c0,0-32.8,0.5-47.1,13.5
			l-3.6,15.1c0,0,7.2-13.5,50.7-17.6"/>
		<g>
			<path fill="#493016" d="M91.6,59.9l-3.3,9l-3.4,9l-3.4,9c-0.3,0.7-0.6,1.5-0.9,2.2c-0.3,0.7-0.6,1.5-1,2.2
				c-0.7,1.4-1.3,2.9-2,4.4l0,0.1l-0.1,0.1c-0.4,0.8-0.9,1.7-1.3,2.5c-0.4,0.9-0.8,1.8-1.1,2.7c-0.2,0.5-0.3,0.9-0.5,1.4
				c-0.2,0.5-0.3,0.9-0.4,1.4c-0.3,0.9-0.5,1.9-0.7,2.8c-0.1,0.9-0.3,1.9-0.3,2.8l0,0.7l0,0.7c0,0.5,0,0.9,0.1,1.4l0.2,1.3l0.4,1.3
				c0.1,0.4,0.4,0.8,0.5,1.2l0.1,0.3l0.1,0.1l0,0.1l0,0l0.1,0.1l0.4,0.7l0.7,1.3l0.7,1.5L77,121l0.3,0.8c0.2,0.5,0.4,1,0.5,1.6
				l0.3,1.6c0.1,0.6,0.1,1.1,0.2,1.7c0.1,1.1,0,2.3-0.1,3.4c-0.2,1.1-0.5,2.3-0.9,3.3c-0.2,0.5-0.5,1.1-0.7,1.6
				c-0.3,0.5-0.6,1-0.8,1.5c-0.6,0.9-1.3,1.9-2.1,2.7c-0.8,0.8-1.6,1.5-2.5,2.2l-1.5-3.3l10.8-2.3l4.4-0.9l-2.5,3.7
				c-0.6,0.8-1.1,1.9-1.6,2.8c-0.5,1-1,2-1.4,3c-0.9,2-1.5,4.1-1.9,6.2c-0.4,2.1-0.5,4.2-0.1,6.2c0.2,1,0.5,2,0.9,2.9
				c0.4,0.9,0.9,1.8,1.6,2.5c0.3,0.4,0.7,0.7,1,1.1c0.2,0.2,0.4,0.3,0.6,0.5l0.5,0.5c1,0.7,1.9,1.5,2.9,2.2c1.8,1.5,3.6,3.2,5.2,5
				c1.6,1.8,3.1,3.8,4.1,6.2c0.5,1.2,1,2.4,1.2,3.7c0.3,1.3,0.3,2.7,0.1,4.1l-2.6-2c-0.1,0,0,0,0.1-0.1c0.1,0,0.1-0.1,0.2-0.2
				c0.1-0.1,0.3-0.3,0.4-0.4c0.1-0.1,0.2-0.3,0.4-0.5c0.1-0.1,0.2-0.4,0.3-0.5c0.1-0.2,0.2-0.4,0.3-0.6l0.2-0.6
				c0.1-0.2,0.1-0.4,0.2-0.6l0.2-0.7l2.2-8.4l1.4,8.5c0.1,0.3,0.2,0.8,0.3,1.3c0.1,0.5,0.3,0.9,0.4,1.4c0.4,0.9,0.7,1.8,1.2,2.7
				c0.4,0.9,1,1.7,1.5,2.6c0.5,0.9,1.1,1.6,1.7,2.5c0.6,0.8,1.3,1.6,1.9,2.3c0.7,0.8,1.4,1.5,2.1,2.2c0.7,0.7,1.5,1.4,2.3,2l1.2,1
				l1.2,0.9c0.8,0.6,1.6,1.2,2.5,1.8l2.6,1.6c0.9,0.6,1.8,1,2.7,1.5l2.7,1.4c0.9,0.5,1.9,0.8,2.8,1.3l2.8,1.2l5.8,2.1l-2,2.9
				l-0.3-0.4c-0.1-0.1-0.2-0.3-0.3-0.4l-0.5-0.8c-0.3-0.6-0.6-1.1-0.8-1.7c-0.1-0.3-0.3-0.6-0.4-0.9l-0.3-0.9l-0.6-1.8l-1.5-5
				l4.1,3.1c1.9,1.4,3.7,2.9,5.5,4.3c1.8,1.5,3.6,3,5.3,4.5c1.7,1.5,3.4,3.1,5.1,4.8c0.8,0.8,1.6,1.7,2.3,2.6c0.4,0.5,0.7,0.9,1,1.4
				c0.3,0.5,0.6,1,0.7,1.6c-0.2-0.6-0.5-1-0.9-1.5c-0.4-0.4-0.8-0.8-1.2-1.2c-0.8-0.8-1.7-1.5-2.6-2.2c-1.8-1.4-3.7-2.8-5.5-4.1
				c-3.8-2.6-7.6-5.1-11.5-7.5l2.5-1.9l0.7,1.5l0.3,0.7c0.1,0.2,0.3,0.5,0.4,0.7l0.4,0.7c0.1,0.2,0.2,0.5,0.4,0.7l0.4,0.7
				c0.1,0.1,0.1,0.2,0.2,0.3l0.2,0.3l3.2,4.8l-5.2-1.9l-6.1-2.2l-3-1.3c-1-0.4-2-0.9-3-1.3l-2.9-1.5c-1-0.5-1.9-1-2.8-1.6l-2.8-1.7
				c-0.9-0.6-1.8-1.3-2.6-1.9l-1.3-1l-1.2-1.1c-0.8-0.7-1.7-1.4-2.4-2.2c-0.8-0.8-1.6-1.6-2.3-2.4c-0.7-0.9-1.4-1.7-2.1-2.6
				c-0.6-0.9-1.3-1.8-1.9-2.7c-0.6-1-1.2-1.9-1.6-2.9c-0.5-1-0.9-2-1.3-3.1c-0.2-0.5-0.4-1.1-0.5-1.6c-0.2-0.6-0.3-1.1-0.4-1.8
				l3.6,0.1l-0.2,0.9c-0.1,0.3-0.1,0.6-0.3,0.9l-0.4,0.9c-0.1,0.3-0.3,0.6-0.4,0.9c-0.2,0.3-0.3,0.6-0.5,0.8
				c-0.2,0.3-0.4,0.5-0.6,0.8c-0.3,0.3-0.5,0.5-0.8,0.7c-0.1,0.1-0.3,0.2-0.4,0.3c-0.2,0.1-0.3,0.2-0.6,0.4l-3.2,1.6l0.6-3.6
				c0.3-1.8-0.1-3.8-1-5.6c-0.9-1.9-2.2-3.7-3.6-5.3c-1.4-1.7-3.1-3.2-4.8-4.6c-0.8-0.7-1.7-1.4-2.6-2l-0.1-0.1l0,0l-0.1-0.1
				l-0.2-0.2l-0.4-0.3c-0.2-0.2-0.5-0.4-0.7-0.6c-0.5-0.5-0.9-0.9-1.3-1.4c-0.9-1-1.5-2.1-2.1-3.3c-0.6-1.2-0.9-2.5-1.2-3.7
				c-0.5-2.6-0.3-5.1,0.1-7.6c0.5-2.4,1.2-4.8,2.1-7c0.5-1.1,1-2.2,1.5-3.3c0.6-1.1,1.1-2.1,1.9-3.2l1.9,2.8l-10.8,2.3l-7.8,1.6
				l6.3-4.9c0.7-0.6,1.4-1.1,2-1.8c0.6-0.6,1.2-1.4,1.7-2.1c0.2-0.4,0.5-0.8,0.7-1.2c0.2-0.4,0.4-0.8,0.5-1.2
				c0.3-0.8,0.5-1.7,0.7-2.6c0.1-0.9,0.1-1.8,0.1-2.7l-0.1-1.3l-0.3-1.3c-0.1-0.4-0.3-0.9-0.4-1.3l-0.2-0.7l-0.3-0.6l-0.5-1.3
				l-0.7-1.3l-0.4-0.7l-0.3-0.7c-0.2-0.5-0.5-1-0.7-1.6l-0.5-1.7c-0.1-0.6-0.2-1.1-0.3-1.7c-0.1-0.6-0.1-1.1-0.1-1.7l0-0.8l0-0.8
				c0-1.1,0.2-2.2,0.3-3.3c0.2-1.1,0.4-2.1,0.7-3.2c0.1-0.5,0.3-1,0.5-1.5c0.2-0.5,0.3-1,0.5-1.5c0.4-1,0.8-2,1.2-2.9
				c0.5-1,0.9-1.9,1.5-2.9l-0.1,0.2c0.6-1.5,1.3-2.9,1.9-4.4c0.3-0.7,0.6-1.5,1-2.2c0.3-0.7,0.7-1.4,1.1-2.1l4.4-8.6l4.4-8.5
				L91.6,59.9z"/>
		</g>
		<path fill="none" stroke="#493016" stroke-width="1.8321" stroke-miterlimit="10" d="M145.3,94.6c0,0-7-7.3-12.3,7.2
			c0,0,4.7,1.7,13.3,4.2l6,1.4"/>
		<path fill="none" stroke="#493016" stroke-width="1.8321" stroke-miterlimit="10" d="M118.7,110.9c0,0,17.4-28.3,26-16.3"/>
		<path fill="none" stroke="#493016" stroke-width="2.4428" stroke-miterlimit="10" d="M105.2,50.4c0,0-11.2,32-2.4,38.5
			c7.5,5.6,17.8,24.6,16.6,22"/>
		<path fill="none" stroke="#493016" stroke-width="1.8321" stroke-miterlimit="10" d="M105.1,91.4c0,0,8.4,20,9.6,24.6"/>
		<path fill="none" stroke="#493016" stroke-width="2.4428" stroke-miterlimit="10" d="M133,101.9c0,0-36.4,17.9-16,39.8
			c0,0,19.6-23.8,34.7-25.7"/>
		<path fill="none" stroke="#493016" stroke-width="2.4428" stroke-miterlimit="10" d="M121.5,136.6c0,0,5.1,5.7-1.7,16.4
			c0,0-17.4-3.7-6.7-16.4"/>
		<path fill="none" stroke="#493016" stroke-width="2.4428" stroke-miterlimit="10" d="M119.8,152.9c0,0,7.4,4.2-2.9,12.2
			c0,0-7.7-2.6-2.7-14.4"/>
		<g>
			<path fill="#493016" d="M119.9,161.8c0.8,0.4,1.5,0.9,2.1,1.4c0.3,0.3,0.7,0.5,1,0.8c0.3,0.3,0.7,0.6,0.9,0.9
				c0.3,0.3,0.6,0.7,0.9,1c0.3,0.4,0.5,0.8,0.8,1.2c0.2,0.5,0.4,1,0.5,1.6c0.1,0.3,0,0.7,0,1.1l-0.1,0.8c-0.1,0.4-0.2,0.8-0.3,1.2
				l-0.4,1.3c-0.1,0.5-0.3,0.9-0.5,1.3c-0.2,0.4-0.3,0.8-0.5,1.2c-0.4,0.8-0.8,1.5-1.2,2.3c-0.2,0.4-0.4,0.7-0.7,1.1
				c-0.2,0.4-0.5,0.7-0.8,1.1l-1.7,2.4l-1.7-2.2l-0.7-0.9l-0.7-0.9c-0.4-0.6-0.8-1.2-1.2-1.9c-0.4-0.7-0.8-1.3-1.1-2
				c-0.3-0.7-0.6-1.5-0.9-2.3c-0.1-0.4-0.2-0.9-0.2-1.4l0-0.2l0-0.3l0-0.3l0.1-0.5c0.1-0.7,0.2-1.4,0.3-2.2c0.1-0.7,0.2-1.4,0.4-2.2
				c0.2-0.7,0.4-1.5,0.6-2.2l0.2,0l0,2.2c0,0.7,0,1.4,0,2.2l0,2.2c0,0.3,0,0.7,0.1,1.1c0,0.3,0.2,0.7,0.3,1c0.5,1.3,1.3,2.5,2.1,3.7
				c0.8,1.2,1.7,2.3,2.6,3.4l-0.4,0c0.9-1.4,1.8-2.7,2.5-4.2c0.2-0.4,0.4-0.7,0.5-1.1c0.2-0.4,0.4-0.7,0.5-1.1l0.5-1.1l0.4-1.2
				c0.1-0.4,0.2-0.8,0.2-1.1c0-0.4-0.1-0.8-0.3-1.1c-0.1-0.4-0.3-0.7-0.5-1.1c-0.2-0.4-0.4-0.7-0.6-1c-0.9-1.4-2-2.6-3.1-3.8
				L119.9,161.8z"/>
		</g>
		<line fill="none" stroke="#493016" stroke-width="1.8321" stroke-miterlimit="10" x1="164.5" y1="121.7" x2="138.4" y2="121.8"/>
		<path fill="none" stroke="#493016" stroke-width="1.8321" stroke-miterlimit="10" d="M133,125.8c0,0,6.8,19.9,9.3,14.6
			c2.6-5.3,2.3-10.2,2.3-10.2"/>
		<path fill="none" stroke="#493016" stroke-width="2.4428" stroke-miterlimit="10" d="M134.6,130.1c0,0,11.8,0,17.1,0"/>
		<path fill="none" stroke="#493016" stroke-width="1.8321" stroke-miterlimit="10" d="M141.7,53.7c0,0,1.3,6.6-2.7,11.1
			c0,0-15.5-3.8-21.5-5c-6-1.1-11.8,6.5-11.8,6.5l5.1-10.3l-5.1,1.5l8.6-7.2c0,0,12,2.6,16.9,4.1C136.2,56.1,139,55.6,141.7,53.7z"
			/>
		<path d="M140.2,64.7c-3.3,4.5-7.6,7.4-7.6,7.4s-9.9,6.8-20.3-5.5c0,0,2-8.8,10.1-5.6"/>
		<g>
			<path fill="#493016" d="M111,75.2l1.5,1.2l0.8,0.5c0.3,0.2,0.5,0.4,0.8,0.5c0.6,0.3,1.1,0.7,1.7,0.9l0.9,0.4l0.9,0.3
				c0.3,0.1,0.6,0.2,0.9,0.3c0.3,0.1,0.6,0.2,0.9,0.2c0.3,0,0.6,0.1,0.9,0.1c0.3,0,0.6,0.1,0.9,0c0.6,0,1.2,0,1.8-0.2
				c0.3-0.1,0.6-0.1,0.9-0.2c0.3-0.1,0.6-0.2,0.8-0.3l0,0l0.1,0c0.5-0.2,1.1-0.5,1.6-0.8c0.5-0.3,1.1-0.6,1.6-0.9c1-0.6,2-1.4,3-2.1
				l1.4-1.2l1.4-1.2l1.4-1.2c0.5-0.4,1.1-0.8,1.6-1.2l6.5-4.6l-4.9,6.5l-2.4,3.1l-1.2,1.6c-0.4,0.5-0.8,1.1-1.2,1.6
				c-0.4,0.5-0.7,1.1-1.1,1.6c-0.4,0.5-0.7,1.1-1.1,1.7l-0.5,0.8c-0.2,0.3-0.4,0.6-0.5,0.9c-0.3,0.6-0.6,1.2-0.9,1.8l-0.2-0.1
				c0.1-0.7,0.2-1.3,0.3-2c0.1-0.7,0.4-1.3,0.6-2c0.1-0.3,0.2-0.7,0.3-1l0.4-0.9c0.3-0.6,0.6-1.3,0.9-1.9c0.6-1.2,1.3-2.4,2.1-3.5
				c0.8-1.1,1.5-2.2,2.4-3.3l1.6,1.8l-1.5,0.9l-1.5,1.1l-1.5,1.1c0,0-0.2,0.1-0.1,0.1l-0.2,0.1l-0.4,0.3l-0.8,0.6
				c-1.1,0.7-2.2,1.4-3.3,2c-0.6,0.3-1.1,0.6-1.7,0.9c-0.6,0.3-1.2,0.5-1.8,0.8l0.1,0c-0.4,0.2-0.7,0.3-1.1,0.4
				c-0.3,0.1-0.7,0.2-1,0.2c-0.7,0.1-1.4,0.1-2.1,0.1c-0.3,0-0.7-0.1-1-0.1c-0.3,0-0.7-0.1-1-0.2c-0.3-0.1-0.7-0.2-1-0.3
				c-0.3-0.1-0.7-0.2-1-0.4l-0.9-0.4l-0.9-0.5c-0.6-0.3-1.1-0.7-1.7-1.1c-0.3-0.2-0.5-0.4-0.8-0.6l-0.8-0.6l-1.4-1.4L111,75.2z"/>
		</g>
		<path fill="#382510" d="M146.2,106c0,0-4.3-0.7-4.9-1.9c-0.6-1.1,7.4-7.5,6.6-3.7C147.1,104.3,146.2,106,146.2,106z"/>
		<g>
			<path fill="#493016" d="M192.4,75.6L191,77l-0.8,0.6c-0.3,0.2-0.5,0.4-0.8,0.6c-0.5,0.3-1.1,0.8-1.7,1.1l-0.9,0.5l-0.9,0.4
				c-0.3,0.1-0.6,0.2-0.9,0.3c-0.3,0.1-0.6,0.2-1,0.3c-0.3,0.1-0.7,0.2-1,0.2c-0.3,0-0.7,0.1-1,0.1c-0.7,0-1.4,0-2-0.1
				c-0.3,0-0.7-0.1-1-0.2c-0.3-0.1-0.7-0.2-1-0.4l0.1,0c-0.6-0.2-1.2-0.5-1.8-0.7c-0.6-0.3-1.1-0.5-1.7-0.8c-1.1-0.6-2.2-1.3-3.2-2
				l-0.8-0.6l-0.4-0.3l-0.2-0.1c0,0-0.1-0.1-0.1-0.1l-1.5-1.1l-1.5-1.1l-1.4-0.9l1.6-1.8c0.9,1,1.6,2.1,2.4,3.2
				c0.7,1.1,1.4,2.3,2,3.4c0.3,0.6,0.6,1.2,0.9,1.8l0.4,0.9c0.1,0.3,0.2,0.6,0.3,1c0.2,0.6,0.5,1.3,0.6,1.9c0.1,0.7,0.2,1.3,0.3,2
				l-0.2,0.1c-0.3-0.6-0.6-1.2-0.9-1.7c-0.1-0.3-0.3-0.6-0.5-0.8l-0.5-0.8c-0.3-0.5-0.7-1.1-1-1.6c-0.4-0.5-0.7-1.1-1.1-1.6
				c-0.4-0.5-0.8-1-1.1-1.6l-1.2-1.5l-2.3-3.1l-4.9-6.5l6.5,4.7c0.5,0.4,1.1,0.8,1.6,1.2l1.4,1.2l1.4,1.2l1.4,1.2
				c0.9,0.7,1.9,1.4,2.9,2.1c0.5,0.3,1,0.6,1.5,0.9c0.5,0.3,1.1,0.6,1.6,0.8l0.1,0l0,0c0.2,0.1,0.5,0.2,0.8,0.3
				c0.3,0.1,0.6,0.2,0.9,0.2c0.6,0.1,1.2,0.2,1.8,0.2c0.3,0,0.6,0,0.9,0c0.3,0,0.6-0.1,0.9-0.1c0.3,0,0.6-0.1,0.9-0.2
				c0.3-0.1,0.6-0.1,0.9-0.2l0.9-0.3l0.9-0.4c0.6-0.2,1.1-0.6,1.7-0.9c0.3-0.2,0.5-0.3,0.8-0.5l0.8-0.5l1.5-1.2L192.4,75.6z"/>
		</g>
		<g>
			<path fill="#493016" d="M184.4,163c-0.4,0.8-0.9,1.7-1.3,2.5l-0.6,1.2c-0.2,0.4-0.4,0.8-0.5,1.2c-0.2,0.4-0.3,0.8-0.5,1.2
				c-0.1,0.4-0.2,0.8-0.3,1.1c0,0.2-0.1,0.3-0.1,0.5c0,0.1,0,0.1,0,0.2c0,0.1,0,0.1,0,0.1c0,0.1,0.1,0.1,0.1,0.2l0,0l0,0v0v0
				c0,0,0,0.1,0-0.1l0,0l0.1,0.1l0.2,0.3c0.3,0.4,0.5,0.8,0.7,1.2l0.7,1c0.2,0.3,0.5,0.7,0.8,1l0.8,1c0.6,0.7,1.1,1.3,1.7,2
				c0.3,0.3,0.6,0.6,0.9,1c0.3,0.3,0.6,0.7,0.9,0.9l-3.2,0.2l0.7-0.9l0.7-0.9l1.3-1.9c0.4-0.6,0.8-1.3,1.2-1.9
				c0.4-0.6,0.8-1.3,1-1.8c0.1-0.3,0.2-0.6,0.3-0.8c0-0.1,0.1-0.2,0.1-0.3l0-0.6c0-0.8,0-1.6,0.1-2.4l0.2-2.4c0-0.8,0.1-1.6,0.2-2.4
				l0.2,0l0.4,2.4c0.1,0.8,0.2,1.6,0.3,2.4l0.3,2.4c0,0.4,0.1,0.8,0.1,1.2c0,0.4-0.1,0.8-0.3,1.2c-0.2,0.8-0.6,1.5-0.9,2.2
				c-0.4,0.7-0.7,1.4-1.2,2.1c-0.8,1.4-1.7,2.7-2.6,4l-0.2,0.2l-0.2-0.2c-1.3-1.3-2.5-2.7-3.7-4.2c-0.3-0.4-0.5-0.7-0.8-1.1
				c-0.3-0.4-0.5-0.8-0.8-1.2l-0.7-1.2l-0.6-1.2c-0.2-0.4-0.4-0.9-0.4-1.4c0-0.2,0-0.5,0.1-0.7c0-0.2,0.1-0.5,0.2-0.7
				c0.1-0.5,0.3-0.9,0.5-1.3c0.2-0.4,0.4-0.8,0.7-1.2c1-1.6,2.1-3,3.4-4.4L184.4,163z"/>
		</g>
		<path fill="none" stroke="#493016" stroke-width="1.8321" stroke-miterlimit="10" d="M155.9,7.1c0,2.3-1.9,4.1-4.1,4.1
			c-2.3,0-4.1-1.9-4.1-4.1c0-2.3,1.9-4.1,4.1-4.1C154,3,155.9,4.9,155.9,7.1z"/>
		<circle fill="none" stroke="#493016" stroke-width="1.8321" stroke-miterlimit="10" cx="151.7" cy="31.4" r="4.1"/>
		<circle fill="none" stroke="#493016" stroke-width="1.8321" stroke-miterlimit="10" cx="151.7" cy="55.6" r="4.1"/>
		<circle fill="none" stroke="#493016" stroke-width="1.8321" stroke-miterlimit="10" cx="151.7" cy="79.8" r="4.1"/>
		<circle fill="none" stroke="#493016" stroke-width="1.2214" stroke-miterlimit="10" cx="125.4" cy="38.9" r="2.8"/>
		<path fill="none" stroke="#493016" stroke-width="1.2214" stroke-miterlimit="10" d="M111.8,43.2c0,1.5-1.3,2.8-2.8,2.8
			c-1.5,0-2.8-1.3-2.8-2.8c0-1.5,1.3-2.8,2.8-2.8C110.5,40.4,111.8,41.6,111.8,43.2z"/>
		<circle fill="none" stroke="#493016" stroke-width="1.2214" stroke-miterlimit="10" cx="176.1" cy="38.3" r="2.8"/>
		<path fill="none" stroke="#493016" stroke-width="1.2214" stroke-miterlimit="10" d="M197.9,43.2c0,1.5-1.3,2.8-2.8,2.8
			c-1.5,0-2.8-1.3-2.8-2.8c0-1.5,1.3-2.8,2.8-2.8C196.6,40.4,197.9,41.6,197.9,43.2z"/>
	</g>
</g>
<g>
</g>
<g>
</g>
<g>
</g>
<g>
</g>
<g>
</g>
<g>
</g>
<g>
</g>
<g>
</g>
<g>
</g>
<g>
</g>
<g>
</g>
<g>
</g>
<g>
</g>
<g>
</g>
<g>
</g>
</svg>
