<?xml version="1.0" encoding="utf-8"?>
<!-- Generator: Adobe Illustrator 17.1.0, SVG Export Plug-In . SVG Version: 6.00 Build 0)  -->
<!DOCTYPE svg PUBLIC "-//W3C//DTD SVG 1.1//EN" "http://www.w3.org/Graphics/SVG/1.1/DTD/svg11.dtd">
<svg version="1.1" id="Layer_1" xmlns="http://www.w3.org/2000/svg" xmlns:xlink="http://www.w3.org/1999/xlink" x="0px" y="0px"
	 viewBox="0 0 370 439.7" enable-background="new 0 0 370 439.7" xml:space="preserve">
<g>
	<path fill="#FFDEC7" d="M173.5,102.9c0,0-31.3,2.9-37.5,9.1c0,0-10.1,32.4-3.7,35.7l4.6,4.5l9,24.3c0,0,10.9-11.9,18.3-14.1
		l18.7,5.6l19.1-5.6c0,0,17.1,10.8,18.7,14.1l9.9-24.6c0,0,9.3-6,5.8-17.4l-5.9-23.6c0,0-27-8.9-38-8.1l2.3,48.8l-11.7,7.7
		l-11.6-7.7C171.3,151.7,173.7,105.4,173.5,102.9z"/>
	<path fill="#6B6765" d="M162.9,56.8c0,0-29.8,16.7-36.6,47c0,0,22.8-12.3,47.2-11.9l-2.6-29.8C170.9,62.1,165.8,56,162.9,56.8z"/>
	<path fill="#6B6765" d="M192.4,91.9c0,0,34.9,1.1,48.3,14.1c0,0-9.5-35-38.7-50.8l-6.9,6.9L192.4,91.9z"/>
	<path d="M140.6,73.3c0,0-14.7-16.1,4.9-23.8l-13.5-41c0,0-4,6.8-1.8,13.4L119.2,2.2c0,0-3,3.4,3.2,20.6c0,0-13.2-14.3-15.5-14.3
		c0,0,5.1,18.1,10.4,23.7l-14.8-13.6c0,0,2.7,19.9,9.7,29.9c0,0-10.2-9-12.1-10.1c0,0,4.6,23,11.2,31.7l-11.2-6.6
		c0,0,5.5,13.2,16.1,20.3c0,0-9.9-3.7-16.1-2.3c0,0,4.4,7.7,15.9,8.8c0,0-10.4,2.5-10.8,10.3c0,0,8.6-1.2,12.4-2.7
		c0,0-5.9,4.7-4.8,13.7c0,0,7.4-2.5,9-8c0,0-1.6,8,0.9,12.7l3.6-11.1l-1-1.6C125.3,103.8,131.6,84.8,140.6,73.3z"/>
	<path d="M225.6,73.9c0,0,14.1,19,15.1,29.8l2.6,12.4c0,0,3.8-3.1,2.7-10.6c0,0,4.1,5,8.6,6.1c0,0,0.8-10-5.3-14
		c0,0,10.8,3.9,13.1,3c0,0-0.4-8.5-11-10.3c0,0,12-0.7,16.3-8.8c0,0-7.8-2-18.1,3.4c0,0,18.1-12.1,18.1-21.7l-11.4,6.9
		c0,0,10.6-17.4,11.4-31.7l-12.4,10.1c0,0,10-19,9.9-29.9l-14.8,13c0,0,7.3-7.4,10.3-23.1c0,0-15.1,11.9-15.9,14.3
		c0,0,5.3-12.2,3.3-20.6l-10.7,19.9c0,0,1-9.5-2.3-13.6l-13.9,41C221.1,49.6,241.5,55.8,225.6,73.9z"/>
	<g>
		<g>
			<g>
				<path fill="#EDE6E4" d="M266.4,200.7c0,0-11.3-8.1-3.4-22.5c7.9-14.4-18.9-53.1-18.7-57.6c0,0-7.3-8.2-13.6-8.5
					c0,0,11.4,31.4,2.2,37.5c0,0-3.3,1.6-12.1,26.4c0,0-15.3-12.8-17.9-12.8c0,0,2.4-1.8-19.5,5l-19.3-5.6c0,0-13.4,6.8-18.3,14.1
					l-9-24c0,0-14-6.9-0.9-40.6c0,0-11,3.3-13.3,8.5c0,0-20.1,45.6-20.1,51c0,5.4,12.7,20.6-1.5,29.1l10.8-2.3c0,0-11,16.7,0,28.2
					c11,11.6,13.9,11.1,12.8,19.5l3.2-5.3c0,0,5.6,22.6,37,31.5l-3-6.3c0,0,18,12.6,20.8,17.9c0,0,9.2-10.9,21.4-17.9l-3.1,6.3
					c0,0,36.1-13,37.9-31.5l3.3,5.3c0,0-0.5-10.6,13.1-19.5c13.6-8.9,0-28.2,0-28.2L266.4,200.7z"/>
			</g>
		</g>
	</g>
	<g>
		<g>
			<g>
				<path fill="#FFDEC7" d="M182.2,176.6c-3.9-0.9-18,9.9-18,9.9c10.3,31.7,11.7,4.3,11.7,4.3h13.7c3.4,26.8,12.3-4.3,12.3-4.3
					C193.4,178.7,186.1,177.5,182.2,176.6z"/>
			</g>
		</g>
	</g>
	<path fill="#EDE6E4" d="M172.9,114.4c0,0,0.6,8.5-2.7,11.1l-23.1-5.1c0,0-8.3,2.4-9,4.2l3.9-7.9l-3.9,0.5l7.4-6.2
		C145.5,111,172.4,119.8,172.9,114.4z"/>
	<path fill="#EDE6E4" d="M193,114.4c0,0,0.4,5.5,28.1-3.3l6.6,5.4l-3.1,0.2l3.4,8.3c0,0-1.9-9.8-30.6,0.5
		C197.4,125.5,192.2,125.7,193,114.4z"/>
	<path fill="#84726A" d="M200.3,54c0,0-17.1-13.5-36.1,1.3l6.8,6.9c0,0,6.6,47.8,0.4,89.6l10.9,8.2l12.5-8.2c0,0-5.9-62.4,0.4-89.6
		C195,62.1,204,52.8,200.3,54z"/>
	<path fill="#84726A" d="M126.7,105.1l-2.9,12.8c0,0,16.3-13.2,49.1-14.9V92.4C173,92.4,145.6,92.6,126.7,105.1z"/>
	<path fill="#84726A" d="M192.9,92.4c0,0,33.1,1.4,47.6,14.1l2.6,11.7c0,0-13.7-13.9-50.2-15.3V92.4z"/>
	<path fill="#FFFCFA" d="M197.2,126.3c0,0,5.6-2.3,17.3-4.9c0,0,6.8,5.1,7.2,8.2C221.7,129.5,208.7,136.4,197.2,126.3z"/>
	<path fill="#00A1E0" d="M203.7,129.8c0,0,3.7,3,11.1,1.2c0,0,1.4-5.8-5.2-6.5C202.9,123.9,203.7,129.8,203.7,129.8z"/>
	<g>
		<circle fill="#CEC7C2" cx="182.4" cy="67.8" r="4.2"/>
		<circle fill="#CEC7C2" cx="182.4" cy="92.3" r="4.2"/>
		<circle fill="#CEC7C2" cx="182.4" cy="116.8" r="4.2"/>
		<circle fill="#CEC7C2" cx="182.4" cy="140.6" r="4.2"/>
		<circle fill="#CEC7C2" cx="226.1" cy="104.2" r="2.7"/>
		<circle fill="#CEC7C2" cx="207.1" cy="99.3" r="2.7"/>
		<circle fill="#CEC7C2" cx="156.4" cy="99.9" r="2.7"/>
		<circle fill="#CEC7C2" cx="139.3" cy="104.2" r="2.7"/>
		<path fill="#CEC7C2" d="M186.1,52.9h-8.4c0,0,1.9-7.7,4.2-8.7C184.2,43.2,186.1,52.9,186.1,52.9z"/>
	</g>
	<g>
		<path fill="none" stroke="#382510" stroke-width="2.4452" stroke-miterlimit="10" d="M224,75.1c0,0,17.3-17.1-3.4-25.5l13.9-41
			c0,0,4.6,6.1,1.4,15.3l11.7-21.6c0,0,3.3,3.1-3.3,20.6c0,0,13.4-14.3,15.9-14.3c0,0-1.6,11.3-11.7,25.2l16.2-15.1
			c0,0-1.4,15-9.9,29.9c0,0,8.7-7.8,12.4-10.1c0,0-1.2,14.5-11.4,31.7l11.4-6.9c0,0-2,11.3-19.1,22.4c0,0,9.7-6.3,19.1-4.1
			c0,0-2,6.5-16.3,8.8c0,0,10.6,1.9,11,10.3c0,0-5.3,0-13.9-3.4c0,0,7.3,3.4,6.1,14.5c0,0-6.9-2.7-8.6-6.1c0,0,0.6,6.9-2.3,12.3"/>
		<g>
			<g>
				<path fill="#3D3936" d="M200.3,57.4c18.9,7.3,32.4,28.3,38.1,47.2c0.6,1.9,3.5,1.1,2.9-0.8c-6-20-19.9-41.5-40.3-49.4
					C199.2,53.8,198.5,56.7,200.3,57.4L200.3,57.4z"/>
			</g>
		</g>
		<g>
			<path fill="#727272" d="M243.7,120.5l4.6,8.5l4.5,8.5l4.4,8.6c0.7,1.4,1.5,2.9,2.1,4.3c0.6,1.5,1.3,2.9,2,4.4l-0.1-0.2
				c0.6,1,1.1,1.9,1.5,2.9c0.5,1,0.9,1.9,1.3,2.9c0.2,0.5,0.4,1,0.5,1.5c0.2,0.5,0.3,1,0.5,1.5c0.3,1,0.5,2.1,0.8,3.2
				c0.2,1.1,0.3,2.2,0.3,3.3c0,0.6,0,1.1,0,1.7c0,0.6,0,1.1-0.1,1.7c-0.1,0.6-0.2,1.1-0.3,1.7l-0.5,1.7c-0.2,0.6-0.5,1.1-0.7,1.6
				l-0.4,0.7l-0.4,0.7l-0.7,1.3l-0.5,1.3l-0.3,0.6l-0.2,0.7c-0.1,0.4-0.3,0.9-0.4,1.3l-0.3,1.3l-0.1,1.3c0,0.9,0,1.8,0.1,2.7
				c0.1,0.9,0.4,1.7,0.7,2.6c0.1,0.4,0.4,0.8,0.5,1.2c0.2,0.4,0.5,0.8,0.7,1.2c0.5,0.7,1.1,1.5,1.7,2.1c0.6,0.7,1.4,1.2,2.1,1.8
				l6.5,4.9l-7.9-1.6l-11.1-2.3l1.9-2.8c0.7,1.1,1.3,2.1,1.9,3.2c0.6,1.1,1.1,2.2,1.6,3.3c1,2.2,1.7,4.6,2.2,7
				c0.2,1.2,0.4,2.5,0.4,3.8c0,1.3-0.1,2.6-0.3,3.9c-0.3,1.3-0.7,2.6-1.2,3.8c-0.6,1.2-1.3,2.3-2.2,3.3c-0.4,0.5-0.9,0.9-1.4,1.4
				c-0.5,0.4-1,0.8-1.5,1.3c-0.9,0.6-1.8,1.3-2.7,2c-1.7,1.4-3.4,3-4.9,4.6c-1.5,1.6-2.8,3.4-3.7,5.3c-0.9,1.9-1.4,3.8-1.1,5.7
				l0.6,3.6l-3.2-1.6c-0.3-0.2-0.4-0.2-0.6-0.4c-0.2-0.1-0.3-0.2-0.4-0.3c-0.3-0.2-0.5-0.5-0.8-0.7c-0.2-0.3-0.4-0.5-0.6-0.8
				c-0.2-0.3-0.4-0.6-0.5-0.8c-0.2-0.3-0.3-0.6-0.4-0.9l-0.4-0.9c-0.1-0.3-0.2-0.6-0.3-0.9l-0.2-0.9l3.6-0.1
				c-0.1,0.7-0.3,1.2-0.4,1.8c-0.1,0.6-0.4,1.1-0.5,1.7c-0.4,1.1-0.9,2.1-1.4,3.1c-0.5,1-1.1,2-1.7,2.9c-0.6,1-1.3,1.8-1.9,2.8
				c-0.7,0.9-1.4,1.7-2.2,2.6c-0.8,0.8-1.6,1.6-2.4,2.4c-0.8,0.8-1.7,1.5-2.5,2.2c-0.4,0.4-0.8,0.7-1.3,1.1l-1.3,1
				c-0.9,0.6-1.8,1.3-2.7,1.9l-2.8,1.7c-0.9,0.6-1.9,1.1-2.9,1.6l-2.9,1.5c-1,0.5-2,0.9-3,1.3c-1,0.4-2,0.9-3,1.3l-6.2,2.2l-5.2,1.9
				l3.2-4.7l0.2-0.3c0.1-0.1,0.1-0.2,0.2-0.3l0.4-0.7c0.3-0.5,0.5-1,0.7-1.4c0.1-0.2,0.3-0.5,0.4-0.7l0.3-0.7l0.7-1.5l2.6,1.9
				c-4,2.5-8,5.1-11.8,7.7c-1.9,1.3-3.8,2.7-5.7,4.2c-0.9,0.7-1.8,1.5-2.7,2.3c-0.4,0.4-0.8,0.8-1.2,1.3c-0.4,0.5-0.8,0.9-0.9,1.5
				c0.1-0.6,0.4-1.1,0.7-1.6c0.3-0.5,0.7-1,1.1-1.4c0.8-0.9,1.6-1.8,2.4-2.7c1.7-1.7,3.4-3.3,5.2-4.9c1.8-1.6,3.6-3.1,5.4-4.6
				c1.8-1.5,3.7-3,5.6-4.5l4.2-3.3l-1.6,5.1l-0.6,1.8l-0.3,0.9c-0.1,0.3-0.3,0.6-0.4,0.9c-0.1,0.3-0.3,0.6-0.4,0.9
				c-0.2,0.3-0.3,0.6-0.5,0.8l-0.5,0.8c-0.1,0.1-0.2,0.3-0.3,0.4l-0.3,0.4l-2-2.9l5.9-2.1c1-0.4,1.9-0.8,2.9-1.2
				c1-0.4,1.9-0.8,2.9-1.3l2.8-1.4c0.9-0.5,1.9-0.9,2.7-1.5l2.7-1.6c0.9-0.5,1.7-1.2,2.5-1.8l1.3-0.9c0.4-0.3,0.8-0.7,1.2-1
				c0.8-0.7,1.6-1.3,2.3-2c0.7-0.7,1.5-1.4,2.2-2.2l2-2.3c0.6-0.8,1.2-1.6,1.8-2.5c0.5-0.9,1.1-1.7,1.5-2.6c0.5-0.9,0.9-1.8,1.2-2.7
				c0.1-0.5,0.4-0.9,0.5-1.4c0.1-0.4,0.3-1,0.3-1.3l1.4-8.4l2.2,8.2l0.2,0.7c0.1,0.2,0.1,0.4,0.2,0.6l0.2,0.6
				c0.1,0.2,0.2,0.4,0.3,0.6c0.1,0.2,0.2,0.4,0.3,0.5c0.1,0.1,0.2,0.3,0.4,0.5c0.1,0.1,0.3,0.3,0.4,0.4c0.1,0,0.1,0.1,0.2,0.2
				c0,0,0.2,0.1,0.1,0.1l-2.6,2c-0.2-1.4-0.2-2.8,0.1-4.1c0.3-1.3,0.7-2.6,1.3-3.7c1.1-2.3,2.6-4.3,4.2-6.1c1.6-1.8,3.4-3.5,5.3-5
				c0.9-0.8,1.9-1.5,2.9-2.2c0.3-0.3,0.8-0.6,1.2-0.9c0.4-0.4,0.8-0.7,1.1-1.1c0.7-0.7,1.2-1.6,1.7-2.5c0.4-0.9,0.7-1.9,0.9-2.9
				c0.2-1,0.3-2,0.2-3.1c0-1.1-0.2-2.1-0.3-3.2c-0.4-2.1-1.1-4.2-2-6.3c-0.4-1-0.9-2-1.4-3c-0.5-1-1.1-2-1.7-2.8l-2.5-3.8l4.4,0.9
				l11.1,2.3l-1.4,3.3c-0.9-0.7-1.8-1.4-2.6-2.2c-0.8-0.8-1.5-1.7-2.2-2.6c-0.3-0.5-0.6-1-0.9-1.5c-0.2-0.5-0.5-1-0.7-1.6
				c-0.4-1.1-0.7-2.2-0.9-3.4c-0.2-1.1-0.2-2.3-0.1-3.4l0.2-1.7l0.4-1.7c0.1-0.6,0.3-1.1,0.5-1.6l0.3-0.8l0.3-0.8l0.7-1.6l0.7-1.3
				l0.4-0.7l0.1-0.1l0-0.1l0.1-0.1l0.1-0.3c0.2-0.4,0.4-0.8,0.5-1.2l0.4-1.3c0.1-0.4,0.1-0.9,0.2-1.3c0.1-0.4,0.1-0.9,0.1-1.4
				c0-0.5,0-0.9,0-1.4c0-0.9-0.2-1.9-0.3-2.8c-0.2-0.9-0.4-1.9-0.7-2.8c-0.1-0.5-0.3-0.9-0.4-1.4c-0.1-0.5-0.3-0.9-0.5-1.4
				c-0.3-0.9-0.7-1.8-1.2-2.7c-0.4-0.9-0.9-1.8-1.3-2.5l-0.1-0.1l0-0.1c-0.7-1.5-1.3-2.9-2-4.4c-0.7-1.4-1.3-2.9-1.9-4.4l-3.5-9
				l-3.5-9L243.7,120.5z"/>
		</g>
		<path fill="none" stroke="#C6774F" stroke-width="1.8339" stroke-miterlimit="10" d="M216,172.2c0,0-18.2-28.6-27.1-16.6"/>
		<path fill="none" stroke="#C6774F" stroke-width="2.4452" stroke-miterlimit="10" d="M229.8,111c0,0,11.5,32,2.5,38.5
			c-9,6.5-17,22.7-17,22.7"/>
		<path fill="none" stroke="#C6774F" stroke-width="1.8339" stroke-miterlimit="10" d="M229.9,152c0,0-8.6,20-9.9,24.6"/>
		<path fill="none" stroke="#727272" stroke-width="2.4452" stroke-miterlimit="10" d="M213.1,197.3c0,0-5.2,5.7,1.7,16.4
			c0,0,17.8-3.7,6.9-16.4"/>
		<path fill="none" stroke="#727272" stroke-width="2.4452" stroke-miterlimit="10" d="M214.8,213.6c0,0-7.5,4.2,3,12.2
			c0,0,7.9-2.6,2.8-14.4"/>
		<path fill="none" stroke="#382510" stroke-width="2.4452" stroke-miterlimit="10" d="M182.2,180.8"/>
		<path fill="none" stroke="#C6774F" stroke-width="2.4452" stroke-miterlimit="10" d="M199.7,190.8c0,0-12.1,0-17.5,0"/>
		<path fill="none" stroke="#727272" stroke-width="1.8339" stroke-miterlimit="10" d="M192.4,114.4c0,0-0.9,9.3,2.8,11.1
			c0,0,15.9-3.8,22-5c6.1-1.1,12.1,6.5,12.1,6.5l-5.3-10.3l5.3,1.5l-8.8-7.2c0,0-12.3,2.6-17.4,4.1
			C198.1,116.7,195.1,116.3,192.4,114.4z"/>
		<path fill="none" stroke="#2C5577" stroke-width="1.2226" stroke-miterlimit="10" d="M203.2,129.8c0,0,0-5.4,5.8-5.3
			c5.8,0.2,5.2,6.5,5.2,6.5"/>
		<path fill="#382510" d="M187.8,166.7c0,0,4.4-0.7,5-1.9c0.6-1.1-7.5-7.5-6.7-3.7C186.9,165,187.8,166.7,187.8,166.7z"/>
		<path d="M206.3,130.6c0,0-0.1-3,2-3c3.3,0,2.2,3.4,2.2,3.4"/>
		<path fill="none" stroke="#382510" stroke-width="2.4452" stroke-miterlimit="10" d="M141.5,75.1c0,0-16.9-17.1,3.4-25.5l-13.5-41
			c0,0-4.5,5.8-1.4,15L118.6,2.2c0,0-3.2,3.1,3.2,20.6c0,0-13.1-14.3-15.5-14.3c0,0,1.6,11.3,11.4,25.2l-15.8-15.1
			c0,0,1.3,15,9.7,29.9c0,0-8.5-7.8-12.1-10.1c0,0,1.2,14.5,11.2,31.7l-11.2-6.9c0,0,1.9,11.3,18.7,22.4c0,0-9.5-6.3-18.7-4.1
			c0,0,2,6.5,15.9,8.8c0,0-10.4,1.9-10.8,10.3c0,0,5.2,0,13.5-3.4c0,0-7.2,3.4-6,14.5c0,0,6.8-2.7,8.4-6.1c0,0-0.5,6.9,2.2,12.3"/>
		<path fill="none" stroke="#382510" stroke-width="1.8339" stroke-miterlimit="10" d="M182.3,52.6h-4.6c0,0,0.2-4.9,4.2-8.7
			c0,0,3.8,3.6,4.2,8.7H182.3z"/>
		<g>
			<g>
				<path fill="#3D3936" d="M163.8,54.5c-20.2,7.6-33.7,29.2-39.6,48.9c-0.6,1.9,2.4,2.7,2.9,0.8c5.5-18.6,18.4-39.6,37.4-46.8
					C166.5,56.7,165.7,53.8,163.8,54.5L163.8,54.5z"/>
			</g>
		</g>
		<g>
			<path fill="#727272" d="M182.2,283.8c-0.2-0.6-0.5-1-0.9-1.5c-0.4-0.4-0.8-0.8-1.2-1.2c-0.8-0.8-1.7-1.5-2.6-2.2
				c-1.8-1.4-3.7-2.8-5.6-4.1c-3.8-2.6-7.6-5.1-11.5-7.5l2.6-1.9l0.7,1.5l0.3,0.7c0.1,0.3,0.2,0.5,0.4,0.7c0.1,0.2,0.3,0.5,0.4,0.7
				c0.1,0.2,0.2,0.5,0.4,0.7l0.4,0.7c0.1,0.1,0.1,0.2,0.2,0.3l0.2,0.3l3.1,4.8l-5.2-1.9l-6.1-2.2l-3-1.3c-1-0.4-2-0.9-3-1.3
				l-2.9-1.5c-1-0.5-1.9-1-2.8-1.6l-2.8-1.7c-0.9-0.6-1.8-1.3-2.6-1.9l-1.3-1l-1.2-1.1c-0.8-0.7-1.7-1.4-2.4-2.2
				c-0.8-0.8-1.6-1.6-2.3-2.4c-0.7-0.9-1.4-1.7-2.1-2.6c-0.6-0.9-1.3-1.8-1.9-2.7c-0.6-1-1.2-1.9-1.6-2.9c-0.5-1-0.9-2-1.3-3.1
				c-0.2-0.5-0.4-1.1-0.5-1.6c-0.2-0.6-0.3-1.1-0.4-1.8l3.6,0.1l-0.2,0.9c-0.1,0.3-0.1,0.6-0.3,0.9l-0.4,0.9
				c-0.1,0.3-0.3,0.6-0.4,0.9c-0.2,0.3-0.3,0.6-0.5,0.8l-0.3,0.4c-0.1,0.1-0.2,0.3-0.3,0.4c-0.3,0.2-0.5,0.5-0.8,0.7
				c-0.1,0.1-0.3,0.2-0.4,0.3c-0.2,0.1-0.3,0.2-0.6,0.4l-3.2,1.6l0.6-3.6c0.3-1.8-0.1-3.8-1-5.7c-0.9-1.9-2.2-3.7-3.6-5.3
				c-1.4-1.7-3.1-3.2-4.8-4.6c-0.8-0.7-1.7-1.4-2.6-2l-0.2-0.2l-0.1-0.1l-0.2-0.1l-0.3-0.3c-0.2-0.2-0.4-0.3-0.7-0.6
				c-0.5-0.5-1-1-1.4-1.5c-0.9-1-1.6-2.1-2.1-3.3c-0.6-1.2-0.9-2.5-1.2-3.7c-0.5-2.6-0.3-5.1,0.1-7.6c0.5-2.4,1.2-4.8,2.2-7
				c0.5-1.1,1-2.2,1.5-3.3c0.6-1.1,1.1-2.1,1.9-3.2l1.9,2.8l-10.8,2.3l-7.8,1.6l6.3-4.9c0.7-0.6,1.4-1.1,2.1-1.8
				c0.6-0.6,1.2-1.4,1.7-2.1c0.2-0.4,0.5-0.8,0.7-1.2c0.2-0.4,0.4-0.8,0.5-1.2c0.3-0.8,0.5-1.7,0.7-2.6c0.1-0.9,0.1-1.8,0.1-2.7
				l-0.1-1.3l-0.3-1.3c-0.1-0.4-0.3-0.9-0.4-1.3l-0.2-0.7l-0.3-0.7l-0.6-1.3l-0.7-1.3l-0.3-0.6l-0.1-0.2l0-0.1l-0.1-0.2l-0.2-0.3
				l-0.3-0.7c-0.1-0.2-0.2-0.4-0.3-0.8c-0.2-0.6-0.4-1.2-0.6-1.8c-0.1-0.6-0.2-1.1-0.3-1.7c-0.1-0.6-0.1-1.1-0.1-1.7l0-0.8l0-0.8
				c0-1.1,0.2-2.2,0.3-3.3c0.2-1.1,0.4-2.1,0.7-3.2c0.1-0.5,0.3-1,0.5-1.5c0.2-0.5,0.3-1,0.5-1.5c0.4-1,0.8-2,1.2-2.9
				c0.5-1,0.9-1.9,1.5-2.9l-0.1,0.2c0.6-1.5,1.3-2.9,1.9-4.4c0.6-1.5,1.3-2.9,2.1-4.3l4.4-8.6l4.4-8.5l4.5-8.5l-3.3,9l-3.4,9l-3.4,9
				c-0.6,1.5-1.1,3-1.8,4.4c-0.7,1.4-1.3,2.9-2,4.4l0,0.1l-0.1,0.1c-0.4,0.8-0.9,1.7-1.3,2.5c-0.4,0.9-0.8,1.8-1.1,2.7
				c-0.2,0.5-0.3,0.9-0.5,1.4c-0.2,0.5-0.3,0.9-0.4,1.4c-0.3,0.9-0.5,1.9-0.7,2.8c-0.1,0.9-0.3,1.9-0.3,2.8l0,0.7l0,0.7
				c0,0.5,0,0.9,0.1,1.4l0.2,1.3c0.1,0.4,0.2,0.8,0.3,1.2c0,0.2,0.1,0.4,0.3,0.6l0.3,0.7l0.2,0.3l0.1,0.2l0,0.1l0,0
				c0,0-0.1-0.2-0.1-0.1l0,0l0,0l0.4,0.7l0.8,1.4l0.6,1.5l0.3,0.8l0.3,0.8c0.2,0.5,0.4,1,0.5,1.6l0.3,1.6c0.1,0.6,0.1,1.1,0.2,1.7
				c0.1,1.1,0,2.3-0.1,3.4c-0.2,1.1-0.5,2.3-0.9,3.3c-0.2,0.5-0.5,1.1-0.7,1.6c-0.3,0.5-0.6,1-0.9,1.5c-0.6,0.9-1.3,1.9-2.1,2.7
				c-0.8,0.8-1.6,1.5-2.5,2.2l-1.5-3.3l10.8-2.3l4.4-0.9l-2.5,3.7c-0.6,0.8-1.1,1.9-1.6,2.8c-0.5,1-1,2-1.4,3
				c-0.9,2-1.5,4.1-1.9,6.2c-0.4,2.1-0.5,4.2-0.1,6.2c0.2,1,0.5,2,0.9,2.9c0.4,0.9,0.9,1.8,1.6,2.5c0.3,0.4,0.7,0.7,1,1.1
				c0.1,0.2,0.4,0.4,0.6,0.5l0.6,0.5c1,0.7,1.9,1.5,2.9,2.2c1.8,1.5,3.6,3.2,5.2,5c1.6,1.8,3.1,3.8,4.2,6.2c0.5,1.2,1,2.4,1.2,3.7
				c0.3,1.3,0.3,2.7,0.1,4.1l-2.6-2c-0.1,0,0,0,0.1-0.1c0.1,0,0.1-0.1,0.2-0.2c0.1-0.1,0.3-0.3,0.4-0.4c0.1-0.1,0.2-0.3,0.4-0.5
				c0.1-0.1,0.2-0.4,0.3-0.5c0.1-0.2,0.2-0.4,0.3-0.6l0.2-0.6c0.1-0.2,0.1-0.4,0.2-0.6l0.2-0.7l2.2-8.4l1.4,8.5
				c0.1,0.3,0.2,0.8,0.3,1.3c0.1,0.5,0.3,0.9,0.4,1.4c0.4,0.9,0.7,1.8,1.2,2.7c0.4,0.9,1,1.7,1.5,2.6c0.5,0.9,1.1,1.6,1.7,2.5
				c0.6,0.8,1.3,1.6,1.9,2.3c0.7,0.8,1.4,1.5,2.1,2.2c0.7,0.7,1.5,1.4,2.3,2l1.2,1l1.2,0.9c0.8,0.6,1.6,1.2,2.5,1.8l2.6,1.6
				c0.9,0.6,1.8,1,2.7,1.5l2.7,1.4c0.9,0.5,1.9,0.8,2.8,1.3l2.8,1.2l5.9,2.1l-2,2.9l-0.3-0.4c-0.1-0.1-0.2-0.3-0.3-0.4l-0.5-0.8
				c-0.2-0.3-0.3-0.6-0.4-0.8c-0.1-0.3-0.3-0.6-0.4-0.9c-0.1-0.3-0.3-0.6-0.4-0.9l-0.3-0.9l-0.6-1.8l-1.6-5.1l4.1,3.2
				c1.9,1.4,3.7,2.9,5.5,4.3c1.8,1.5,3.6,3,5.3,4.5c1.7,1.5,3.4,3.1,5.1,4.8c0.8,0.8,1.6,1.7,2.3,2.6c0.4,0.5,0.7,0.9,1,1.4
				C181.8,282.7,182.1,283.2,182.2,283.8z"/>
		</g>
		<path fill="none" stroke="#C6774F" stroke-width="1.8339" stroke-miterlimit="10" d="M149.3,171.6c0,0,17.4-28.3,26.1-16.3"/>
		<path fill="none" stroke="#C6774F" stroke-width="2.4452" stroke-miterlimit="10" d="M135.8,111c0,0-11.2,32-2.5,38.5
			c7.5,5.6,17.8,24.6,16.6,22"/>
		<path fill="none" stroke="#C6774F" stroke-width="1.8339" stroke-miterlimit="10" d="M135.7,152c0,0,8.4,20,9.6,24.6"/>
		<path fill="none" stroke="#727272" stroke-width="2.4452" stroke-miterlimit="10" d="M152.1,197.3c0,0,5.1,5.7-1.7,16.4
			c0,0-17.4-3.7-6.7-16.4"/>
		<path fill="none" stroke="#727272" stroke-width="2.4452" stroke-miterlimit="10" d="M150.4,213.6c0,0,7.4,4.2-2.9,12.2
			c0,0-7.8-2.6-2.7-14.4"/>
		<g>
			<path fill="#727272" d="M150.5,222.5c0.8,0.4,1.5,0.9,2.2,1.4c0.3,0.3,0.7,0.5,1,0.8c0.3,0.3,0.7,0.6,0.9,0.9
				c0.3,0.3,0.6,0.7,0.9,1c0.3,0.4,0.5,0.8,0.8,1.2c0.2,0.5,0.4,1,0.5,1.6c0.1,0.3,0,0.7,0,1.1l-0.1,0.8c-0.1,0.4-0.2,0.8-0.3,1.2
				l-0.4,1.3c-0.1,0.5-0.3,0.9-0.5,1.3c-0.2,0.4-0.3,0.8-0.5,1.2c-0.4,0.8-0.8,1.5-1.2,2.3c-0.2,0.4-0.4,0.7-0.7,1.1
				c-0.2,0.4-0.5,0.7-0.8,1.1l-1.7,2.4l-1.7-2.2l-0.7-0.9l-0.7-0.9c-0.5-0.6-0.8-1.2-1.2-1.9c-0.4-0.7-0.8-1.3-1.1-2
				c-0.3-0.7-0.6-1.5-0.9-2.3c-0.1-0.4-0.2-0.9-0.2-1.4l0-0.4l0-0.3l0.1-0.5c0.1-0.7,0.2-1.4,0.3-2.2c0.1-0.7,0.2-1.4,0.4-2.2
				c0.2-0.7,0.4-1.5,0.6-2.2l0.2,0l0,2.2c0,0.7,0,1.4,0,2.2l0,2.2c0,0.4,0,0.7,0.1,1.1c0,0.3,0.2,0.7,0.3,1c0.5,1.3,1.3,2.5,2.1,3.7
				c0.8,1.2,1.7,2.3,2.6,3.4l-0.4,0c0.9-1.4,1.8-2.8,2.5-4.2c0.2-0.4,0.4-0.7,0.5-1.1c0.2-0.4,0.4-0.7,0.5-1.1l0.5-1.1l0.4-1.2
				c0.1-0.4,0.2-0.8,0.2-1.1c0-0.4-0.1-0.8-0.3-1.1c-0.1-0.4-0.3-0.7-0.5-1.1c-0.2-0.4-0.4-0.7-0.6-1c-0.9-1.4-2-2.6-3.1-3.8
				L150.5,222.5z"/>
		</g>
		<line fill="none" stroke="#C6774F" stroke-width="1.8339" stroke-miterlimit="10" x1="195.2" y1="182.3" x2="169" y2="182.4"/>
		<path fill="none" stroke="#C6774F" stroke-width="2.4452" stroke-miterlimit="10" d="M165.2,190.8c0,0,11.8,0,17.1,0"/>
		<path fill="none" stroke="#727272" stroke-width="1.8339" stroke-miterlimit="10" d="M172.3,114.4c0,0,1.3,6.6-2.7,11.1
			c0,0-15.5-3.8-21.5-5c-6-1.1-11.8,6.5-11.8,6.5l5.2-10.3l-5.2,1.5l8.6-7.2c0,0,12,2.6,17,4.1C166.8,116.7,169.7,116.3,172.3,114.4
			z"/>
		<path fill="#44302E" d="M170.8,125.3c-3.3,4.5-7.6,7.4-7.6,7.4s-9.9,6.8-20.3-5.5c0,0,2-8.8,10.1-5.6"/>
		<g>
			<path fill="#C6774F" d="M141.6,135.8l1.6,1.2l0.8,0.5c0.3,0.2,0.5,0.4,0.8,0.5c0.6,0.3,1.1,0.7,1.7,0.9l0.9,0.4l0.9,0.3
				c0.3,0.1,0.6,0.2,0.9,0.3c0.3,0.1,0.6,0.2,0.9,0.2c0.3,0,0.6,0.1,0.9,0.1c0.3,0,0.6,0.1,0.9,0c0.6,0,1.2,0,1.8-0.2
				c0.3-0.1,0.6-0.1,0.9-0.2c0.3-0.1,0.6-0.2,0.8-0.3l0,0l0.1,0c0.5-0.2,1.1-0.5,1.6-0.8c0.5-0.3,1.1-0.6,1.6-0.9c1-0.6,2-1.4,3-2.1
				l1.4-1.2l1.4-1.2l1.4-1.2c0.5-0.4,1.1-0.8,1.6-1.2l6.5-4.6l-4.9,6.5l-2.4,3.1l-1.2,1.6c-0.4,0.5-0.8,1.1-1.2,1.6
				c-0.4,0.5-0.7,1.1-1.1,1.6c-0.4,0.5-0.7,1.1-1.1,1.7l-0.5,0.8c-0.2,0.3-0.4,0.6-0.5,0.9c-0.3,0.6-0.6,1.2-0.9,1.8l-0.2-0.1
				c0.1-0.7,0.2-1.3,0.3-2c0.1-0.7,0.4-1.3,0.6-2c0.1-0.3,0.2-0.7,0.3-1l0.4-0.9c0.3-0.6,0.6-1.3,0.9-1.9c0.6-1.2,1.3-2.4,2.1-3.5
				c0.8-1.1,1.5-2.2,2.4-3.3l1.6,1.8l-1.5,0.9L166,135l-1.5,1.1c0,0-0.2,0.1-0.1,0.1l-0.2,0.2l-0.4,0.3l-0.8,0.6
				c-1.1,0.7-2.2,1.4-3.3,2.1c-0.6,0.3-1.1,0.6-1.7,0.9c-0.6,0.3-1.2,0.5-1.8,0.8l0.1,0c-0.4,0.2-0.7,0.3-1.1,0.4
				c-0.3,0.1-0.7,0.2-1.1,0.2c-0.7,0.1-1.4,0.1-2.1,0.1c-0.3,0-0.7-0.1-1-0.1c-0.3,0-0.7-0.1-1-0.2c-0.3-0.1-0.7-0.2-1-0.3
				c-0.3-0.1-0.7-0.2-1-0.4l-0.9-0.4l-0.9-0.5c-0.6-0.3-1.1-0.7-1.7-1.1c-0.3-0.2-0.5-0.4-0.8-0.6l-0.8-0.6l-1.4-1.4L141.6,135.8z"
				/>
		</g>
		<path fill="#382510" d="M176.9,166.7c0,0-4.3-0.7-4.9-1.9c-0.6-1.1,7.4-7.5,6.6-3.7C177.8,165,176.9,166.7,176.9,166.7z"/>
		<g>
			<path fill="#C6774F" d="M223.1,136.3l-1.4,1.3l-0.8,0.6c-0.3,0.2-0.5,0.4-0.8,0.6c-0.5,0.3-1.1,0.8-1.7,1.1l-0.9,0.5l-0.9,0.4
				c-0.3,0.1-0.6,0.2-0.9,0.3c-0.3,0.1-0.6,0.2-1,0.3c-0.3,0.1-0.7,0.2-1,0.2c-0.3,0-0.7,0.1-1,0.1c-0.7,0-1.4,0-2-0.1
				c-0.3,0-0.7-0.1-1-0.2c-0.3-0.1-0.7-0.2-1.1-0.4l0.1,0c-0.6-0.2-1.2-0.5-1.8-0.7c-0.6-0.3-1.1-0.5-1.7-0.8
				c-1.1-0.6-2.2-1.3-3.2-2l-0.8-0.6l-0.4-0.3l-0.2-0.1c0,0-0.1-0.1-0.1-0.1l-1.5-1.1l-1.5-1.1l-1.4-0.9l1.6-1.8
				c0.9,1,1.6,2.1,2.4,3.2c0.7,1.1,1.4,2.3,2,3.4c0.3,0.6,0.6,1.2,0.9,1.8l0.4,0.9c0.1,0.3,0.2,0.6,0.3,1c0.2,0.6,0.5,1.3,0.6,1.9
				c0.1,0.7,0.2,1.3,0.3,2l-0.2,0.1c-0.3-0.6-0.6-1.2-0.9-1.7c-0.1-0.3-0.3-0.6-0.5-0.8l-0.5-0.8c-0.3-0.5-0.7-1.1-1-1.6
				c-0.4-0.5-0.7-1.1-1.1-1.6c-0.4-0.5-0.8-1-1.1-1.6l-1.2-1.5l-2.3-3.1l-4.9-6.5l6.5,4.7c0.5,0.4,1.1,0.8,1.6,1.2l1.4,1.2l1.4,1.2
				l1.4,1.2c0.9,0.7,1.9,1.4,2.9,2.1c0.5,0.3,1,0.6,1.6,0.9c0.5,0.3,1.1,0.6,1.6,0.8l0.1,0l0,0c0.2,0.1,0.5,0.2,0.8,0.3
				c0.3,0.1,0.6,0.2,0.9,0.2c0.6,0.1,1.2,0.2,1.8,0.2c0.3,0,0.6,0,0.9,0c0.3,0,0.6-0.1,0.9-0.1c0.3,0,0.6-0.1,0.9-0.2
				c0.3-0.1,0.6-0.1,0.9-0.2l0.9-0.3l0.9-0.4c0.6-0.2,1.1-0.6,1.7-0.9c0.3-0.2,0.5-0.3,0.8-0.5l0.8-0.5l1.5-1.2L223.1,136.3z"/>
		</g>
		<g>
			<path fill="#727272" d="M215.1,223.7c-0.4,0.8-0.9,1.7-1.3,2.5l-0.6,1.2c-0.2,0.4-0.4,0.8-0.5,1.2c-0.2,0.4-0.3,0.8-0.5,1.2
				c-0.1,0.4-0.2,0.8-0.3,1.1c0,0.2-0.1,0.3-0.1,0.5l0,0.2c0,0.1,0,0.1,0,0.1c0,0.1,0.1,0.1,0.1,0.2l0,0l0,0l0,0l0,0
				c0,0,0,0.1,0-0.1l0,0l0.1,0.1l0.2,0.3c0.3,0.4,0.5,0.8,0.7,1.2l0.7,1c0.2,0.3,0.5,0.7,0.8,1l0.8,1c0.6,0.7,1.1,1.3,1.7,2
				c0.3,0.3,0.6,0.6,0.9,1c0.3,0.3,0.6,0.7,0.9,0.9l-3.2,0.2l0.7-0.9l0.7-0.9l1.3-1.9c0.4-0.6,0.8-1.3,1.2-1.9
				c0.4-0.6,0.8-1.3,1-1.8c0.1-0.3,0.2-0.6,0.3-0.8c0-0.1,0.1-0.2,0.1-0.3l0-0.6c0-0.8,0-1.6,0.1-2.4l0.2-2.4c0-0.8,0.1-1.6,0.2-2.4
				l0.2,0l0.4,2.4c0.1,0.8,0.2,1.6,0.3,2.4l0.3,2.4c0,0.4,0.1,0.8,0.1,1.2c0,0.4-0.1,0.8-0.3,1.2c-0.2,0.8-0.6,1.5-0.9,2.2
				c-0.4,0.7-0.7,1.4-1.2,2.1c-0.8,1.4-1.7,2.7-2.7,4l-0.2,0.2l-0.2-0.2c-1.3-1.3-2.5-2.7-3.7-4.2c-0.3-0.4-0.5-0.7-0.8-1.1
				c-0.3-0.4-0.5-0.8-0.8-1.2l-0.7-1.2l-0.6-1.2c-0.2-0.4-0.4-0.9-0.4-1.4c0-0.2,0-0.5,0.1-0.7c0-0.2,0.1-0.5,0.2-0.7
				c0.1-0.5,0.3-0.9,0.5-1.3c0.2-0.4,0.4-0.8,0.7-1.2c1-1.6,2.1-3,3.4-4.4L215.1,223.7z"/>
		</g>
		<circle fill="none" stroke="#382510" stroke-width="1.8339" stroke-miterlimit="10" cx="182.3" cy="67.7" r="4.1"/>
		<circle fill="none" stroke="#382510" stroke-width="1.8339" stroke-miterlimit="10" cx="182.3" cy="92" r="4.1"/>
		<circle fill="none" stroke="#382510" stroke-width="1.8339" stroke-miterlimit="10" cx="182.3" cy="116.2" r="4.1"/>
		<circle fill="none" stroke="#382510" stroke-width="1.8339" stroke-miterlimit="10" cx="182.3" cy="140.5" r="4.1"/>
		<circle fill="none" stroke="#382510" stroke-width="1.2226" stroke-miterlimit="10" cx="156.1" cy="99.5" r="2.8"/>
		<path fill="none" stroke="#382510" stroke-width="1.2226" stroke-miterlimit="10" d="M142.4,103.8c0,1.5-1.3,2.8-2.8,2.8
			c-1.5,0-2.8-1.3-2.8-2.8c0-1.5,1.3-2.8,2.8-2.8C141.1,101,142.4,102.2,142.4,103.8z"/>
		<circle fill="none" stroke="#382510" stroke-width="1.2226" stroke-miterlimit="10" cx="206.8" cy="98.9" r="2.8"/>
		<path fill="none" stroke="#382510" stroke-width="1.2226" stroke-miterlimit="10" d="M228.6,103.8c0,1.5-1.3,2.8-2.8,2.8
			c-1.5,0-2.8-1.3-2.8-2.8c0-1.5,1.3-2.8,2.8-2.8C227.3,101,228.6,102.2,228.6,103.8z"/>
		<path fill="none" stroke="#727272" stroke-width="2.4452" stroke-miterlimit="10" d="M201.4,162.5c0,0,37.3,17.9,16.4,39.9
			c0,0-20.7-23.9-36.2-25.8"/>
		<path fill="none" stroke="#727272" stroke-width="2.4452" stroke-miterlimit="10" d="M163.6,162.5c0,0-36.4,17.9-16,39.9
			c0,0,19.6-23.9,34.7-25.8"/>
		<path fill="none" stroke="#C6774F" stroke-width="1.8339" stroke-miterlimit="10" d="M188.3,155.6c0,0,7.6-7.7,13.1,6.9
			c0,0-4.8,1.7-13.6,4.2l-5.5,1.4"/>
		<path fill="none" stroke="#727272" stroke-width="1.8339" stroke-miterlimit="10" d="M201.4,186.5c0,0-6.9,19.9-9.6,14.6
			c-2.6-5.3-2.9-9.4-2.9-9.4"/>
		<path fill="none" stroke="#C6774F" stroke-width="1.8339" stroke-miterlimit="10" d="M175.9,155.3c0,0-7-7.3-12.4,7.3
			c0,0,4.7,1.7,13.3,4.2l6.1,1.4"/>
		<path fill="none" stroke="#727272" stroke-width="1.8339" stroke-miterlimit="10" d="M163.6,186.5c0,0,6.8,19.9,9.4,14.6
			c2.6-5.3,2.3-9.3,2.3-9.3"/>
		<path fill="none" stroke="#3D3936" stroke-width="2.4452" stroke-miterlimit="10" d="M184.8,48.6c2.1-0.2,9.1,0.4,16.5,6.7
			l-6.9,6.9c0,0-5.5,36.5-0.4,89.6l-12.5,8.2"/>
		<path fill="none" stroke="#3D3936" stroke-width="2.4452" stroke-miterlimit="10" d="M179.4,48.5c-2-0.2-8.5,0.4-15.8,6.8l6.8,6.9
			c0,0,5.4,36.5,0.4,89.6l12.2,8.2"/>
		<path fill="none" stroke="#3D3936" stroke-width="2.1396" stroke-miterlimit="10" d="M191.8,91.9c0,0,33.6,1.1,48.3,14.1l3.7,14.5
			c0,0-7.3-13.5-52-17.6"/>
		<path fill="none" stroke="#3D3936" stroke-width="2.1396" stroke-miterlimit="10" d="M172.9,91.9c0,0-32.9,0.5-47.2,13.5
			l-3.6,15.1c0,0,7.2-13.5,50.8-17.6"/>
		<path fill="none" stroke="#382510" stroke-width="1.8339" stroke-miterlimit="10" d="M212.9,121.4l-17.7,4.1c0,0,11.1,10.2,25.3,4
			c0,0-2.1-6.5-8.3-7.9"/>
	</g>
</g>
<g display="none">
	<path display="inline" fill="#FFDEC7" d="M174.6,102c0,0-31.3,2.9-37.5,9.1c0,0-10.1,32.4-3.7,35.7l4.6,4.5l9,24.3
		c0,0,10.9-11.9,18.3-14.1l18.7,5.6l19-5.6c0,0,17.1,10.8,18.7,14.1l9.8-24.6c0,0,9.3-6,5.8-17.4l-5.9-23.6c0,0-27-8.9-38-8.1
		l2.3,48.8l-11.7,7.7l-11.6-7.7C172.3,150.8,174.7,104.5,174.6,102z"/>
	<path display="inline" fill="#9E9692" d="M163.9,55.9c0,0-29.8,16.7-36.5,46.9c0,0,22.8-12.2,47.1-11.9L172,61.3
		C172,61.3,166.9,55.1,163.9,55.9z"/>
	<path display="inline" fill="#9E9692" d="M193.4,91c0,0,34.8,1.1,48.2,14.1c0,0-9.5-35-38.7-50.7l-6.9,6.9L193.4,91z"/>
	<path display="inline" d="M141.6,72.4c0,0-14.7-16.1,4.9-23.8L133,7.7c0,0-4,6.8-1.8,13.4L120.3,1.4c0,0-3,3.4,3.2,20.6
		c0,0-13.2-14.3-15.5-14.3c0,0,5.1,18.1,10.4,23.7l-14.8-13.6c0,0,2.7,19.8,9.7,29.9c0,0-10.2-9-12.1-10.1c0,0,4.6,23,11.1,31.6
		l-11.1-6.6c0,0,5.5,13.1,16.1,20.3c0,0-9.9-3.7-16.1-2.3c0,0,4.4,7.7,15.9,8.8c0,0-10.4,2.4-10.7,10.3c0,0,8.5-1.2,12.4-2.7
		c0,0-5.9,4.7-4.8,13.7c0,0,7.4-2.5,9-8c0,0-1.6,8,0.9,12.7l3.6-11.1l-1-1.6C126.4,102.8,132.7,83.9,141.6,72.4z"/>
	<path display="inline" d="M226.6,73c0,0,14.1,19,15.1,29.8l2.6,12.4c0,0,3.8-3.1,2.7-10.5c0,0,4.1,5,8.6,6.1c0,0,0.8-10-5.3-14
		c0,0,10.8,3.9,13,3c0,0-0.4-8.5-11-10.3c0,0,12-0.7,16.3-8.8c0,0-7.8-2-18.1,3.4c0,0,18.1-12.1,18.1-21.7l-11.4,6.9
		c0,0,10.6-17.4,11.4-31.6l-12.4,10.1c0,0,9.9-18.9,9.9-29.9l-14.8,13c0,0,7.3-7.4,10.3-23.1c0,0-15,11.9-15.9,14.3
		c0,0,5.3-12.2,3.3-20.6l-10.7,19.8c0,0,1-9.4-2.3-13.6l-13.8,41C222.1,48.7,242.5,54.9,226.6,73z"/>
	<g display="inline">
		<g>
			<g>
				<path fill="#EDE6E4" d="M267.4,199.6c0,0-11.3-8.1-3.4-22.5c7.9-14.4-18.9-53.1-18.7-57.6c0,0-7.3-8.2-13.6-8.5
					c0,0,11.3,31.4,2.2,37.4c0,0-3.3,1.6-12,26.3c0,0-15.3-12.8-17.8-12.8c0,0,2.4-1.8-19.5,5l-19.3-5.6c0,0-13.4,6.8-18.3,14.1
					l-9-24c0,0-14-6.9-0.9-40.5c0,0-11,3.3-13.2,8.5c0,0-20.1,45.6-20.1,51c0,5.4,12.6,20.5-1.5,29.1l10.8-2.3c0,0-11,16.7,0,28.2
					c11,11.6,13.9,11.1,12.8,19.4l3.2-5.3c0,0,5.6,22.6,37,31.5l-3-6.3c0,0,18,12.6,20.8,17.9c0,0,9.2-10.9,21.4-17.9l-3.1,6.3
					c0,0,36.1-13,37.9-31.5l3.3,5.3c0,0-0.5-10.6,13.1-19.4c13.6-8.9,0-28.2,0-28.2L267.4,199.6z"/>
			</g>
		</g>
	</g>
	<g display="inline">
		<g>
			<g>
				<path fill="#FFDEC7" d="M183.2,175.6c-3.9-0.9-18,9.8-18,9.8c10.3,31.7,11.7,4.3,11.7,4.3h13.7c3.4,26.8,12.3-4.3,12.3-4.3
					C194.4,177.7,187.1,176.5,183.2,175.6z"/>
			</g>
		</g>
	</g>
	<path display="inline" fill="#EDE6E4" d="M174,113.4c0,0,0.6,8.5-2.7,11.1l-23.1-5.1c0,0-8.3,2.4-9,4.2l3.9-7.8l-3.9,0.5l7.4-6.2
		C146.5,110.1,173.5,118.8,174,113.4z"/>
	<path display="inline" fill="#EDE6E4" d="M194,113.4c0,0,0.4,5.5,28.1-3.3l6.6,5.4l-3.1,0.2l3.4,8.3c0,0-1.9-9.8-30.6,0.5
		C198.4,124.5,193.2,124.7,194,113.4z"/>
	<path display="inline" fill="#8C837E" d="M201.3,53.1c0,0-17.1-13.5-36.1,1.3l6.8,6.9c0,0,6.6,47.8,0.4,89.5l10.9,8.2l12.5-8.2
		c0,0-5.9-62.4,0.4-89.5C196,61.3,205,51.9,201.3,53.1z"/>
	<path display="inline" fill="#8C837E" d="M127.8,104.1L125,117c0,0,16.3-13.2,49.1-14.9V91.5C174,91.5,146.6,91.7,127.8,104.1z"/>
	<path display="inline" fill="#8C837E" d="M193.9,91.5c0,0,33.1,1.4,47.5,14.1l2.6,11.7c0,0-13.7-13.8-50.1-15.3V91.5z"/>
	<path display="inline" fill="#FFFCFA" d="M198.3,125.3c0,0,5.6-2.3,17.3-4.9c0,0,6.8,5.1,7.2,8.2
		C222.7,128.5,209.7,135.5,198.3,125.3z"/>
	<path display="inline" fill="#00A1E0" d="M204.8,128.9c0,0,3.7,3,11,1.2c0,0,1.4-5.8-5.2-6.5C203.9,123,204.8,128.9,204.8,128.9z"
		/>
	<g display="inline">
		<circle fill="#CEC7C2" cx="183.5" cy="67" r="4.2"/>
		<circle fill="#CEC7C2" cx="183.5" cy="91.4" r="4.2"/>
		<circle fill="#CEC7C2" cx="183.5" cy="115.8" r="4.2"/>
		<circle fill="#CEC7C2" cx="183.5" cy="139.6" r="4.2"/>
		<circle fill="#CEC7C2" cx="227.1" cy="103.2" r="2.7"/>
		<circle fill="#CEC7C2" cx="208.1" cy="98.4" r="2.7"/>
		<circle fill="#CEC7C2" cx="157.5" cy="99" r="2.7"/>
		<circle fill="#CEC7C2" cx="140.4" cy="103.2" r="2.7"/>
		<path fill="#CEC7C2" d="M187.1,52h-8.4c0,0,1.9-7.7,4.2-8.7C185.2,42.4,187.1,52,187.1,52z"/>
	</g>
	<g display="inline">
		<path fill="none" stroke="#493016" stroke-width="2.4428" stroke-miterlimit="10" d="M224.9,74.2c0,0,17.3-17.1-3.4-25.5l13.8-41
			c0,0,4.6,6.1,1.4,15.3l11.6-21.6c0,0,3.3,3-3.3,20.6c0,0,13.4-14.3,15.9-14.3c0,0-1.6,11.2-11.7,25.2l16.2-15.1
			c0,0-1.4,15-9.9,29.9c0,0,8.7-7.8,12.4-10.1c0,0-1.2,14.5-11.4,31.6l11.4-6.9c0,0-2,11.3-19.1,22.4c0,0,9.7-6.3,19.1-4.1
			c0,0-2,6.5-16.3,8.8c0,0,10.6,1.9,11,10.3c0,0-5.3,0-13.8-3.4c0,0,7.3,3.4,6.1,14.5c0,0-6.9-2.7-8.5-6.1c0,0,0.6,6.9-2.3,12.2"/>
		<path fill="none" stroke="#493016" stroke-width="2.4428" stroke-miterlimit="10" d="M185.8,47.7c2.1-0.2,9.1,0.4,16.5,6.7
			l-6.9,6.9c0,0-5.5,36.5-0.4,89.5l-12.5,8.2"/>
		<g>
			<g>
				<path fill="#493016" d="M201.3,56.5c18.9,7.3,32.4,28.3,38.1,47.2c0.6,1.9,3.5,1.1,2.9-0.8c-6-19.9-19.9-41.4-40.2-49.3
					C200.3,52.9,199.5,55.8,201.3,56.5L201.3,56.5z"/>
			</g>
		</g>
		<path fill="none" stroke="#493016" stroke-width="2.1375" stroke-miterlimit="10" d="M192.8,91c0,0,33.6,1.1,48.2,14.1l3.7,14.5
			c0,0-7.3-13.5-51.9-17.6"/>
		<g>
			<path fill="#493016" d="M244.7,119.6l4.6,8.5l4.5,8.5l4.4,8.6c0.7,1.4,1.5,2.9,2.1,4.3c0.6,1.5,1.3,2.9,2,4.4l-0.1-0.2
				c0.6,1,1.1,1.9,1.5,2.9c0.5,1,0.9,1.9,1.3,2.9c0.2,0.5,0.4,1,0.5,1.5c0.2,0.5,0.3,1,0.5,1.5c0.3,1,0.5,2.1,0.8,3.2
				c0.2,1.1,0.3,2.2,0.3,3.3c0,0.6,0,1.1,0,1.7c0,0.6,0,1.1-0.1,1.7c-0.1,0.6-0.2,1.1-0.3,1.7l-0.5,1.7c-0.2,0.6-0.5,1.1-0.7,1.6
				l-0.4,0.7l-0.4,0.7l-0.7,1.3l-0.5,1.3l-0.3,0.6l-0.2,0.7c-0.1,0.4-0.3,0.9-0.4,1.3l-0.3,1.3l-0.1,1.3c0,0.9,0,1.8,0.1,2.7
				c0.1,0.9,0.4,1.7,0.7,2.6c0.1,0.4,0.4,0.8,0.5,1.2c0.2,0.4,0.5,0.8,0.7,1.2c0.5,0.7,1.1,1.5,1.7,2.1c0.6,0.7,1.4,1.2,2.1,1.8
				l6.5,4.9l-7.9-1.6l-11-2.3l1.9-2.8c0.7,1.1,1.3,2.1,1.9,3.2c0.6,1.1,1.1,2.2,1.6,3.3c1,2.2,1.7,4.6,2.2,7
				c0.2,1.2,0.4,2.5,0.4,3.8c0,1.3-0.1,2.6-0.3,3.9c-0.3,1.3-0.7,2.6-1.2,3.8c-0.6,1.2-1.3,2.3-2.2,3.3c-0.4,0.5-0.9,0.9-1.4,1.4
				c-0.5,0.4-1,0.8-1.5,1.3c-0.9,0.6-1.8,1.3-2.6,2c-1.7,1.4-3.4,3-4.8,4.6c-1.5,1.6-2.8,3.4-3.7,5.3c-0.9,1.9-1.4,3.8-1.1,5.7
				l0.6,3.6l-3.2-1.6c-0.3-0.2-0.4-0.2-0.6-0.4c-0.2-0.1-0.3-0.2-0.4-0.3c-0.3-0.2-0.5-0.5-0.8-0.7c-0.2-0.3-0.4-0.5-0.6-0.8
				c-0.2-0.3-0.4-0.6-0.5-0.8c-0.2-0.3-0.3-0.6-0.4-0.9l-0.4-0.9c-0.1-0.3-0.2-0.6-0.3-0.9l-0.2-0.9l3.6-0.1
				c-0.1,0.7-0.3,1.2-0.4,1.8c-0.1,0.6-0.4,1.1-0.5,1.7c-0.4,1.1-0.9,2.1-1.4,3.1c-0.5,1-1.1,2-1.7,2.9c-0.6,1-1.3,1.8-1.9,2.8
				c-0.7,0.9-1.4,1.7-2.2,2.6c-0.8,0.8-1.6,1.6-2.3,2.4c-0.8,0.8-1.7,1.5-2.5,2.2c-0.4,0.4-0.8,0.7-1.3,1.1l-1.3,1
				c-0.9,0.6-1.8,1.3-2.7,1.9l-2.8,1.7c-0.9,0.6-1.9,1.1-2.9,1.6l-2.9,1.5c-1,0.5-2,0.9-3,1.3c-1,0.4-2,0.9-3,1.3l-6.2,2.2l-5.2,1.9
				l3.2-4.7l0.2-0.3c0.1-0.1,0.1-0.2,0.2-0.3l0.4-0.7c0.3-0.5,0.5-1,0.7-1.4c0.1-0.2,0.3-0.5,0.4-0.7l0.3-0.7l0.7-1.5l2.6,1.9
				c-4,2.5-8,5.1-11.8,7.7c-1.9,1.3-3.8,2.7-5.7,4.2c-0.9,0.7-1.8,1.5-2.7,2.3c-0.4,0.4-0.8,0.8-1.2,1.3c-0.4,0.5-0.8,0.9-0.9,1.5
				c0.1-0.6,0.4-1.1,0.7-1.6c0.3-0.5,0.7-1,1.1-1.4c0.8-0.9,1.6-1.8,2.4-2.7c1.7-1.7,3.4-3.3,5.2-4.9c1.8-1.6,3.6-3.1,5.4-4.6
				c1.8-1.5,3.7-3,5.6-4.5l4.2-3.2l-1.6,5.1l-0.6,1.8l-0.3,0.9c-0.1,0.3-0.3,0.6-0.4,0.9c-0.1,0.3-0.3,0.6-0.4,0.9
				c-0.2,0.3-0.3,0.6-0.5,0.8l-0.5,0.8c-0.1,0.1-0.2,0.3-0.3,0.4l-0.3,0.4l-2-2.9l5.9-2.1c1-0.4,1.9-0.8,2.9-1.2
				c1-0.4,1.9-0.8,2.9-1.3l2.8-1.4c0.9-0.5,1.9-0.9,2.7-1.5l2.7-1.6c0.9-0.5,1.7-1.2,2.5-1.8l1.3-0.9c0.4-0.3,0.8-0.7,1.2-1
				c0.8-0.7,1.6-1.3,2.3-2c0.7-0.7,1.5-1.4,2.2-2.2l2-2.3c0.6-0.8,1.2-1.6,1.8-2.5c0.5-0.9,1.1-1.7,1.5-2.6c0.5-0.9,0.9-1.8,1.2-2.7
				c0.1-0.5,0.3-0.9,0.5-1.4c0.1-0.4,0.3-1,0.3-1.3l1.4-8.4l2.2,8.2l0.2,0.7c0.1,0.2,0.1,0.4,0.2,0.6l0.2,0.6
				c0.1,0.2,0.2,0.4,0.3,0.6c0.1,0.2,0.2,0.4,0.3,0.5c0.1,0.1,0.2,0.3,0.4,0.5c0.1,0.1,0.3,0.3,0.4,0.4c0.1,0,0.1,0.1,0.2,0.2
				c0,0,0.2,0.1,0.1,0.1l-2.6,2c-0.2-1.4-0.2-2.8,0.1-4.1c0.3-1.3,0.7-2.6,1.3-3.7c1.1-2.3,2.6-4.3,4.2-6.1c1.6-1.8,3.4-3.5,5.3-5
				c0.9-0.8,1.9-1.5,2.9-2.2c0.3-0.3,0.8-0.6,1.2-0.9c0.4-0.4,0.8-0.7,1.1-1.1c0.7-0.7,1.2-1.6,1.7-2.5c0.4-0.9,0.7-1.9,0.9-2.9
				c0.2-1,0.3-2,0.2-3.1c0-1.1-0.2-2.1-0.3-3.2c-0.4-2.1-1.1-4.2-2-6.3c-0.4-1-0.9-2-1.4-3c-0.5-1-1.1-2-1.7-2.8l-2.5-3.8l4.4,0.9
				l11,2.3l-1.4,3.3c-0.9-0.7-1.8-1.4-2.6-2.2c-0.8-0.8-1.5-1.7-2.2-2.6c-0.3-0.5-0.6-1-0.9-1.5c-0.2-0.5-0.5-1-0.7-1.6
				c-0.4-1.1-0.7-2.2-0.9-3.4c-0.2-1.1-0.2-2.3-0.1-3.4l0.2-1.7l0.4-1.7c0.1-0.6,0.3-1.1,0.5-1.6l0.3-0.8l0.3-0.8l0.7-1.6l0.7-1.3
				l0.4-0.7l0.1-0.1l0-0.1l0.1-0.1l0.1-0.3c0.2-0.4,0.4-0.8,0.5-1.2l0.4-1.3c0.1-0.4,0.1-0.9,0.2-1.3c0.1-0.4,0.1-0.9,0.1-1.4
				c0-0.5,0-0.9,0-1.4c0-0.9-0.2-1.9-0.3-2.8c-0.2-0.9-0.4-1.9-0.7-2.8c-0.1-0.5-0.3-0.9-0.4-1.4c-0.1-0.5-0.3-0.9-0.5-1.4
				c-0.3-0.9-0.7-1.8-1.2-2.7c-0.4-0.9-0.9-1.8-1.3-2.5l-0.1-0.1l0-0.1c-0.7-1.5-1.3-2.9-2-4.4c-0.7-1.4-1.3-2.9-1.9-4.4l-3.5-9
				l-3.4-9L244.7,119.6z"/>
		</g>
		<path fill="none" stroke="#493016" stroke-width="1.8321" stroke-miterlimit="10" d="M189.3,154.6c0,0,7.6-7.6,13.1,6.9
			c0,0-4.8,1.7-13.5,4.2l-5.5,1.4"/>
		<path fill="none" stroke="#493016" stroke-width="1.8321" stroke-miterlimit="10" d="M217,171.2c0,0-18.2-28.6-27.1-16.6"/>
		<path fill="none" stroke="#493016" stroke-width="2.4428" stroke-miterlimit="10" d="M230.8,110.1c0,0,11.5,32,2.5,38.5
			c-9,6.5-16.9,22.6-16.9,22.6"/>
		<path fill="none" stroke="#493016" stroke-width="1.8321" stroke-miterlimit="10" d="M230.9,151.1c0,0-8.6,20-9.8,24.6"/>
		<path fill="none" stroke="#493016" stroke-width="2.4428" stroke-miterlimit="10" d="M202.4,161.5c0,0,37.3,17.9,16.4,39.8
			c0,0-20.7-23.8-36.1-25.7"/>
		<path fill="none" stroke="#493016" stroke-width="2.4428" stroke-miterlimit="10" d="M214.1,196.2c0,0-5.2,5.7,1.7,16.4
			c0,0,17.8-3.7,6.9-16.4"/>
		<path fill="none" stroke="#493016" stroke-width="2.4428" stroke-miterlimit="10" d="M215.8,212.6c0,0-7.5,4.2,3,12.2
			c0,0,7.9-2.6,2.7-14.4"/>
		<path fill="none" stroke="#493016" stroke-width="2.4428" stroke-miterlimit="10" d="M183.2,179.8"/>
		<path fill="none" stroke="#493016" stroke-width="1.8321" stroke-miterlimit="10" d="M202.4,185.5c0,0-6.9,19.9-9.6,14.6
			c-2.6-5.3-2.8-10.2-2.8-10.2"/>
		<path fill="none" stroke="#493016" stroke-width="2.4428" stroke-miterlimit="10" d="M200.7,189.8c0,0-12.1,0-17.5,0"/>
		<path fill="none" stroke="#493016" stroke-width="1.8321" stroke-miterlimit="10" d="M193.4,113.4c0,0-1.3,6.6,2.8,11.1
			c0,0,15.9-3.8,22-5c6.1-1.1,12.1,6.5,12.1,6.5l-5.3-10.3l5.3,1.5l-8.8-7.2c0,0-12.3,2.6-17.3,4.1
			C199.1,115.8,196.2,115.3,193.4,113.4z"/>
		<path fill="none" stroke="#493016" stroke-width="1.8321" stroke-miterlimit="10" d="M201.3,123.3l-4.3,2c0,0,10.3,9.4,24.4,3.2
			c0,0-2.1-6.5-8.3-7.9"/>
		<path fill="none" stroke="#493016" stroke-width="1.2214" stroke-miterlimit="10" d="M204.2,128.9c0,0,0-5.4,5.8-5.2
			c5.8,0.2,5.2,6.5,5.2,6.5"/>
		<path fill="#382510" d="M188.8,165.7c0,0,4.4-0.7,5-1.9c0.6-1.1-7.5-7.5-6.7-3.7C187.9,164,188.8,165.7,188.8,165.7z"/>
		<path d="M207.3,129.6c0,0-0.1-2.9,2-2.9c3.3,0,2.2,3.4,2.2,3.4"/>
		<path fill="none" stroke="#493016" stroke-width="2.4428" stroke-miterlimit="10" d="M142.6,74.2c0,0-16.9-17.1,3.4-25.5l-13.5-41
			c0,0-4.5,5.8-1.4,15L119.7,1.4c0,0-3.2,3,3.2,20.6c0,0-13.1-14.3-15.5-14.3c0,0,1.6,11.2,11.4,25.2L103,17.8c0,0,1.3,15,9.7,29.9
			c0,0-8.5-7.8-12.1-10.1c0,0,1.2,14.5,11.1,31.6l-11.1-6.9c0,0,1.9,11.3,18.6,22.4c0,0-9.5-6.3-18.6-4c0,0,2,6.5,15.9,8.8
			c0,0-10.3,1.9-10.7,10.3c0,0,5.2,0,13.5-3.4c0,0-7.2,3.4-6,14.5c0,0,6.8-2.7,8.4-6.1c0,0-0.5,6.9,2.2,12.2"/>
		<path fill="none" stroke="#493016" stroke-width="1.8321" stroke-miterlimit="10" d="M183.3,51.7h-4.6c0,0,0.2-4.9,4.2-8.7
			c0,0,3.8,3.6,4.2,8.7H183.3z"/>
		<path fill="none" stroke="#493016" stroke-width="2.4428" stroke-miterlimit="10" d="M180.4,47.6c-2-0.2-8.4,0.4-15.7,6.8l6.8,6.9
			c0,0,5.4,36.5,0.4,89.5l12.2,8.2"/>
		<g>
			<g>
				<path fill="#493016" d="M164.9,53.6c-20.2,7.6-33.7,29.2-39.5,48.9c-0.6,1.9,2.4,2.7,2.9,0.8c5.5-18.6,18.4-39.5,37.4-46.7
					C167.5,55.8,166.7,52.9,164.9,53.6L164.9,53.6z"/>
			</g>
		</g>
		<path fill="none" stroke="#493016" stroke-width="2.1375" stroke-miterlimit="10" d="M174,91c0,0-32.8,0.5-47.1,13.5l-3.6,15.1
			c0,0,7.2-13.5,50.7-17.6"/>
		<g>
			<path fill="#493016" d="M123.3,119.6l-3.3,9l-3.4,9l-3.4,9c-0.3,0.7-0.6,1.5-0.9,2.2c-0.3,0.7-0.6,1.5-1,2.2
				c-0.7,1.4-1.3,2.9-2,4.4l0,0.1l-0.1,0.1c-0.4,0.8-0.9,1.7-1.3,2.5c-0.4,0.9-0.8,1.8-1.1,2.7c-0.2,0.5-0.3,0.9-0.5,1.4
				c-0.2,0.5-0.3,0.9-0.4,1.4c-0.3,0.9-0.5,1.9-0.7,2.8c-0.1,0.9-0.3,1.9-0.3,2.8l0,0.7l0,0.7c0,0.5,0,0.9,0.1,1.4l0.2,1.3l0.4,1.3
				c0.1,0.4,0.4,0.8,0.5,1.2l0.1,0.3l0.1,0.1l0,0.1l0,0l0.1,0.1l0.4,0.7l0.7,1.3l0.7,1.5l0.3,0.8l0.3,0.8c0.2,0.5,0.4,1,0.5,1.6
				l0.3,1.6c0.1,0.6,0.1,1.1,0.2,1.7c0.1,1.1,0,2.3-0.1,3.4c-0.2,1.1-0.5,2.3-0.9,3.3c-0.2,0.5-0.5,1.1-0.7,1.6
				c-0.3,0.5-0.6,1-0.8,1.5c-0.6,0.9-1.3,1.9-2.1,2.7c-0.8,0.8-1.6,1.5-2.5,2.2l-1.5-3.3l10.8-2.3l4.4-0.9l-2.5,3.7
				c-0.6,0.8-1.1,1.9-1.6,2.8c-0.5,1-1,2-1.4,3c-0.9,2-1.5,4.1-1.9,6.2c-0.4,2.1-0.5,4.2-0.1,6.2c0.2,1,0.5,2,0.9,2.9
				c0.4,0.9,0.9,1.8,1.6,2.5c0.3,0.4,0.7,0.7,1,1.1c0.2,0.2,0.4,0.3,0.6,0.5l0.5,0.5c1,0.7,1.9,1.5,2.9,2.2c1.8,1.5,3.6,3.2,5.2,5
				c1.6,1.8,3.1,3.8,4.1,6.2c0.5,1.2,1,2.4,1.2,3.7c0.3,1.3,0.3,2.7,0.1,4.1l-2.6-2c-0.1,0,0,0,0.1-0.1c0.1,0,0.1-0.1,0.2-0.2
				c0.1-0.1,0.3-0.3,0.4-0.4c0.1-0.1,0.2-0.3,0.4-0.5c0.1-0.1,0.2-0.4,0.3-0.5c0.1-0.2,0.2-0.4,0.3-0.6l0.2-0.6
				c0.1-0.2,0.1-0.4,0.2-0.6l0.2-0.7l2.2-8.4l1.4,8.5c0.1,0.3,0.2,0.8,0.3,1.3c0.1,0.5,0.3,0.9,0.4,1.4c0.4,0.9,0.7,1.8,1.2,2.7
				c0.4,0.9,1,1.7,1.5,2.6c0.5,0.9,1.1,1.6,1.7,2.5c0.6,0.8,1.3,1.6,1.9,2.3c0.7,0.8,1.4,1.5,2.1,2.2c0.7,0.7,1.5,1.4,2.3,2l1.2,1
				l1.2,0.9c0.8,0.6,1.6,1.2,2.5,1.8l2.6,1.6c0.9,0.6,1.8,1,2.7,1.5l2.7,1.4c0.9,0.5,1.9,0.8,2.8,1.3l2.8,1.2l5.8,2.1l-2,2.9
				l-0.3-0.4c-0.1-0.1-0.2-0.3-0.3-0.4l-0.5-0.8c-0.3-0.6-0.6-1.1-0.8-1.7c-0.1-0.3-0.3-0.6-0.4-0.9l-0.3-0.9l-0.6-1.8l-1.5-5
				l4.1,3.1c1.9,1.4,3.7,2.9,5.5,4.3c1.8,1.5,3.6,3,5.3,4.5c1.7,1.5,3.4,3.1,5.1,4.8c0.8,0.8,1.6,1.7,2.3,2.6c0.4,0.5,0.7,0.9,1,1.4
				c0.3,0.5,0.6,1,0.7,1.6c-0.2-0.6-0.5-1-0.9-1.5c-0.4-0.4-0.8-0.8-1.2-1.2c-0.8-0.8-1.7-1.5-2.6-2.2c-1.8-1.4-3.7-2.8-5.5-4.1
				c-3.8-2.6-7.6-5.1-11.5-7.5l2.5-1.9l0.7,1.5l0.3,0.7c0.1,0.2,0.3,0.5,0.4,0.7l0.4,0.7c0.1,0.2,0.2,0.5,0.4,0.7l0.4,0.7
				c0.1,0.1,0.1,0.2,0.2,0.3l0.2,0.3l3.2,4.8l-5.2-1.9l-6.1-2.2l-3-1.3c-1-0.4-2-0.9-3-1.3l-2.9-1.5c-1-0.5-1.9-1-2.8-1.6l-2.8-1.7
				c-0.9-0.6-1.8-1.3-2.6-1.9l-1.3-1l-1.2-1.1c-0.8-0.7-1.7-1.4-2.4-2.2c-0.8-0.8-1.6-1.6-2.3-2.4c-0.7-0.9-1.4-1.7-2.1-2.6
				c-0.6-0.9-1.3-1.8-1.9-2.7c-0.6-1-1.2-1.9-1.6-2.9c-0.5-1-0.9-2-1.3-3.1c-0.2-0.5-0.4-1.1-0.5-1.6c-0.2-0.6-0.3-1.1-0.4-1.8
				l3.6,0.1l-0.2,0.9c-0.1,0.3-0.1,0.6-0.3,0.9l-0.4,0.9c-0.1,0.3-0.3,0.6-0.4,0.9c-0.2,0.3-0.3,0.6-0.5,0.8
				c-0.2,0.3-0.4,0.5-0.6,0.8c-0.3,0.3-0.5,0.5-0.8,0.7c-0.1,0.1-0.3,0.2-0.4,0.3c-0.2,0.1-0.3,0.2-0.6,0.4l-3.2,1.6l0.6-3.6
				c0.3-1.8-0.1-3.8-1-5.6c-0.9-1.9-2.2-3.7-3.6-5.3c-1.4-1.7-3.1-3.2-4.8-4.6c-0.8-0.7-1.7-1.4-2.6-2l-0.1-0.1l0,0l-0.1-0.1
				l-0.2-0.2l-0.4-0.3c-0.2-0.2-0.5-0.4-0.7-0.6c-0.5-0.5-0.9-0.9-1.3-1.4c-0.9-1-1.5-2.1-2.1-3.3c-0.6-1.2-0.9-2.5-1.2-3.7
				c-0.5-2.6-0.3-5.1,0.1-7.6c0.5-2.4,1.2-4.8,2.1-7c0.5-1.1,1-2.2,1.5-3.3c0.6-1.1,1.1-2.1,1.9-3.2l1.9,2.8l-10.8,2.3l-7.8,1.6
				l6.3-4.9c0.7-0.6,1.4-1.1,2-1.8c0.6-0.6,1.2-1.4,1.7-2.1c0.2-0.4,0.5-0.8,0.7-1.2c0.2-0.4,0.4-0.8,0.5-1.2
				c0.3-0.8,0.5-1.7,0.7-2.6c0.1-0.9,0.1-1.8,0.1-2.7l-0.1-1.3l-0.3-1.3c-0.1-0.4-0.3-0.9-0.4-1.3l-0.2-0.7l-0.3-0.6l-0.5-1.3
				l-0.7-1.3l-0.4-0.7l-0.3-0.7c-0.2-0.5-0.5-1-0.7-1.6l-0.5-1.7c-0.1-0.6-0.2-1.1-0.3-1.7c-0.1-0.6-0.1-1.1-0.1-1.7l0-0.8l0-0.8
				c0-1.1,0.2-2.2,0.3-3.3c0.2-1.1,0.4-2.1,0.7-3.2c0.1-0.5,0.3-1,0.5-1.5c0.2-0.5,0.3-1,0.5-1.5c0.4-1,0.8-2,1.2-2.9
				c0.5-1,0.9-1.9,1.5-2.9l-0.1,0.2c0.6-1.5,1.3-2.9,1.9-4.4c0.3-0.7,0.6-1.5,1-2.2c0.3-0.7,0.7-1.4,1.1-2.1l4.4-8.6l4.4-8.5
				L123.3,119.6z"/>
		</g>
		<path fill="none" stroke="#493016" stroke-width="1.8321" stroke-miterlimit="10" d="M177,154.3c0,0-7-7.3-12.3,7.2
			c0,0,4.7,1.7,13.3,4.2l6,1.4"/>
		<path fill="none" stroke="#493016" stroke-width="1.8321" stroke-miterlimit="10" d="M150.3,170.6c0,0,17.4-28.3,26-16.3"/>
		<path fill="none" stroke="#493016" stroke-width="2.4428" stroke-miterlimit="10" d="M136.9,110.1c0,0-11.2,32-2.4,38.5
			c7.5,5.6,17.8,24.6,16.6,22"/>
		<path fill="none" stroke="#493016" stroke-width="1.8321" stroke-miterlimit="10" d="M136.8,151.1c0,0,8.4,20,9.6,24.6"/>
		<path fill="none" stroke="#493016" stroke-width="2.4428" stroke-miterlimit="10" d="M164.6,161.5c0,0-36.4,17.9-16,39.8
			c0,0,19.6-23.8,34.7-25.7"/>
		<path fill="none" stroke="#493016" stroke-width="2.4428" stroke-miterlimit="10" d="M153.2,196.2c0,0,5.1,5.7-1.7,16.4
			c0,0-17.4-3.7-6.7-16.4"/>
		<path fill="none" stroke="#493016" stroke-width="2.4428" stroke-miterlimit="10" d="M151.5,212.6c0,0,7.4,4.2-2.9,12.2
			c0,0-7.7-2.6-2.7-14.4"/>
		<g>
			<path fill="#493016" d="M151.6,221.5c0.8,0.4,1.5,0.9,2.1,1.4c0.3,0.3,0.7,0.5,1,0.8c0.3,0.3,0.7,0.6,0.9,0.9
				c0.3,0.3,0.6,0.7,0.9,1c0.3,0.4,0.5,0.8,0.8,1.2c0.2,0.5,0.4,1,0.5,1.6c0.1,0.3,0,0.7,0,1.1l-0.1,0.8c-0.1,0.4-0.2,0.8-0.3,1.2
				l-0.4,1.3c-0.1,0.5-0.3,0.9-0.5,1.3c-0.2,0.4-0.3,0.8-0.5,1.2c-0.4,0.8-0.8,1.5-1.2,2.3c-0.2,0.4-0.4,0.7-0.7,1.1
				c-0.2,0.4-0.5,0.7-0.8,1.1l-1.7,2.4l-1.7-2.2l-0.7-0.9l-0.7-0.9c-0.4-0.6-0.8-1.2-1.2-1.9c-0.4-0.7-0.8-1.3-1.1-2
				c-0.3-0.7-0.6-1.5-0.9-2.3c-0.1-0.4-0.2-0.9-0.2-1.4l0-0.2l0-0.3l0-0.3l0.1-0.5c0.1-0.7,0.2-1.4,0.3-2.2c0.1-0.7,0.2-1.4,0.4-2.2
				c0.2-0.7,0.4-1.5,0.6-2.2l0.2,0l0,2.2c0,0.7,0,1.4,0,2.2l0,2.2c0,0.3,0,0.7,0.1,1.1c0,0.3,0.2,0.7,0.3,1c0.5,1.3,1.3,2.5,2.1,3.7
				c0.8,1.2,1.7,2.3,2.6,3.4l-0.4,0c0.9-1.4,1.8-2.7,2.5-4.2c0.2-0.4,0.4-0.7,0.5-1.1c0.2-0.4,0.4-0.7,0.5-1.1l0.5-1.1l0.4-1.2
				c0.1-0.4,0.2-0.8,0.2-1.1c0-0.4-0.1-0.8-0.3-1.1c-0.1-0.4-0.3-0.7-0.5-1.1c-0.2-0.4-0.4-0.7-0.6-1c-0.9-1.4-2-2.6-3.1-3.8
				L151.6,221.5z"/>
		</g>
		<line fill="none" stroke="#493016" stroke-width="1.8321" stroke-miterlimit="10" x1="196.2" y1="181.3" x2="170" y2="181.4"/>
		<path fill="none" stroke="#493016" stroke-width="1.8321" stroke-miterlimit="10" d="M164.6,185.5c0,0,6.8,19.9,9.3,14.6
			c2.6-5.3,2.3-10.2,2.3-10.2"/>
		<path fill="none" stroke="#493016" stroke-width="2.4428" stroke-miterlimit="10" d="M166.2,189.8c0,0,11.8,0,17.1,0"/>
		<path fill="none" stroke="#493016" stroke-width="1.8321" stroke-miterlimit="10" d="M173.4,113.4c0,0,1.3,6.6-2.7,11.1
			c0,0-15.5-3.8-21.5-5c-6-1.1-11.8,6.5-11.8,6.5l5.1-10.3l-5.1,1.5l8.6-7.2c0,0,12,2.6,16.9,4.1
			C167.8,115.8,170.7,115.3,173.4,113.4z"/>
		<path d="M171.9,124.4c-3.3,4.5-7.6,7.4-7.6,7.4s-9.9,6.8-20.3-5.5c0,0,2-8.8,10.1-5.6"/>
		<g>
			<path fill="#493016" d="M142.7,134.8l1.5,1.2l0.8,0.5c0.3,0.2,0.5,0.4,0.8,0.5c0.6,0.3,1.1,0.7,1.7,0.9l0.9,0.4l0.9,0.3
				c0.3,0.1,0.6,0.2,0.9,0.3c0.3,0.1,0.6,0.2,0.9,0.2c0.3,0,0.6,0.1,0.9,0.1c0.3,0,0.6,0.1,0.9,0c0.6,0,1.2,0,1.8-0.2
				c0.3-0.1,0.6-0.1,0.9-0.2c0.3-0.1,0.6-0.2,0.8-0.3l0,0l0.1,0c0.5-0.2,1.1-0.5,1.6-0.8c0.5-0.3,1.1-0.6,1.6-0.9c1-0.6,2-1.4,3-2.1
				l1.4-1.2l1.4-1.2l1.4-1.2c0.5-0.4,1.1-0.8,1.6-1.2l6.5-4.6l-4.9,6.5l-2.4,3.1l-1.2,1.6c-0.4,0.5-0.8,1.1-1.2,1.6
				c-0.4,0.5-0.7,1.1-1.1,1.6c-0.4,0.5-0.7,1.1-1.1,1.7l-0.5,0.8c-0.2,0.3-0.4,0.6-0.5,0.9c-0.3,0.6-0.6,1.2-0.9,1.8l-0.2-0.1
				c0.1-0.7,0.2-1.3,0.3-2c0.1-0.7,0.4-1.3,0.6-2c0.1-0.3,0.2-0.7,0.3-1l0.4-0.9c0.3-0.6,0.6-1.3,0.9-1.9c0.6-1.2,1.3-2.4,2.1-3.5
				c0.8-1.1,1.5-2.2,2.4-3.3l1.6,1.8l-1.5,0.9l-1.5,1.1l-1.5,1.1c0,0-0.2,0.1-0.1,0.1l-0.2,0.1l-0.4,0.3l-0.8,0.6
				c-1.1,0.7-2.2,1.4-3.3,2c-0.6,0.3-1.1,0.6-1.7,0.9c-0.6,0.3-1.2,0.5-1.8,0.8l0.1,0c-0.4,0.2-0.7,0.3-1.1,0.4
				c-0.3,0.1-0.7,0.2-1,0.2c-0.7,0.1-1.4,0.1-2.1,0.1c-0.3,0-0.7-0.1-1-0.1c-0.3,0-0.7-0.1-1-0.2c-0.3-0.1-0.7-0.2-1-0.3
				c-0.3-0.1-0.7-0.2-1-0.4l-0.9-0.4l-0.9-0.5c-0.6-0.3-1.1-0.7-1.7-1.1c-0.3-0.2-0.5-0.4-0.8-0.6l-0.8-0.6l-1.4-1.4L142.7,134.8z"
				/>
		</g>
		<path fill="#382510" d="M177.9,165.7c0,0-4.3-0.7-4.9-1.9c-0.6-1.1,7.4-7.5,6.6-3.7C178.8,164,177.9,165.7,177.9,165.7z"/>
		<g>
			<path fill="#493016" d="M224.1,135.3l-1.4,1.3l-0.8,0.6c-0.3,0.2-0.5,0.4-0.8,0.6c-0.5,0.3-1.1,0.8-1.7,1.1l-0.9,0.5l-0.9,0.4
				c-0.3,0.1-0.6,0.2-0.9,0.3c-0.3,0.1-0.6,0.2-1,0.3c-0.3,0.1-0.7,0.2-1,0.2c-0.3,0-0.7,0.1-1,0.1c-0.7,0-1.4,0-2-0.1
				c-0.3,0-0.7-0.1-1-0.2c-0.3-0.1-0.7-0.2-1-0.4l0.1,0c-0.6-0.2-1.2-0.5-1.8-0.7c-0.6-0.3-1.1-0.5-1.7-0.8c-1.1-0.6-2.2-1.3-3.2-2
				l-0.8-0.6l-0.4-0.3l-0.2-0.1c0,0-0.1-0.1-0.1-0.1l-1.5-1.1l-1.5-1.1l-1.4-0.9l1.6-1.8c0.9,1,1.6,2.1,2.4,3.2
				c0.7,1.1,1.4,2.3,2,3.4c0.3,0.6,0.6,1.2,0.9,1.8l0.4,0.9c0.1,0.3,0.2,0.6,0.3,1c0.2,0.6,0.5,1.3,0.6,1.9c0.1,0.7,0.2,1.3,0.3,2
				l-0.2,0.1c-0.3-0.6-0.6-1.2-0.9-1.7c-0.1-0.3-0.3-0.6-0.5-0.8l-0.5-0.8c-0.3-0.5-0.7-1.1-1-1.6c-0.4-0.5-0.7-1.1-1.1-1.6
				c-0.4-0.5-0.8-1-1.1-1.6l-1.2-1.5l-2.3-3.1l-4.9-6.5l6.5,4.7c0.5,0.4,1.1,0.8,1.6,1.2l1.4,1.2l1.4,1.2l1.4,1.2
				c0.9,0.7,1.9,1.4,2.9,2.1c0.5,0.3,1,0.6,1.5,0.9c0.5,0.3,1.1,0.6,1.6,0.8l0.1,0l0,0c0.2,0.1,0.5,0.2,0.8,0.3
				c0.3,0.1,0.6,0.2,0.9,0.2c0.6,0.1,1.2,0.2,1.8,0.2c0.3,0,0.6,0,0.9,0c0.3,0,0.6-0.1,0.9-0.1c0.3,0,0.6-0.1,0.9-0.2
				c0.3-0.1,0.6-0.1,0.9-0.2l0.9-0.3l0.9-0.4c0.6-0.2,1.1-0.6,1.7-0.9c0.3-0.2,0.5-0.3,0.8-0.5l0.8-0.5l1.5-1.2L224.1,135.3z"/>
		</g>
		<g>
			<path fill="#493016" d="M216.1,222.7c-0.4,0.8-0.9,1.7-1.3,2.5l-0.6,1.2c-0.2,0.4-0.4,0.8-0.5,1.2c-0.2,0.4-0.3,0.8-0.5,1.2
				c-0.1,0.4-0.2,0.8-0.3,1.1c0,0.2-0.1,0.3-0.1,0.5c0,0.1,0,0.1,0,0.2c0,0.1,0,0.1,0,0.1c0,0.1,0.1,0.1,0.1,0.2l0,0l0,0v0v0
				c0,0,0,0.1,0-0.1l0,0l0.1,0.1l0.2,0.3c0.3,0.4,0.5,0.8,0.7,1.2l0.7,1c0.2,0.3,0.5,0.7,0.8,1l0.8,1c0.6,0.7,1.1,1.3,1.7,2
				c0.3,0.3,0.6,0.6,0.9,1c0.3,0.3,0.6,0.7,0.9,0.9l-3.2,0.2l0.7-0.9l0.7-0.9l1.3-1.9c0.4-0.6,0.8-1.3,1.2-1.9
				c0.4-0.6,0.8-1.3,1-1.8c0.1-0.3,0.2-0.6,0.3-0.8c0-0.1,0.1-0.2,0.1-0.3l0-0.6c0-0.8,0-1.6,0.1-2.4l0.2-2.4c0-0.8,0.1-1.6,0.2-2.4
				l0.2,0l0.4,2.4c0.1,0.8,0.2,1.6,0.3,2.4l0.3,2.4c0,0.4,0.1,0.8,0.1,1.2c0,0.4-0.1,0.8-0.3,1.2c-0.2,0.8-0.6,1.5-0.9,2.2
				c-0.4,0.7-0.7,1.4-1.2,2.1c-0.8,1.4-1.7,2.7-2.6,4l-0.2,0.2l-0.2-0.2c-1.3-1.3-2.5-2.7-3.7-4.2c-0.3-0.4-0.5-0.7-0.8-1.1
				c-0.3-0.4-0.5-0.8-0.8-1.2l-0.7-1.2l-0.6-1.2c-0.2-0.4-0.4-0.9-0.4-1.4c0-0.2,0-0.5,0.1-0.7c0-0.2,0.1-0.5,0.2-0.7
				c0.1-0.5,0.3-0.9,0.5-1.3c0.2-0.4,0.4-0.8,0.7-1.2c1-1.6,2.1-3,3.4-4.4L216.1,222.7z"/>
		</g>
		<path fill="none" stroke="#493016" stroke-width="1.8321" stroke-miterlimit="10" d="M187.5,66.8c0,2.3-1.9,4.1-4.1,4.1
			c-2.3,0-4.1-1.9-4.1-4.1c0-2.3,1.9-4.1,4.1-4.1C185.7,62.7,187.5,64.5,187.5,66.8z"/>
		<circle fill="none" stroke="#493016" stroke-width="1.8321" stroke-miterlimit="10" cx="183.4" cy="91" r="4.1"/>
		<circle fill="none" stroke="#493016" stroke-width="1.8321" stroke-miterlimit="10" cx="183.4" cy="115.3" r="4.1"/>
		<circle fill="none" stroke="#493016" stroke-width="1.8321" stroke-miterlimit="10" cx="183.4" cy="139.5" r="4.1"/>
		<circle fill="none" stroke="#493016" stroke-width="1.2214" stroke-miterlimit="10" cx="157.1" cy="98.6" r="2.8"/>
		<path fill="none" stroke="#493016" stroke-width="1.2214" stroke-miterlimit="10" d="M143.4,102.8c0,1.5-1.3,2.8-2.8,2.8
			c-1.5,0-2.8-1.3-2.8-2.8c0-1.5,1.3-2.8,2.8-2.8C142.2,100,143.4,101.3,143.4,102.8z"/>
		<circle fill="none" stroke="#493016" stroke-width="1.2214" stroke-miterlimit="10" cx="207.8" cy="98" r="2.8"/>
		<path fill="none" stroke="#493016" stroke-width="1.2214" stroke-miterlimit="10" d="M229.5,102.8c0,1.5-1.3,2.8-2.8,2.8
			c-1.5,0-2.8-1.3-2.8-2.8c0-1.5,1.3-2.8,2.8-2.8C228.3,100,229.5,101.3,229.5,102.8z"/>
	</g>
</g>
<g>
	<rect x="-104" y="394.7" fill="none" width="575" height="71"/>
	<path fill="#736357" d="M0.1,439.2v-44.5h23.4v8.5H10.9v8.8h11.3v8.5H10.9v18.7H0.1z"/>
	<path fill="#736357" d="M53.5,439.2c-0.2-2.2-0.7-4.4-1.5-6.5c-0.8-2.1-1.8-4.1-3-5.8c-1.2-1.8-2.6-3.3-4.2-4.6
		c-1.6-1.3-3.3-2.2-5-2.7v19.6H29v-44.5h30.5c-0.1,2.3-0.4,4.4-1.1,6.4c-0.6,2-1.4,3.8-2.3,5.4c-0.9,1.6-2,3-3.1,4.2
		c-1.2,1.2-2.3,2.1-3.5,2.7c2,1,4,2.4,5.9,4.2c1.9,1.8,3.5,3.9,4.9,6.2c1.4,2.3,2.6,4.8,3.5,7.4c0.9,2.6,1.3,5.3,1.3,7.8H53.5z
		 M39.7,403.2v6.9c0.6-0.2,1.3-0.5,2-1c0.7-0.4,1.3-1,1.9-1.6c0.6-0.6,1-1.3,1.4-2c0.4-0.7,0.6-1.5,0.7-2.4H39.7z"/>
	<path fill="#736357" d="M93.4,439.2c-0.1-2.6-0.4-5-0.9-7.3H79.7v7.3H69.2v-45c3.3,0.3,6.4,1.1,9.4,2.6c3,1.4,5.8,3.3,8.3,5.5
		c2.6,2.3,4.9,4.8,6.9,7.7c2.1,2.9,3.8,6,5.3,9.2c1.5,3.2,2.6,6.6,3.4,10c0.8,3.4,1.2,6.7,1.2,10H93.4z M90.3,424.6
		c-1.3-3.2-2.8-6.2-4.6-8.9c-1.8-2.7-3.8-4.9-6-6.6v15.5H90.3z"/>
	<path fill="#736357" d="M151,439.2c-0.1-3-0.5-6-1-8.9c-0.6-2.9-1.3-5.6-2.3-8.1c-0.9-2.5-2-4.8-3.3-6.8c-1.3-2.1-2.7-3.8-4.3-5.3
		v29h-10.5c-0.1-3-0.5-6-1-8.9c-0.6-2.9-1.3-5.6-2.3-8.1c-1-2.5-2.1-4.8-3.4-6.8c-1.3-2.1-2.7-3.8-4.3-5.3v29H108v-45
		c2.1,0.2,4.1,0.6,6.1,1.3c2,0.7,3.8,1.7,5.6,2.8c1.8,1.2,3.5,2.5,5.1,4.1c1.6,1.5,3.1,3.2,4.5,5v-13.2c3.1,0.3,6.1,1.1,8.9,2.6
		c2.8,1.4,5.4,3.3,7.9,5.5c2.4,2.3,4.6,4.8,6.6,7.7c2,2.9,3.6,6,5,9.2s2.4,6.6,3.2,10c0.7,3.4,1.1,6.7,1.1,10H151z"/>
	<path fill="#736357" d="M188.8,439.7c-4-0.3-7.6-1.3-11-3.1c-3.4-1.8-6.3-4.1-8.7-6.8c-2.5-2.7-4.4-5.8-5.8-9.2
		c-1.4-3.4-2.1-6.7-2.1-10.1h6.2c-0.8-0.9-1.6-1.9-2.4-3.1c-0.8-1.2-1.5-2.4-2.1-3.8c-0.6-1.3-1.1-2.8-1.5-4.3
		c-0.4-1.5-0.6-3.1-0.6-4.7h28.9v8.5h-16.4c0.1,0.8,0.4,1.5,0.8,2.3c0.5,0.8,1,1.5,1.7,2.2c0.7,0.7,1.4,1.3,2.3,1.8
		c0.8,0.5,1.7,0.8,2.5,1h8.2v7.8h-14.8c0.4,1.4,1,2.8,1.9,4c0.9,1.2,1.9,2.3,3.2,3.3s2.7,1.8,4.3,2.4c1.6,0.6,3.4,1,5.4,1.2V439.7z"
		/>
	<path fill="#736357" d="M247.4,439.7c-4.2-0.4-8.1-1.7-11.7-4.1c-3.6-2.4-6.8-5.4-9.7-9.1v13.3c-3.1-0.3-6-1.1-8.9-2.6
		c-2.8-1.4-5.4-3.3-7.9-5.5c-2.4-2.3-4.6-4.8-6.6-7.7c-2-2.9-3.6-6-5-9.2c-1.4-3.3-2.4-6.6-3.2-10c-0.7-3.4-1.1-6.7-1.1-10h10.9
		c0.1,3.1,0.5,6,1,8.9c0.6,2.9,1.3,5.6,2.3,8.1c1,2.5,2.1,4.8,3.4,6.9c1.3,2.1,2.7,3.8,4.3,5.3v-29.1h10.5c0.1,3.1,0.4,6,1,8.9
		c0.6,2.9,1.3,5.6,2.3,8.1c1,2.5,2.1,4.8,3.4,6.9c1.3,2.1,2.7,3.8,4.3,5.3v-29.1h10.7V439.7z"/>
	<path fill="#736357" d="M253.7,439.2v-44.5h32.8v44.5H253.7z M275.9,404.2h-11.6v25h11.6V404.2z"/>
	<path fill="#736357" d="M317.3,439.2c-0.2-2.2-0.7-4.4-1.5-6.5c-0.8-2.1-1.8-4.1-3-5.8c-1.2-1.8-2.6-3.3-4.2-4.6
		c-1.6-1.3-3.3-2.2-5-2.7v19.6h-10.7v-44.5h30.5c-0.1,2.3-0.4,4.4-1,6.4c-0.6,2-1.4,3.8-2.3,5.4s-2,3-3.1,4.2
		c-1.2,1.2-2.3,2.1-3.5,2.7c2,1,4,2.4,5.9,4.2c1.9,1.8,3.5,3.9,5,6.2c1.4,2.3,2.6,4.8,3.4,7.4c0.9,2.6,1.3,5.3,1.3,7.8H317.3z
		 M303.6,403.2v6.9c0.6-0.2,1.3-0.5,2-1c0.7-0.4,1.3-1,1.9-1.6c0.6-0.6,1-1.3,1.4-2c0.4-0.7,0.6-1.5,0.7-2.4H303.6z"/>
	<path fill="#736357" d="M357.8,439.2c-0.1-2.3-0.6-4.7-1.3-7c-0.8-2.4-1.8-4.6-3-6.6c-1.2-2-2.7-3.8-4.3-5.4
		c-1.7-1.6-3.5-2.7-5.4-3.5v22.5h-10.7v-44.5h10.7v12.1c0.7,0,1.5-0.3,2.3-1c0.9-0.7,1.7-1.6,2.5-2.7c0.8-1.1,1.6-2.4,2.3-3.9
		c0.7-1.4,1.3-2.9,1.8-4.5h10.7c-1,4.2-2.3,7.6-4,10.3c-1.7,2.7-3.7,4.7-6.1,6.1c2.6,1.4,4.9,3.3,6.9,5.5c2,2.2,3.6,4.6,4.9,7.2
		c1.3,2.6,2.2,5.2,2.9,7.9c0.6,2.7,1,5.2,1,7.5H357.8z"/>
</g>
<g>
	<rect x="-39.5" y="312.9" fill="none" width="442" height="82.4"/>
	<path d="M95.8,372.3v-59.4h43.7v59.4H95.8z M125.4,325.7H110V359h15.4V325.7z"/>
	<path d="M148,312.9h46.1c0,4.3-0.5,8.7-1.6,13.3c-1.1,4.5-2.6,9-4.5,13.3c-1.9,4.3-4.3,8.5-7,12.3c-2.7,3.9-5.8,7.3-9.2,10.3
		c-3.4,3-7.1,5.5-11.1,7.4s-8.2,3.1-12.6,3.4V312.9z M162.1,326.5v24c1.8-1.1,3.5-2.5,5.2-4.2c1.7-1.7,3.1-3.5,4.4-5.6
		c1.3-2.1,2.4-4.3,3.4-6.7c0.9-2.4,1.6-4.9,2-7.5H162.1z"/>
	<path d="M199.8,372.3v-59.4h14.3v59.4H199.8z"/>
	<path d="M252.4,372.3c0-4.4-0.3-8.4-1-12c-0.7-3.7-1.7-7.1-3-10.3c-1.4-3.2-3-6.2-5-9c-2-2.8-4.3-5.6-7-8.3v39.7h-13.8v-59.4h14.2
		c4.1,2.9,7.7,6.2,10.9,10c3.1,3.8,5.5,7.4,7.2,11v-21h12.4v59.4H252.4z"/>
</g>
<g>
</g>
<g>
</g>
<g>
</g>
<g>
</g>
<g>
</g>
<g>
</g>
<g>
</g>
<g>
</g>
<g>
</g>
<g>
</g>
<g>
</g>
<g>
</g>
<g>
</g>
<g>
</g>
<g>
</g>
</svg>
